<svg width="16" height="16" viewBox="0 0 16 16" xmlns="http://www.w3.org/2000/svg">
	<path fill-rule="evenodd" clip-rule="evenodd" d="M3.72377 1.17874C2.72407 0.62803 1.5 1.35123 1.5 2.49258V13.5074C1.5 14.6488 2.72407 15.372 3.72377 14.8213L13.7213 9.31384C14.7562 8.74369 14.7563 7.25632 13.7213 6.68617L3.72377 1.17874ZM2.5 2.49258C2.5 2.11213 2.90802 1.87106 3.24126 2.05464L13.1261 7.5H7.16969C6.26651 7.5 5.43355 7.98716 4.99076 8.77435L2.5 13.2024V2.49258ZM3.2244 13.9543C3.23004 13.9514 3.23566 13.9485 3.24125 13.9454L13.1261 8.5H7.16969C6.62778 8.5 6.12801 8.79229 5.86233 9.26461L3.2244 13.9543Z" />
</svg>
