<svg width="16" height="16" viewBox="0 0 16 16" xmlns="http://www.w3.org/2000/svg">
	<path fill-rule="evenodd" clip-rule="evenodd" d="M11.8268 1.87841C12.0358 1.69792 12.0589 1.38218 11.8784 1.17319C11.6979 0.9642 11.3822 0.941097 11.1732 1.12159L6.86205 4.84487C5.98656 4.01089 4.93336 3.36175 3.76506 2.96002L5.20502 2.20227C5.44939 2.07367 5.54324 1.77132 5.41465 1.52695C5.28605 1.28258 4.9837 1.18872 4.73933 1.31732L2.23632 2.63448C1.99194 2.76308 1.89809 3.06543 2.02669 3.3098L3.34385 5.81281C3.47245 6.05719 3.7748 6.15104 4.01917 6.02244C4.26354 5.89385 4.3574 5.5915 4.2288 5.34713L3.47704 3.91855C4.46163 4.26291 5.35252 4.80689 6.10122 5.50194L0.173213 10.6216C0.0151157 10.7581 -0.0414359 10.9786 0.0314053 11.1743C0.104247 11.3701 0.291127 11.5 0.500023 11.5H8.48359C8.41976 12.4707 8.1714 13.3904 7.77327 14.225L6.94066 12.7829C6.80259 12.5437 6.4968 12.4618 6.25765 12.5999C6.01851 12.7379 5.93657 13.0437 6.07464 13.2829L7.48885 15.7324C7.62692 15.9715 7.93272 16.0534 8.17187 15.9154L10.6214 14.5012C10.8605 14.3631 10.9424 14.0573 10.8044 13.8181C10.6663 13.579 10.3605 13.4971 10.1214 13.6351L8.79121 14.4031C9.18381 13.5054 9.42589 12.527 9.48551 11.5H15.5C15.7762 11.5 16 11.2761 16 11C16 10.7239 15.7762 10.5 15.5 10.5H9.48552C9.37725 8.63317 8.66658 6.92818 7.54502 5.57634L11.8268 1.87841ZM6.78802 6.23011L1.84394 10.5H8.48358C8.37715 8.88327 7.75835 7.4063 6.78802 6.23011Z" />
</svg>
