<svg width="32" height="34" viewBox="0 0 32 34" xmlns="http://www.w3.org/2000/svg">
	<path d="M14.293 0.293015C14.6835 -0.097509 15.3165 -0.097509 15.707 0.293015L19.707 4.29302C20.0975 4.68354 20.0975 5.31657 19.707 5.70708L15.707 9.70708C15.3165 10.0976 14.6835 10.0976 14.293 9.70708C13.9025 9.31657 13.9025 8.68354 14.293 8.29302L16.5859 6.00005H15C7.8203 6.00005 2 11.8203 2 19C2.00004 26.1797 7.82032 32 15 32C22.1797 32 28 26.1797 28 19C28 18.4478 28.4477 18 29 18C29.5523 18 30 18.4478 30 19C30 27.2843 23.2842 34 15 34C6.71575 34 4.08457e-05 27.2843 0 19C0 10.7158 6.71573 4.00005 15 4.00005H16.5859L14.293 1.70708C13.9025 1.31657 13.9025 0.683543 14.293 0.293015Z" />
	<path d="M20.2793 14.3067C20.6622 13.9088 21.2954 13.8965 21.6934 14.2793C22.0912 14.6623 22.1036 15.2955 21.7207 15.6934L14.0205 23.6934C13.832 23.8893 13.5717 24 13.2998 24C13.028 24 12.7676 23.8892 12.5791 23.6934L9.2793 20.2647C8.8964 19.8668 8.90875 19.2336 9.30664 18.8506C9.70457 18.4677 10.3377 18.4801 10.7207 18.878L13.2998 21.5577L20.2793 14.3067Z" />
</svg>
