<svg width="16" height="16" viewBox="0 0 16 16" xmlns="http://www.w3.org/2000/svg" fill-rule="evenodd" clip-rule="evenodd">
	<path d="M2.5 1H1.5C1.22386 1 1 1.22386 1 1.5V2.5C1 2.77614 1.22386 3 1.5 3H2.5C2.77614 3 3 2.77614 3 2.5V1.5C3 1.22386 2.77614 1 2.5 1ZM1.5 0C0.671573 0 0 0.671573 0 1.5V2.5C0 3.32843 0.671573 4 1.5 4H2.5C3.32843 4 4 3.32843 4 2.5V1.5C4 0.671573 3.32843 0 2.5 0H1.5Z" />
	<path d="M2.5 7H1.5C1.22386 7 1 7.22386 1 7.5V8.5C1 8.77614 1.22386 9 1.5 9H2.5C2.77614 9 3 8.77614 3 8.5V7.5C3 7.22386 2.77614 7 2.5 7ZM1.5 6C0.671573 6 0 6.67157 0 7.5V8.5C0 9.32843 0.671573 10 1.5 10H2.5C3.32843 10 4 9.32843 4 8.5V7.5C4 6.67157 3.32843 6 2.5 6H1.5Z" />
	<path d="M2.5 13H1.5C1.22386 13 1 13.2239 1 13.5V14.5C1 14.7761 1.22386 15 1.5 15H2.5C2.77614 15 3 14.7761 3 14.5V13.5C3 13.2239 2.77614 13 2.5 13ZM1.5 12C0.671573 12 0 12.6716 0 13.5V14.5C0 15.3284 0.671573 16 1.5 16H2.5C3.32843 16 4 15.3284 4 14.5V13.5C4 12.6716 3.32843 12 2.5 12H1.5Z" />
	<path d="M6 2C6 1.72386 6.22386 1.5 6.5 1.5H15.5C15.7761 1.5 16 1.72386 16 2C16 2.27614 15.7761 2.5 15.5 2.5H6.5C6.22386 2.5 6 2.27614 6 2Z" />
	<path d="M6 8C6 7.72386 6.22386 7.5 6.5 7.5H15.5C15.7761 7.5 16 7.72386 16 8C16 8.27614 15.7761 8.5 15.5 8.5H6.5C6.22386 8.5 6 8.27614 6 8Z" />
	<path d="M6 14C6 13.7239 6.22386 13.5 6.5 13.5H15.5C15.7761 13.5 16 13.7239 16 14C16 14.2761 15.7761 14.5 15.5 14.5H6.5C6.22386 14.5 6 14.2761 6 14Z" />
</svg>
