<svg width="16" height="16" viewBox="0 0 16 16" xmlns="http://www.w3.org/2000/svg">
	<path d="M13 8C13 8.55228 13.4477 9 14 9C14.5523 9 15 8.55228 15 8C15 7.44772 14.5523 7 14 7C13.4477 7 13 7.44772 13 8ZM14 10C12.8954 10 12 9.10457 12 8C12 6.89543 12.8954 6 14 6C15.1046 6 16 6.89543 16 8C16 9.10457 15.1046 10 14 10ZM0 8C0 7.72386 0.223858 7.5 0.5 7.5H8.29289L5.14645 4.35355C4.95118 4.15829 4.95118 3.84171 5.14645 3.64645C5.34171 3.45118 5.65829 3.45118 5.85355 3.64645L9.85355 7.64645C10.0488 7.84171 10.0488 8.15829 9.85355 8.35355L5.85355 12.3536C5.65829 12.5488 5.34171 12.5488 5.14645 12.3536C4.95118 12.1583 4.95118 11.8417 5.14645 11.6464L8.29289 8.5H0.5C0.223858 8.5 0 8.27614 0 8Z" />
</svg>
