<svg width="16" height="16" viewBox="0 0 16 16" xmlns="http://www.w3.org/2000/svg">
	<path d="M3.41636 2.70925L8 7.29289L12.5836 2.70925C11.3553 1.644 9.75323 1 8 1C6.24677 1 4.64474 1.644 3.41636 2.70925ZM13.2907 3.41636L8.70711 8L13.2907 12.5836C14.356 11.3553 15 9.75323 15 8C15 6.24677 14.356 4.64474 13.2907 3.41636ZM12.5836 13.2907L8 8.70711L3.41636 13.2907C4.64474 14.356 6.24677 15 8 15C9.75323 15 11.3553 14.356 12.5836 13.2907ZM2.70925 12.5836L7.29289 8L2.70925 3.41636C1.644 4.64474 1 6.24677 1 8C1 9.75323 1.644 11.3553 2.70925 12.5836ZM2.34315 2.34315C3.79031 0.895978 5.791 0 8 0C10.209 0 12.2097 0.895978 13.6569 2.34315C15.104 3.79031 16 5.791 16 8C16 10.209 15.104 12.2097 13.6569 13.6569C12.2097 15.104 10.209 16 8 16C5.791 16 3.79031 15.104 2.34315 13.6569C0.895978 12.2097 0 10.209 0 8C0 5.791 0.895978 3.79031 2.34315 2.34315Z" />
</svg>
