<svg width="18" height="17" viewBox="0 0 18 17" xmlns="http://www.w3.org/2000/svg">
	<path d="M8.75003 4.5C9.16424 4.5 9.50003 4.16421 9.50003 3.75C9.50003 3.33579 9.16424 3 8.75003 3C8.33582 3 8.00003 3.33579 8.00003 3.75C8.00003 4.16421 8.33582 4.5 8.75003 4.5ZM11.75 5.5C12.1642 5.5 12.5 5.16421 12.5 4.75C12.5 4.33579 12.1642 4 11.75 4C11.3358 4 11 4.33579 11 4.75C11 5.16421 11.3358 5.5 11.75 5.5ZM14.25 7C14.25 7.41421 13.9142 7.75 13.5 7.75C13.0858 7.75 12.75 7.41421 12.75 7C12.75 6.58579 13.0858 6.25 13.5 6.25C13.9142 6.25 14.25 6.58579 14.25 7ZM13.5 10.75C13.9142 10.75 14.25 10.4142 14.25 10C14.25 9.58579 13.9142 9.25 13.5 9.25C13.0858 9.25 12.75 9.58579 12.75 10C12.75 10.4142 13.0858 10.75 13.5 10.75ZM12.25 12C12.25 12.4142 11.9142 12.75 11.5 12.75C11.0858 12.75 10.75 12.4142 10.75 12C10.75 11.5858 11.0858 11.25 11.5 11.25C11.9142 11.25 12.25 11.5858 12.25 12ZM12.6972 0.991692C9.94259 -0.423371 7.1432 -0.287595 4.77007 1.16636C3.55909 1.9083 2.25331 3.46925 1.51605 5.05899C1.14542 5.85816 0.899147 6.70492 0.902375 7.49318C0.905655 8.2941 1.16983 9.05871 1.84039 9.60526C2.45058 10.1026 2.98165 10.353 3.49574 10.3784C4.01375 10.404 4.41804 10.1942 4.73429 10.0076C4.80382 9.96659 4.86891 9.92705 4.93113 9.88924C5.17332 9.7421 5.37205 9.62135 5.62049 9.54262C5.90191 9.45343 6.2582 9.42052 6.77579 9.57867C6.96661 9.63697 7.08161 9.72347 7.16212 9.82291C7.24792 9.9289 7.31662 10.0774 7.36788 10.2886C7.41955 10.5016 7.44767 10.7527 7.46868 11.0491C7.47651 11.1594 7.48379 11.2855 7.49142 11.4176C7.50252 11.6098 7.51437 11.8149 7.52974 12.0037C7.58435 12.6744 7.69971 13.4401 8.10362 14.1357C8.51764 14.8488 9.20469 15.439 10.307 15.8158C11.9093 16.3636 13.3731 15.9191 14.5126 15.0169C15.6391 14.125 16.4691 12.7761 16.8842 11.4272C18.1991 7.15377 16.6728 3.03394 12.6972 0.991692ZM5.29249 2.01905C7.35686 0.754258 9.7844 0.619592 12.2403 1.88119C15.7473 3.68275 17.1135 7.28161 15.9284 11.1332C15.5624 12.3227 14.8338 13.4871 13.8919 14.2329C12.963 14.9684 11.8486 15.286 10.6305 14.8696C9.72693 14.5607 9.24672 14.1129 8.96842 13.6336C8.68001 13.1369 8.57799 12.5556 8.52644 11.9225C8.51101 11.733 8.50132 11.5621 8.49147 11.3884C8.48399 11.2564 8.47642 11.1229 8.46618 10.9783C8.44424 10.669 8.41175 10.3499 8.33968 10.0529C8.26719 9.75408 8.14902 9.45271 7.93935 9.19371C7.72439 8.92817 7.43532 8.73455 7.06801 8.62232C6.36648 8.40796 5.80266 8.43587 5.31839 8.58934C4.94331 8.70821 4.62016 8.90608 4.37179 9.05817C4.31992 9.08993 4.2713 9.1197 4.22616 9.14634C3.94094 9.31461 3.75357 9.38995 3.54514 9.37964C3.33279 9.36914 3.00262 9.26247 2.47218 8.83012C2.0866 8.51585 1.90473 8.06685 1.90237 7.48908C1.89995 6.89865 2.08843 6.20165 2.42324 5.47971C3.09686 4.0272 4.28471 2.63649 5.29249 2.01905Z" />
</svg>
