<svg width="16" height="16" viewBox="0 0 16 16" xmlns="http://www.w3.org/2000/svg">
	<path fill-rule="evenodd" clip-rule="evenodd" d="M4.31781 1.68742C3.35608 2.12457 3 2.62628 3 3C3 3.37372 3.35608 3.87543 4.31781 4.31258C5.23441 4.72922 6.53579 5 8 5C9.46421 5 10.7656 4.72922 11.6822 4.31258C12.6439 3.87543 13 3.37372 13 3C13 2.62628 12.6439 2.12457 11.6822 1.68742C10.7656 1.27078 9.46421 1 8 1C6.53579 1 5.23441 1.27078 4.31781 1.68742ZM13 4.69813C12.729 4.90046 12.4201 5.07563 12.096 5.22295C11.022 5.71114 9.57336 6 8 6C6.42664 6 4.97802 5.71114 3.90401 5.22295C3.5799 5.07563 3.27105 4.90046 3 4.69813V6.5C3 6.87372 3.35608 7.37543 4.31781 7.81258C5.23441 8.22922 6.53579 8.5 8 8.5C9.46421 8.5 10.7656 8.22922 11.6822 7.81258C12.6439 7.37543 13 6.87372 13 6.5V4.69813ZM14 3C14 1.993 13.1249 1.24472 12.096 0.77705C11.022 0.288862 9.57336 0 8 0C6.42664 0 4.97802 0.288862 3.90401 0.77705C2.87513 1.24472 2 1.993 2 3V13C2 14.007 2.87513 14.7553 3.90401 15.2229C4.97802 15.7111 6.42664 16 8 16C9.57336 16 11.022 15.7111 12.096 15.2229C13.1249 14.7553 14 14.007 14 13V3ZM13 8.19813C12.729 8.40046 12.4201 8.57563 12.096 8.72295C11.022 9.21114 9.57336 9.5 8 9.5C6.42664 9.5 4.97802 9.21114 3.90401 8.72295C3.5799 8.57563 3.27105 8.40046 3 8.19813V10C3 10.3737 3.35608 10.8754 4.31781 11.3126C5.23441 11.7292 6.53579 12 8 12C9.46421 12 10.7656 11.7292 11.6822 11.3126C12.6439 10.8754 13 10.3737 13 10V8.19813ZM13 11.6981C12.729 11.9005 12.4201 12.0756 12.096 12.2229C11.022 12.7111 9.57336 13 8 13C6.42664 13 4.97802 12.7111 3.90401 12.2229C3.5799 12.0756 3.27105 11.9005 3 11.6981V13C3 13.3737 3.35608 13.8754 4.31781 14.3126C5.23441 14.7292 6.53579 15 8 15C9.46421 15 10.7656 14.7292 11.6822 14.3126C12.6439 13.8754 13 13.3737 13 13V11.6981Z" />
</svg>
