<svg width="16" height="16" viewBox="0 0 16 16" xmlns="http://www.w3.org/2000/svg">
	<path d="M9.5 2C9.5 1.17157 8.82843 0.5 8 0.5C7.17157 0.5 6.5 1.17157 6.5 2H9.5ZM5.5 2C5.5 0.619288 6.61929 -0.5 8 -0.5C9.38071 -0.5 10.5 0.619288 10.5 2H15.5C15.7761 2 16 2.22386 16 2.5C16 2.77614 15.7761 3 15.5 3H14.4456L13.6379 10H12.6313L13.439 3H2.56101L3.74131 13.2292C3.85775 14.2384 4.71225 15 5.72813 15H8.08535C8.03008 15.1564 8 15.3247 8 15.5C8 15.6753 8.03008 15.8436 8.08535 16H5.72813C4.20431 16 2.92256 14.8576 2.7479 13.3439L1.55437 3H0.5C0.223858 3 0 2.77614 0 2.5C0 2.22386 0.223858 2 0.5 2H5.5ZM9.5 11C9.22386 11 9 11.2239 9 11.5C9 11.7761 9.22386 12 9.5 12H15.5C15.7761 12 16 11.7761 16 11.5C16 11.2239 15.7761 11 15.5 11H9.5ZM9.5 13C9.22386 13 9 13.2239 9 13.5C9 13.7761 9.22386 14 9.5 14H15.5C15.7761 14 16 13.7761 16 13.5C16 13.2239 15.7761 13 15.5 13H9.5ZM9.5 15C9.22386 15 9 15.2239 9 15.5C9 15.7761 9.22386 16 9.5 16H15.5C15.7761 16 16 15.7761 16 15.5C16 15.2239 15.7761 15 15.5 15H9.5Z" />
</svg>
