<svg width="16" height="16" viewBox="0 0 16 16" xmlns="http://www.w3.org/2000/svg">
	<path fill-rule="evenodd" clip-rule="evenodd" d="M1 3C1 2.72386 1.22386 2.5 1.5 2.5H12C12.2761 2.5 12.5 2.72386 12.5 3C12.5 3.27614 12.2761 3.5 12 3.5H1.5C1.22386 3.5 1 3.27614 1 3ZM1 6.5C1 6.22386 1.22386 6 1.5 6H8.5C8.77614 6 9 6.22386 9 6.5C9 6.77614 8.77614 7 8.5 7H1.5C1.22386 7 1 6.77614 1 6.5ZM12 6C12.2761 6 12.5 6.22386 12.5 6.5V12.7929L14.6464 10.6464C14.8417 10.4512 15.1583 10.4512 15.3536 10.6464C15.5488 10.8417 15.5488 11.1583 15.3536 11.3536L12.3536 14.3536C12.1583 14.5488 11.8417 14.5488 11.6464 14.3536L8.64645 11.3536C8.45118 11.1583 8.45118 10.8417 8.64645 10.6464C8.84171 10.4512 9.15829 10.4512 9.35355 10.6464L11.5 12.7929V6.5C11.5 6.22386 11.7239 6 12 6ZM1 10C1 9.72386 1.22386 9.5 1.5 9.5H5.5C5.77614 9.5 6 9.72386 6 10C6 10.2761 5.77614 10.5 5.5 10.5H1.5C1.22386 10.5 1 10.2761 1 10Z" />
</svg>
