<svg width="16" height="16" viewBox="0 0 16 16" xmlns="http://www.w3.org/2000/svg">
	<path d="M3.22602 -0.64695L2.87774 -1.71775C2.84861 -1.80028 2.79457 -1.87175 2.72307 -1.9223C2.65158 -1.97285 2.56615 -2 2.47857 -2C2.39098 -2 2.30556 -1.97285 2.23406 -1.9223C2.16257 -1.87175 2.10853 -1.80028 2.07939 -1.71775L1.73111 -0.64695C1.62497 -0.32369 1.44544 -0.02935 1.20656 0.21307C0.96768 0.45549 0.67591 0.63941 0.35408 0.75044L-0.717533 1.09845C-0.800128 1.12757 -0.87165 1.18157 -0.922241 1.25301C-0.972832 1.32445 -1 1.40981 -1 1.49733C-1 1.58484 -0.972832 1.6702 -0.922241 1.74164C-0.87165 1.81308 -0.800128 1.86708 -0.717533 1.8962L0.35408 2.24421C0.62919 2.33588 0.88302 2.48064 1.10139 2.66973C1.14208 2.70496 1.18154 2.74173 1.21968 2.77999C1.42023 2.98116 1.57963 3.21872 1.68966 3.47932C1.71284 3.53422 1.73383 3.59014 1.75255 3.64696L2.10082 4.71775C2.12709 4.79215 2.17359 4.85755 2.23486 4.90675C2.24157 4.91213 2.24844 4.91732 2.2555 4.92231C2.32699 4.97286 2.41242 5.00001 2.5 5.00001C2.58758 5.00001 2.67301 4.97286 2.7445 4.92231C2.816 4.87175 2.87004 4.80029 2.89918 4.71775L3.24745 3.64696C3.35575 3.32141 3.53855 3.0256 3.78131 2.78302C4.02408 2.54044 4.32012 2.35778 4.64591 2.24956L5.71753 1.90155C5.80013 1.87244 5.87165 1.81844 5.92224 1.747C5.97283 1.67556 6 1.5902 6 1.50268C6 1.41516 5.97283 1.3298 5.92224 1.25836C5.87165 1.18692 5.80013 1.13292 5.71753 1.10381L5.6961 1.09845L4.62448 0.75044C4.29869 0.64223 4.00265 0.45957 3.75988 0.21699C3.51712 -0.0255899 3.33432 -0.32141 3.22602 -0.64695Z" />
	<path d="M7.01749 5.96461L7.78293 6.21319L7.79824 6.21701C7.85723 6.23781 7.90832 6.27638 7.94446 6.32741C7.98059 6.37844 8 6.43941 8 6.50192C8 6.56443 7.98059 6.62541 7.94446 6.67643C7.90832 6.72746 7.85723 6.76603 7.79824 6.78683L7.0328 7.03541C6.80009 7.11271 6.58863 7.24317 6.41522 7.41645C6.24182 7.58972 6.11125 7.80101 6.0339 8.0335L5.78513 8.7984C5.76431 8.8574 5.72571 8.9084 5.67465 8.9445C5.62358 8.9806 5.56256 9 5.5 9C5.43744 9 5.37642 8.9806 5.32535 8.9445C5.27429 8.9084 5.23569 8.8574 5.21487 8.7984L4.9661 8.0335C4.88926 7.80031 4.75891 7.58824 4.58548 7.41428C4.41205 7.24032 4.20032 7.10926 3.9672 7.03158L3.20176 6.78301C3.14277 6.76221 3.09168 6.72364 3.05554 6.67261C3.01941 6.62158 3 6.56061 3 6.4981C3 6.43558 3.01941 6.37461 3.05554 6.32358C3.09168 6.27255 3.14277 6.23398 3.20176 6.21319L3.9672 5.96461C4.19708 5.8853 4.40548 5.75392 4.57611 5.58077C4.74675 5.40762 4.87498 5.19737 4.9508 4.96647L5.19956 4.20161C5.22038 4.14266 5.25898 4.09161 5.31004 4.05551C5.36111 4.0194 5.42213 4.00001 5.48469 4.00001C5.54725 4.00001 5.60827 4.0194 5.65934 4.05551C5.7104 4.09161 5.74901 4.14266 5.76982 4.20161L6.01859 4.96647C6.09594 5.199 6.22651 5.4103 6.39992 5.58357C6.57332 5.75684 6.78478 5.88731 7.01749 5.96461Z" />
	<path fill-rule="evenodd" clip-rule="evenodd" d="M1.54735 10.2475L3.76289 8.03211C3.80437 8.05687 3.84274 8.08679 3.87694 8.1211C3.94035 8.18471 3.98757 8.26063 4.01561 8.34571L4.22395 8.98525L2.25444 10.9547C2.0611 11.148 1.92692 11.3924 1.86762 11.6593L1.16044 14.8421L4.31975 14.1396C4.60158 14.0769 4.8597 13.9352 5.06385 13.731L13.0435 5.7513L10.2508 2.95864L7.98271 5.22666L7.33202 5.01562C7.24678 4.98731 7.17081 4.94031 7.10741 4.87695C7.07562 4.84519 7.04746 4.80967 7.02372 4.77144L10.9222 0.873168C12.1046 -0.309226 14.029 -0.284951 15.1813 0.926893C16.2932 2.09631 16.27 3.939 15.129 5.08003L5.77096 14.4381C5.43237 14.7767 5.00426 15.0118 4.53683 15.1157L0.610441 15.9889C0.443557 16.026 0.269279 15.9753 0.148381 15.8544C0.027482 15.7335 -0.0232767 15.5592 0.0138042 15.3923L0.891421 11.4424C0.991977 10.9899 1.21952 10.5754 1.54735 10.2475ZM11.6293 1.58029C12.4142 0.795384 13.6917 0.811498 14.4566 1.61596C15.1947 2.39225 15.1793 3.61548 14.4218 4.37293L13.7506 5.04418L10.958 2.25155L11.6293 1.58029Z" />
</svg>
