<svg width="16" height="16" viewBox="0 0 16 16" xmlns="http://www.w3.org/2000/svg">
	<path d="M4.19082 0.770537C4.32113 0.314446 4.738 0 5.21234 0H10.4614C11.1866 0 11.6986 0.710426 11.4693 1.39836L11.4668 1.40584L11.4667 1.40582L10.2054 5H12.7691C13.7155 5 14.1765 6.1436 13.5356 6.81137L13.5321 6.81508L13.5321 6.81506L4.85554 15.6726C4.10116 16.4551 2.79639 15.7329 3.06029 14.6773L4.23001 9.99841H2.96274C2.2569 9.99841 1.7473 9.32283 1.94121 8.64415L4.19082 0.770537ZM5.21234 1C5.18448 1 5.15999 1.01847 5.15234 1.04526L2.90274 8.91887C2.89135 8.95873 2.92128 8.99841 2.96274 8.99841H4.8704C5.02437 8.99841 5.16975 9.06935 5.2645 9.19071C5.35926 9.31207 5.39282 9.47031 5.35547 9.61968L4.03044 14.9198C4.02652 14.9355 4.02682 14.9448 4.02724 14.949C4.02768 14.9534 4.02871 14.9568 4.0303 14.9601C4.03386 14.9676 4.04317 14.9798 4.06079 14.9896C4.07841 14.9993 4.09371 15.0007 4.10195 14.9997C4.1056 14.9993 4.10903 14.9984 4.11298 14.9964C4.11678 14.9945 4.12481 14.9898 4.136 14.9782L4.13956 14.9745L4.13957 14.9745L12.8152 6.11787C12.8273 6.10484 12.8306 6.09481 12.8319 6.0864C12.8336 6.07504 12.8325 6.05898 12.8253 6.04178C12.8181 6.0246 12.8079 6.01365 12.8002 6.00817C12.7949 6.00438 12.787 6 12.7691 6H9.49999C9.33788 6 9.18583 5.9214 9.09208 5.78915C8.99833 5.65689 8.97452 5.48739 9.0282 5.33443L10.5212 1.08022C10.5331 1.04042 10.5033 1 10.4614 1H5.21234Z" />
</svg>
