<svg width="16" height="16" viewBox="0 0 16 16" xmlns="http://www.w3.org/2000/svg">
	<path d="M8 0C8.27614 0 8.5 0.223858 8.5 0.5V15.5C8.5 15.7761 8.27614 16 8 16C7.72386 16 7.5 15.7761 7.5 15.5V0.5C7.5 0.223858 7.72386 0 8 0Z" />
	<path d="M6 2C6.27614 2 6.5 2.22386 6.5 2.5C6.5 2.77614 6.27614 3 6 3H2C1.44772 3 1 3.44772 1 4V12C1 12.5527 1.44717 13 1.99902 13H6C6.27614 13 6.5 13.2239 6.5 13.5C6.5 13.7761 6.27614 14 6 14H1.99902C0.894018 14 2.41303e-08 13.1041 0 12V4C0 2.89543 0.895431 2 2 2H6Z" />
	<path d="M14 2C15.1046 2 16 2.89543 16 4V12C16 13.1046 15.1046 14 14 14H10.5C9.94772 14 9.5 13.5523 9.5 13V10.5C9.5 9.94772 9.94772 9.5 10.5 9.5H15V9H10C9.72386 9 9.5 8.77614 9.5 8.5C9.5 8.22386 9.72386 8 10 8H15V7.5H10C9.72386 7.5 9.5 7.27614 9.5 7C9.5 6.72386 9.72386 6.5 10 6.5H15V6H10C9.72386 6 9.5 5.77614 9.5 5.5C9.5 5.22386 9.72386 5 10 5H15V4C15 3.44772 14.5523 3 14 3H10C9.72386 3 9.5 2.77614 9.5 2.5C9.5 2.22386 9.72386 2 10 2H14Z" />
</svg>
	