<svg width="16" height="16" viewBox="0 0 16 16" xmlns="http://www.w3.org/2000/svg">
	<path fill-rule="evenodd" clip-rule="evenodd" d="M13 1H3C1.89543 1 1 1.89543 1 3V13C1 14.1046 1.89543 15 3 15H13C14.1046 15 15 14.1046 15 13V3C15 1.89543 14.1046 1 13 1ZM3 0C1.34315 0 0 1.34315 0 3V13C0 14.6569 1.34315 16 3 16H13C14.6569 16 16 14.6569 16 13V3C16 1.34315 14.6569 0 13 0H3Z" />
	<path fill-rule="evenodd" clip-rule="evenodd" d="M3.5 3.5V4.5H4.5V3.5H3.5ZM5.5 12.75V11.25C5.5 10.8358 5.16421 10.5 4.75 10.5H3.25C2.83579 10.5 2.5 10.8358 2.5 11.25V12.75C2.5 13.1642 2.83579 13.5 3.25 13.5H4.75C5.16421 13.5 5.5 13.1642 5.5 12.75ZM5.5 8.75V7.25C5.5 6.83579 5.16421 6.5 4.75 6.5H3.25C2.83579 6.5 2.5 6.83579 2.5 7.25V8.75C2.5 9.16421 2.83579 9.5 3.25 9.5H4.75C5.16421 9.5 5.5 9.16421 5.5 8.75ZM5.5 4.75V3.25C5.5 2.83579 5.16421 2.5 4.75 2.5H3.25C2.83579 2.5 2.5 2.83579 2.5 3.25V4.75C2.5 5.16421 2.83579 5.5 3.25 5.5H4.75C5.16421 5.5 5.5 5.16421 5.5 4.75ZM9.5 12.75V11.25C9.5 10.8358 9.16421 10.5 8.75 10.5H7.25C6.83579 10.5 6.5 10.8358 6.5 11.25V12.75C6.5 13.1642 6.83579 13.5 7.25 13.5H8.75C9.16421 13.5 9.5 13.1642 9.5 12.75ZM9.5 8.75V7.25C9.5 6.83579 9.16421 6.5 8.75 6.5H7.25C6.83579 6.5 6.5 6.83579 6.5 7.25V8.75C6.5 9.16421 6.83579 9.5 7.25 9.5H8.75C9.16421 9.5 9.5 9.16421 9.5 8.75ZM9.5 4.75V3.25C9.5 2.83579 9.16421 2.5 8.75 2.5H7.25C6.83579 2.5 6.5 2.83579 6.5 3.25V4.75C6.5 5.16421 6.83579 5.5 7.25 5.5H8.75C9.16421 5.5 9.5 5.16421 9.5 4.75ZM7.5 3.5V4.5H8.5V3.5H7.5ZM11.5 3.5V4.5H12.5V3.5H11.5ZM3.5 7.5V8.5H4.5V7.5H3.5ZM7.5 7.5V8.5H8.5V7.5H7.5ZM11.5 7.5V8.5H12.5V7.5H11.5ZM3.5 11.5V12.5H4.5V11.5H3.5ZM7.5 11.5V12.5H8.5V11.5H7.5ZM11.5 11.5V12.5H12.5V11.5H11.5ZM11.25 2.5C10.8358 2.5 10.5 2.83579 10.5 3.25V4.75C10.5 5.16421 10.8358 5.5 11.25 5.5H12.75C13.1642 5.5 13.5 5.16421 13.5 4.75V3.25C13.5 2.83579 13.1642 2.5 12.75 2.5H11.25ZM10.5 7.25C10.5 6.83579 10.8358 6.5 11.25 6.5H12.75C13.1642 6.5 13.5 6.83579 13.5 7.25V8.75C13.5 9.16421 13.1642 9.5 12.75 9.5H11.25C10.8358 9.5 10.5 9.16421 10.5 8.75V7.25ZM11.25 10.5C10.8358 10.5 10.5 10.8358 10.5 11.25V12.75C10.5 13.1642 10.8358 13.5 11.25 13.5H12.75C13.1642 13.5 13.5 13.1642 13.5 12.75V11.25C13.5 10.8358 13.1642 10.5 12.75 10.5H11.25Z" />
</svg>
