<svg width="16" height="16" viewBox="0 0 16 16" xmlns="http://www.w3.org/2000/svg">
	<path d="M12.8777 -0.217749L13.226 0.85305C13.3343 1.17859 13.5171 1.47441 13.7599 1.71699C14.0027 1.95957 14.2987 2.14223 14.6245 2.25044L15.6961 2.59845L15.7175 2.60381C15.8001 2.63292 15.8716 2.68692 15.9222 2.75836C15.9728 2.8298 16 2.91516 16 3.00268C16 3.0902 15.9728 3.17556 15.9222 3.247C15.8716 3.31844 15.8001 3.37244 15.7175 3.40155L14.6459 3.74956C14.3201 3.85778 14.0241 4.04044 13.7813 4.28302C13.5386 4.5256 13.3558 4.82141 13.2474 5.14696L12.8992 6.21775C12.87 6.30029 12.816 6.37175 12.7445 6.42231C12.673 6.47286 12.5876 6.50001 12.5 6.50001C12.4124 6.50001 12.327 6.47286 12.2555 6.42231C12.2484 6.41732 12.2416 6.41213 12.2349 6.40675C12.1736 6.35755 12.1271 6.29215 12.1008 6.21775L11.7526 5.14696C11.7338 5.09014 11.7128 5.03422 11.6897 4.97932C11.5796 4.71872 11.4202 4.48116 11.2197 4.27999C11.1815 4.24173 11.1421 4.20496 11.1014 4.16973C10.883 3.98064 10.6292 3.83588 10.3541 3.74421L9.28247 3.3962C9.19987 3.36708 9.12835 3.31308 9.07776 3.24164C9.02717 3.1702 9 3.08484 9 2.99733C9 2.90981 9.02717 2.82445 9.07776 2.75301C9.12835 2.68157 9.19987 2.62757 9.28247 2.59845L10.3541 2.25044C10.6759 2.13941 10.9677 1.95549 11.2066 1.71307C11.4454 1.47065 11.625 1.17631 11.7311 0.85305L12.0794 -0.217749C12.1085 -0.30028 12.1626 -0.371748 12.2341 -0.4223C12.3056 -0.472853 12.391 -0.5 12.4786 -0.5C12.5661 -0.5 12.6516 -0.472853 12.7231 -0.4223C12.7946 -0.371748 12.8486 -0.30028 12.8777 -0.217749Z" />
	<path d="M17.7829 7.71319L17.0175 7.46461C16.7848 7.38731 16.5733 7.25684 16.3999 7.08357C16.2265 6.9103 16.0959 6.699 16.0186 6.46647L15.7698 5.70161C15.749 5.64266 15.7104 5.59161 15.6593 5.55551C15.6083 5.5194 15.5472 5.50001 15.4847 5.50001C15.4221 5.50001 15.3611 5.5194 15.31 5.55551C15.259 5.59161 15.2204 5.64266 15.1996 5.70161L14.9508 6.46647C14.875 6.69737 14.7467 6.90762 14.5761 7.08077C14.4055 7.25392 14.1971 7.3853 13.9672 7.46461L13.2018 7.71319C13.1428 7.73398 13.0917 7.77255 13.0555 7.82358C13.0194 7.87461 13 7.93558 13 7.9981C13 8.06061 13.0194 8.12158 13.0555 8.17261C13.0917 8.22364 13.1428 8.26221 13.2018 8.28301L13.9672 8.53158C14.2003 8.60926 14.4121 8.74032 14.5855 8.91428C14.7589 9.08824 14.8893 9.30031 14.9661 9.5335L15.2149 10.2984C15.2357 10.3574 15.2743 10.4084 15.3253 10.4445C15.3764 10.4806 15.4374 10.5 15.5 10.5C15.5626 10.5 15.6236 10.4806 15.6747 10.4445C15.7257 10.4084 15.7643 10.3574 15.7851 10.2984L16.0339 9.5335C16.1112 9.30101 16.2418 9.08972 16.4152 8.91645C16.5886 8.74317 16.8001 8.61271 17.0328 8.53541L17.7982 8.28683C17.8572 8.26603 17.9083 8.22746 17.9445 8.17643C17.9806 8.12541 18 8.06443 18 8.00192C18 7.93941 17.9806 7.87844 17.9445 7.82741C17.9083 7.77638 17.8572 7.73781 17.7982 7.71701L17.7829 7.71319Z" />
	<path d="M8.0961 2.4842C7.88982 2.46412 7.67871 2.50826 7.49372 2.61661L1.48483 6.13608C0.824555 6.52281 0.82557 7.47759 1.48667 7.86292L7.49556 11.3652C7.80676 11.5466 8.19148 11.5466 8.50268 11.3652L12.5088 9.03023C12.4065 8.95115 12.3159 8.85678 12.2402 8.75C12.1166 8.57544 12.0378 8.37379 12.0106 8.16315L8.50269 10.2078C8.19148 10.3892 7.80676 10.3892 7.49556 10.2078L1.99023 6.99896L7.49372 3.77551C7.69752 3.65614 7.93304 3.61471 8.15885 3.65122C8.05498 3.45018 8 3.22619 8 2.99805C8 2.82137 8.03297 2.64718 8.0961 2.4842Z" />
	<path d="M10.3933 4.88176L10.136 4.73108C10.2277 4.77063 10.3143 4.8212 10.3933 4.88176Z" />
	<path d="M5.24935 11.5666C5.00996 11.4289 4.70431 11.5114 4.56666 11.7508C4.429 11.9901 4.51148 12.2958 4.75086 12.4334L7.00358 13.7288C7.62045 14.0835 8.37933 14.0837 8.99642 13.7294L11.249 12.4359C11.4885 12.2984 11.5711 11.9928 11.4336 11.7534C11.2961 11.5139 10.9905 11.4312 10.751 11.5687L8.49846 12.8622C8.18992 13.0394 7.81049 13.0393 7.50206 12.8619L5.24935 11.5666Z" />
</svg>
