<svg width="16" height="16" viewBox="0 0 16 16" xmlns="http://www.w3.org/2000/svg">
	<path d="M12.8777 -0.717749L13.226 0.353051C13.3343 0.678594 13.5171 0.974411 13.7599 1.21699C14.0026 1.45957 14.2987 1.64223 14.6245 1.75044L15.6961 2.09845L15.7175 2.10381C15.8001 2.13292 15.8716 2.18692 15.9222 2.25836C15.9728 2.3298 16 2.41516 16 2.50268C16 2.5902 15.9728 2.67556 15.9222 2.747C15.8716 2.81844 15.8001 2.87244 15.7175 2.90155L14.6459 3.24956C14.3201 3.35778 14.0241 3.54044 13.7813 3.78302C13.5385 4.0256 13.3558 4.32141 13.2475 4.64696L12.8992 5.71775C12.87 5.80029 12.816 5.87175 12.7445 5.92231C12.673 5.97286 12.5876 6.00001 12.5 6.00001C12.4124 6.00001 12.327 5.97286 12.2555 5.92231C12.2484 5.91732 12.2416 5.91213 12.2349 5.90675C12.1736 5.85755 12.1271 5.79215 12.1008 5.71775L11.7525 4.64696C11.7338 4.59014 11.7128 4.53422 11.6897 4.47932C11.5796 4.21872 11.4202 3.98116 11.2197 3.77999C11.1815 3.74173 11.1421 3.70496 11.1014 3.66973C10.883 3.48064 10.6292 3.33588 10.3541 3.24421L9.28247 2.8962C9.19987 2.86708 9.12835 2.81308 9.07776 2.74164C9.02717 2.6702 9 2.58484 9 2.49733C9 2.40981 9.02717 2.32445 9.07776 2.25301C9.12835 2.18157 9.19987 2.12757 9.28247 2.09845L10.3541 1.75044C10.6759 1.63941 10.9677 1.45549 11.2066 1.21307C11.4454 0.970654 11.625 0.676309 11.7311 0.353051L12.0794 -0.717749C12.1085 -0.80028 12.1626 -0.871748 12.2341 -0.9223C12.3056 -0.972853 12.391 -1 12.4786 -1C12.5662 -1 12.6516 -0.972853 12.7231 -0.9223C12.7946 -0.871748 12.8486 -0.80028 12.8777 -0.717749ZM17.7829 7.21319L17.0175 6.96461C16.7848 6.88731 16.5733 6.75684 16.3999 6.58357C16.2265 6.4103 16.0959 6.199 16.0186 5.96647L15.7698 5.20161C15.749 5.14266 15.7104 5.09161 15.6593 5.05551C15.6083 5.0194 15.5473 5.00001 15.4847 5.00001C15.4221 5.00001 15.3611 5.0194 15.31 5.05551C15.259 5.09161 15.2204 5.14266 15.1996 5.20161L14.9508 5.96647C14.875 6.19737 14.7467 6.40762 14.5761 6.58077C14.4055 6.75392 14.1971 6.8853 13.9672 6.96461L13.2018 7.21319C13.1428 7.23398 13.0917 7.27255 13.0555 7.32358C13.0194 7.37461 13 7.43558 13 7.4981C13 7.56061 13.0194 7.62158 13.0555 7.67261C13.0917 7.72364 13.1428 7.76221 13.2018 7.78301L13.9672 8.03158C14.2003 8.10926 14.412 8.24032 14.5855 8.41428C14.7589 8.58824 14.8893 8.80031 14.9661 9.03355L15.2149 9.7984C15.2357 9.85735 15.2743 9.9084 15.3254 9.94451C15.3764 9.98062 15.4374 10 15.5 10C15.5626 10 15.6236 9.98062 15.6746 9.94451C15.7257 9.9084 15.7643 9.85735 15.7851 9.7984L16.0339 9.03355C16.1113 8.80101 16.2418 8.58972 16.4152 8.41645C16.5886 8.24317 16.8001 8.11271 17.0328 8.03541L17.7982 7.78683C17.8572 7.76603 17.9083 7.72746 17.9445 7.67643C17.9806 7.62541 18 7.56443 18 7.50192C18 7.43941 17.9806 7.37844 17.9445 7.32741C17.9083 7.27638 17.8572 7.23781 17.7982 7.21701L17.7829 7.21319ZM15.5018 11C15.3276 10.9993 15.1576 10.9654 15 10.9009V12.1236C15 12.3287 14.8748 12.513 14.6841 12.5885L8.68412 14.9649C8.35591 15.0949 8 14.853 8 14.5V7.87683C8 7.67176 8.12522 7.48748 8.31588 7.41197L11.2432 6.25258C11.2073 6.18719 11.1775 6.1203 11.1529 6.05192L10.9079 5.30977L7.94765 6.48223C7.37566 6.70878 7 7.26162 7 7.87683V14.5C7 15.559 8.06774 16.2846 9.05235 15.8946L15.0524 13.5182C15.6243 13.2917 16 12.7388 16 12.1236V10.9211C15.8433 10.9785 15.6746 10.9996 15.5018 11ZM8.26024 3.31745C8.19717 3.22834 8.1451 3.13373 8.10454 3.03464L4.26353 4.55592C3.50088 4.85798 3 5.5951 3 6.41539V12.4978C3 13.5571 4.06819 14.2826 5.05288 13.8922L6 13.5167V12.4409L4.68429 12.9626C4.35606 13.0927 4 12.8509 4 12.4978V6.41539C4 6.00524 4.25044 5.63668 4.63177 5.48565L8.86592 3.80866C8.61425 3.702 8.41008 3.52914 8.26024 3.31745ZM8.95086 1.15392L9.41625 1.00437C9.14691 0.231672 8.26807 -0.218811 7.44703 0.106372L1.57942 2.43032C0.626104 2.80789 0 3.7293 0 4.75466V10.4973C0 11.5376 1.03035 12.2561 2 11.9116V10.8369L1.68429 10.9621C1.35606 11.0922 1 10.8504 1 10.4973V4.75466C1 4.13944 1.37566 3.5866 1.94765 3.36006L7.81526 1.03611C8.11744 0.916423 8.44311 1.11195 8.49286 1.41923C8.62644 1.30443 8.78133 1.21451 8.95086 1.15392Z" />
</svg>
