<svg width="18" height="18" viewBox="0 0 18 18" xmlns="http://www.w3.org/2000/svg">
	<path d="M13.226 1.85305L12.8777 0.782251C12.8486 0.69972 12.7946 0.628252 12.7231 0.5777C12.6516 0.527147 12.5661 0.5 12.4786 0.5C12.391 0.5 12.3056 0.527147 12.2341 0.5777C12.1626 0.628252 12.1085 0.69972 12.0794 0.782251L11.7311 1.85305C11.625 2.17631 11.4454 2.47065 11.2066 2.71307C10.9677 2.95549 10.6759 3.13941 10.3541 3.25044L9.28247 3.59845C9.19987 3.62757 9.12835 3.68157 9.07776 3.75301C9.02717 3.82445 9 3.90981 9 3.99733C9 4.08484 9.02717 4.1702 9.07776 4.24164C9.12835 4.31308 9.19987 4.36708 9.28247 4.3962L10.3541 4.74421C10.6292 4.83588 10.883 4.98064 11.1014 5.16973C11.1421 5.20496 11.1815 5.24173 11.2197 5.27999C11.4202 5.48116 11.5796 5.71872 11.6897 5.97932C11.7128 6.03422 11.7338 6.09014 11.7526 6.14696L12.1008 7.21775C12.1271 7.29215 12.1736 7.35755 12.2349 7.40675C12.2416 7.41213 12.2484 7.41732 12.2555 7.42231C12.327 7.47286 12.4124 7.50001 12.5 7.50001C12.5876 7.50001 12.673 7.47286 12.7445 7.42231C12.816 7.37175 12.87 7.30029 12.8992 7.21775L13.2474 6.14696C13.3558 5.82141 13.5385 5.5256 13.7813 5.28302C14.0241 5.04044 14.3201 4.85778 14.6459 4.74956L15.7175 4.40155C15.8001 4.37244 15.8717 4.31844 15.9222 4.247C15.9728 4.17556 16 4.0902 16 4.00268C16 3.91516 15.9728 3.8298 15.9222 3.75836C15.8717 3.68692 15.8001 3.63292 15.7175 3.60381L15.6961 3.59845L14.6245 3.25044C14.2987 3.14223 14.0026 2.95957 13.7599 2.71699C13.5171 2.47441 13.3343 2.17859 13.226 1.85305Z" />
	<path d="M17.0175 8.46461L17.7829 8.71319L17.7982 8.71701C17.8572 8.73781 17.9083 8.77638 17.9445 8.82741C17.9806 8.87844 18 8.93941 18 9.00192C18 9.06443 17.9806 9.12541 17.9445 9.17643C17.9083 9.22746 17.8572 9.26603 17.7982 9.28683L17.0328 9.53541C16.8001 9.61271 16.5886 9.74317 16.4152 9.91645C16.2418 10.0897 16.1112 10.301 16.0339 10.5335L15.7851 11.2984C15.7643 11.3574 15.7257 11.4084 15.6747 11.4445C15.6236 11.4806 15.5626 11.5 15.5 11.5C15.4374 11.5 15.3764 11.4806 15.3253 11.4445C15.2743 11.4084 15.2357 11.3574 15.2149 11.2984L14.9661 10.5335C14.8893 10.3003 14.7589 10.0882 14.5855 9.91428C14.4121 9.74032 14.2003 9.60926 13.9672 9.53158L13.2018 9.28301C13.1428 9.26221 13.0917 9.22364 13.0555 9.17261C13.0194 9.12158 13 9.06061 13 8.9981C13 8.93558 13.0194 8.87461 13.0555 8.82358C13.0917 8.77255 13.1428 8.73398 13.2018 8.71319L13.9672 8.46461C14.1971 8.3853 14.4055 8.25392 14.5761 8.08077C14.7467 7.90762 14.875 7.69737 14.9508 7.46647L15.1996 6.70161C15.2204 6.64266 15.259 6.59161 15.31 6.55551C15.3611 6.5194 15.4221 6.50001 15.4847 6.50001C15.5473 6.50001 15.6083 6.5194 15.6593 6.55551C15.7104 6.59161 15.749 6.64266 15.7698 6.70161L16.0186 7.46647C16.0959 7.699 16.2265 7.9103 16.3999 8.08357C16.5733 8.25684 16.7848 8.38731 17.0175 8.46461Z" />
	<path d="M7.49372 3.11661C7.76027 2.96048 8.08108 2.93769 8.36348 3.04821C8.3273 3.0886 8.2933 3.13118 8.26172 3.17578C8.09159 3.41602 8 3.70358 8 3.99805C8 4.04507 8.00234 4.09192 8.00695 4.13843C7.82968 4.13704 7.65212 4.18273 7.49372 4.27551L1.99023 7.49896L7.49556 10.7078C7.80676 10.8892 8.19148 10.8892 8.50269 10.7078L12.0862 8.61909C12.0355 8.73995 12 8.86539 12 8.99805C12 9.24927 12.0735 9.49455 12.2095 9.70467L8.50268 11.8652C8.19148 12.0466 7.80676 12.0466 7.49556 11.8652L1.48667 8.36292C0.82557 7.97759 0.824555 7.02281 1.48483 6.63608L7.49372 3.11661Z" />
	<path fill-rule="evenodd" clip-rule="evenodd" d="M8 13C8.27614 13 8.5 13.2239 8.5 13.5V14.5H9.5C9.77614 14.5 10 14.7239 10 15C10 15.2761 9.77614 15.5 9.5 15.5H8.5V16.5C8.5 16.7761 8.27614 17 8 17C7.72386 17 7.5 16.7761 7.5 16.5V15.5H6.5C6.22386 15.5 6 15.2761 6 15C6 14.7239 6.22386 14.5 6.5 14.5H7.5V13.5C7.5 13.2239 7.72386 13 8 13Z" />
</svg>
