<svg width="16" height="16" viewBox="0 0 16 16" xmlns="http://www.w3.org/2000/svg">
	<path d="M13.226 1.35305L12.8777 0.282251C12.8486 0.19972 12.7946 0.128252 12.7231 0.0776997C12.6516 0.0271473 12.5661 0 12.4786 0C12.391 0 12.3056 0.0271473 12.2341 0.0776997C12.1626 0.128252 12.1085 0.19972 12.0794 0.282251L11.7311 1.35305C11.625 1.67631 11.4454 1.97065 11.2066 2.21307C10.9677 2.45549 10.6759 2.63941 10.3541 2.75044L9.28247 3.09845C9.19987 3.12757 9.12835 3.18157 9.07776 3.25301C9.02717 3.32445 9 3.40981 9 3.49733C9 3.58484 9.02717 3.6702 9.07776 3.74164C9.12835 3.81308 9.19987 3.86708 9.28247 3.8962L10.3541 4.24421C10.6292 4.33588 10.883 4.48064 11.1014 4.66973C11.1421 4.70496 11.1815 4.74173 11.2197 4.77999C11.4202 4.98116 11.5796 5.21872 11.6897 5.47932C11.7128 5.53422 11.7338 5.59014 11.7526 5.64696L12.1008 6.71775C12.1271 6.79215 12.1736 6.85755 12.2349 6.90675C12.2416 6.91213 12.2484 6.91732 12.2555 6.92231C12.327 6.97286 12.4124 7.00001 12.5 7.00001C12.5876 7.00001 12.673 6.97286 12.7445 6.92231C12.816 6.87175 12.87 6.80029 12.8992 6.71775L13.2474 5.64696C13.3558 5.32141 13.5386 5.0256 13.7813 4.78302C14.0241 4.54044 14.3201 4.35778 14.6459 4.24956L15.7175 3.90155C15.8001 3.87244 15.8716 3.81844 15.9222 3.747C15.9728 3.67556 16 3.5902 16 3.50268C16 3.41516 15.9728 3.3298 15.9222 3.25836C15.8716 3.18692 15.8001 3.13292 15.7175 3.10381L15.6961 3.09845L14.6245 2.75044C14.2987 2.64223 14.0027 2.45957 13.7599 2.21699C13.5171 1.97441 13.3343 1.67859 13.226 1.35305Z" />
	<path d="M17.0175 7.96461L17.7829 8.21319L17.7982 8.21701C17.8572 8.23781 17.9083 8.27638 17.9445 8.32741C17.9806 8.37844 18 8.43941 18 8.50192C18 8.56443 17.9806 8.62541 17.9445 8.67643C17.9083 8.72746 17.8572 8.76603 17.7982 8.78683L17.0328 9.03541C16.8001 9.11271 16.5886 9.24317 16.4152 9.41645C16.2418 9.58972 16.1112 9.80101 16.0339 10.0335L15.7851 10.7984C15.7643 10.8574 15.7257 10.9084 15.6747 10.9445C15.6236 10.9806 15.5626 11 15.5 11C15.4374 11 15.3764 10.9806 15.3253 10.9445C15.2743 10.9084 15.2357 10.8574 15.2149 10.7984L14.9661 10.0335C14.8893 9.80031 14.7589 9.58824 14.5855 9.41428C14.4121 9.24032 14.2003 9.10926 13.9672 9.03158L13.2018 8.78301C13.1428 8.76221 13.0917 8.72364 13.0555 8.67261C13.0194 8.62158 13 8.56061 13 8.4981C13 8.43558 13.0194 8.37461 13.0555 8.32358C13.0917 8.27255 13.1428 8.23398 13.2018 8.21319L13.9672 7.96461C14.1971 7.8853 14.4055 7.75392 14.5761 7.58077C14.7467 7.40762 14.875 7.19737 14.9508 6.96647L15.1996 6.20161C15.2204 6.14266 15.259 6.09161 15.31 6.05551C15.3611 6.0194 15.4221 6.00001 15.4847 6.00001C15.5472 6.00001 15.6083 6.0194 15.6593 6.05551C15.7104 6.09161 15.749 6.14266 15.7698 6.20161L16.0186 6.96647C16.0959 7.199 16.2265 7.4103 16.3999 7.58357C16.5733 7.75684 16.7848 7.88731 17.0175 7.96461Z" />
	<path d="M14.7481 11.7617C14.6099 11.6641 14.4925 11.5403 14.4021 11.3986L8.48949 14.7254C8.18502 14.8967 7.81322 14.8967 7.50875 14.7254L1.07073 11.103C0.883756 11.5412 1.02254 12.0924 1.48667 12.3629L7.49556 15.8653C7.80676 16.0467 8.19148 16.0467 8.50268 15.8653L14.5116 12.3629C14.7172 12.2431 14.8589 12.0682 14.9368 11.8725C14.8712 11.8411 14.808 11.8041 14.7481 11.7617Z" />
	<path d="M13.6504 9.98047L12.961 9.75651L8.48949 12.2725C8.18502 12.4438 7.81322 12.4438 7.50875 12.2725L1.07073 8.65002C0.883756 9.08828 1.02254 9.63948 1.48667 9.91L7.49556 13.4123C7.80676 13.5937 8.19148 13.5937 8.50268 13.4123L13.9624 10.2301C13.9386 10.1907 13.91 10.1542 13.877 10.1211C13.8135 10.0575 13.7358 10.0089 13.6504 9.98047Z" />
	<path d="M8.50452 2.11661L8.73567 2.25199C8.54865 2.35514 8.38644 2.49966 8.26172 2.67578C8.16187 2.81678 8.08908 2.97407 8.04597 3.13949C7.85585 3.13059 7.66374 3.17593 7.49372 3.27551L1.99023 6.49896L7.49556 9.70778C7.80676 9.88917 8.19148 9.88917 8.50269 9.70778L11.7817 7.79657C11.8736 7.837 11.9736 7.85716 12.0739 7.87736C12.1132 7.88527 12.1525 7.8932 12.1914 7.90234C12.0921 8.08952 12 8.28444 12 8.49805C12 8.60214 12.0126 8.70521 12.0371 8.80519L8.50268 10.8652C8.19148 11.0466 7.80676 11.0466 7.49556 10.8652L1.48667 7.36292C0.82557 6.97759 0.824555 6.02281 1.48483 5.63608L7.49372 2.11661C7.80585 1.93379 8.19239 1.93379 8.50452 2.11661Z" />
</svg>
