<svg width="16" height="16" viewBox="0 0 16 16" xmlns="http://www.w3.org/2000/svg">
	<path fill-rule="evenodd" clip-rule="evenodd" d="M8.3359 1.30024C7.51106 2.11594 7 3.24829 7 4.5C7 4.88247 7.04771 5.25379 7.13752 5.60834L0.519349 13.0415C-0.153012 13.7257 -0.149333 14.8255 0.530385 15.5052C1.21122 16.186 2.31347 16.1886 2.99749 15.5129L10.2507 8.82433C10.6474 8.93871 11.0665 9 11.5 9C12.7519 9 13.8843 8.48882 14.7 7.66381C14.7032 7.66071 14.7064 7.65759 14.7095 7.65445C15.5077 6.84239 16 5.72864 16 4.5C16 2.01472 13.9853 0 11.5 0C10.2714 0 9.15773 0.492393 8.34566 1.29061C8.34243 1.29385 8.33909 1.29698 8.3359 1.30024ZM8.15855 3.45536C8.05552 3.78527 8 4.13615 8 4.5C8 6.433 9.567 8 11.5 8C11.8639 8 12.2147 7.94448 12.5446 7.84145C12.5199 7.83224 12.4951 7.82279 12.4703 7.81309C11.6564 7.4946 10.7546 6.88148 9.93653 6.06346C9.11852 5.24544 8.5054 4.3436 8.1869 3.52967C8.17721 3.5049 8.16776 3.48013 8.15855 3.45536ZM9.04676 2.00368C8.99478 2.05908 8.94292 2.16151 8.93963 2.35643C8.93616 2.56206 8.98918 2.8357 9.11814 3.16527C9.37548 3.8229 9.89956 4.61227 10.6436 5.35635C11.3877 6.10043 12.1771 6.62452 12.8347 6.88185C13.1643 7.01081 13.4379 7.06384 13.6436 7.06036C13.8387 7.05707 13.9411 7.00512 13.9965 6.95309C14.6171 6.32151 15 5.45547 15 4.5C15 2.567 13.433 1 11.5 1C10.5445 1 9.67835 1.38292 9.04676 2.00368ZM7.54705 6.65218C7.94214 7.37631 8.53041 7.9799 9.2426 8.39369L2.30531 14.7909L2.29815 14.7981C2.00526 15.091 1.53039 15.091 1.23749 14.7981C0.944599 14.5052 0.944599 14.0303 1.23749 13.7374L1.24774 13.7272L7.54705 6.65218Z" />
</svg>
