<svg width="16" height="16" viewBox="0 0 16 16" xmlns="http://www.w3.org/2000/svg">
	<path fill-rule="evenodd" clip-rule="evenodd" d="M0 8C0 3.58172 3.58172 0 8 0C10.209 0 12.2097 0.895978 13.6569 2.34315C15.104 3.79031 16 5.791 16 8C16 12.4183 12.4183 16 8 16C5.791 16 3.79031 15.104 2.34315 13.6569C0.895978 12.2097 0 10.209 0 8ZM8 1C4.13401 1 1 4.13401 1 8C1 9.75323 1.644 11.3553 2.70925 12.5836L12.5836 2.70925C11.3553 1.644 9.75323 1 8 1ZM13.2907 3.41636L3.41636 13.2907C4.64474 14.356 6.24677 15 8 15C11.866 15 15 11.866 15 8C15 6.24677 14.356 4.64474 13.2907 3.41636Z" />
	<path fill-rule="evenodd" clip-rule="evenodd" d="M3.64645 3.14645C3.84171 2.95118 4.15829 2.95118 4.35355 3.14645L5.5 4.29289L6.64645 3.14645C6.84171 2.95118 7.15829 2.95118 7.35355 3.14645C7.54882 3.34171 7.54882 3.65829 7.35355 3.85355L6.20711 5L7.35355 6.14645C7.54882 6.34171 7.54882 6.65829 7.35355 6.85355C7.15829 7.04882 6.84171 7.04882 6.64645 6.85355L5.5 5.70711L4.35355 6.85355C4.15829 7.04882 3.84171 7.04882 3.64645 6.85355C3.45118 6.65829 3.45118 6.34171 3.64645 6.14645L4.79289 5L3.64645 3.85355C3.45118 3.65829 3.45118 3.34171 3.64645 3.14645Z" />
	<path fill-rule="evenodd" clip-rule="evenodd" d="M8.5 10.7008C8.5 10.4247 8.72386 10.2008 9 10.2008H12.3264C12.6025 10.2008 12.8264 10.4247 12.8264 10.7008C12.8264 10.977 12.6025 11.2008 12.3264 11.2008H9C8.72386 11.2008 8.5 10.977 8.5 10.7008Z" />
	<path d="M11.2882 9.125C11.2882 9.47018 11.0084 9.75 10.6632 9.75C10.318 9.75 10.0382 9.47018 10.0382 9.125C10.0382 8.77982 10.318 8.5 10.6632 8.5C11.0084 8.5 11.2882 8.77982 11.2882 9.125Z" />
	<path d="M11.2882 12.285C11.2882 12.6302 11.0084 12.91 10.6632 12.91C10.318 12.91 10.0382 12.6302 10.0382 12.285C10.0382 11.9398 10.318 11.66 10.6632 11.66C11.0084 11.66 11.2882 11.9398 11.2882 12.285Z" />
</svg>
