<svg width="16" height="16" viewBox="0 0 16 16" xmlns="http://www.w3.org/2000/svg">
	<path d="M-0.5 4C-0.5 2.89543 0.395431 2 1.5 2H2.5C3.60457 2 4.5 2.89543 4.5 4V12C4.5 13.1046 3.60457 14 2.5 14H1.5C0.39543 14 -0.5 13.1046 -0.5 12V4Z" />
	<path fill-rule="evenodd" clip-rule="evenodd" d="M8.5 3H7.5C6.94772 3 6.5 3.44772 6.5 4V12C6.5 12.5523 6.94772 13 7.5 13H8.5C9.05228 13 9.5 12.5523 9.5 12V4C9.5 3.44772 9.05228 3 8.5 3ZM7.5 2C6.39543 2 5.5 2.89543 5.5 4V12C5.5 13.1046 6.39543 14 7.5 14H8.5C9.60457 14 10.5 13.1046 10.5 12V4C10.5 2.89543 9.60457 2 8.5 2H7.5Z" />
	<path d="M11.5 4C11.5 2.89543 12.3954 2 13.5 2H14.5C15.6046 2 16.5 2.89543 16.5 4V12C16.5 13.1046 15.6046 14 14.5 14H13.5C12.3954 14 11.5 13.1046 11.5 12V4Z" />
</svg>
