<svg width="16" height="16" viewBox="0 0 16 16" xmlns="http://www.w3.org/2000/svg">
	<path fill-rule="evenodd" clip-rule="evenodd" d="M13 2.5V1.5C13 0.947715 12.5523 0.5 12 0.5H4C3.44771 0.5 3 0.947715 3 1.5V2.5C3 3.05228 3.44772 3.5 4 3.5H12C12.5523 3.5 13 3.05228 13 2.5ZM14 1.5C14 0.395431 13.1046 -0.5 12 -0.5H4C2.89543 -0.5 2 0.39543 2 1.5V2.5C2 3.60457 2.89543 4.5 4 4.5H12C13.1046 4.5 14 3.60457 14 2.5V1.5Z" />
	<path d="M12 5.5C13.1046 5.5 14 6.39543 14 7.5V8.5C14 9.60457 13.1046 10.5 12 10.5H4C2.89543 10.5 2 9.60457 2 8.5V7.5C2 6.39543 2.89543 5.5 4 5.5H12Z" />
	<path fill-rule="evenodd" clip-rule="evenodd" d="M13 14.5V13.5C13 12.9477 12.5523 12.5 12 12.5H4C3.44771 12.5 3 12.9477 3 13.5V14.5C3 15.0523 3.44772 15.5 4 15.5H12C12.5523 15.5 13 15.0523 13 14.5ZM14 13.5C14 12.3954 13.1046 11.5 12 11.5H4C2.89543 11.5 2 12.3954 2 13.5V14.5C2 15.6046 2.89543 16.5 4 16.5H12C13.1046 16.5 14 15.6046 14 14.5V13.5Z" />
</svg>
