<svg width="16" height="16" viewBox="0 0 16 16" xmlns="http://www.w3.org/2000/svg">
	<path d="M9.25 5.25C10.0784 5.25 10.75 5.92157 10.75 6.75V9.25C10.75 10.0784 10.0784 10.75 9.25 10.75H6.75C5.92157 10.75 5.25 10.0784 5.25 9.25V6.75C5.25 5.92157 5.92157 5.25 6.75 5.25H9.25Z" />
	<path fill-rule="evenodd" clip-rule="evenodd" d="M13 0C14.6569 0 16 1.34315 16 3V13C16 14.6569 14.6569 16 13 16H3L2.8457 15.9961C1.26055 15.9158 0 14.6051 0 13V3C0 1.34315 1.34315 0 3 0H13ZM5.5 4C5.5 4.82843 4.82843 5.5 4 5.5H2C1.44772 5.5 1 5.94772 1 6.5V9.5C1 10.0523 1.44772 10.5 2 10.5H4C4.82843 10.5 5.5 11.1716 5.5 12V14C5.5 14.5523 5.94772 15 6.5 15H9.5C10.0523 15 10.5 14.5523 10.5 14V12C10.5 11.1716 11.1716 10.5 12 10.5H14C14.5523 10.5 15 10.0523 15 9.5V6.5C15 5.94772 14.5523 5.5 14 5.5H12C11.1716 5.5 10.5 4.82843 10.5 4V2C10.5 1.44772 10.0523 1 9.5 1H6.5C5.94772 1 5.5 1.44772 5.5 2V4Z" />
</svg>
