<svg width="16" height="16" viewBox="0 0 16 16" xmlns="http://www.w3.org/2000/svg">
	<path d="M8 0C7.46636 0 6.94444 0.05232 6.43925 0.152261C6.16836 0.205852 5.9922 0.468898 6.04579 0.73979C6.09938 1.01068 6.36243 1.18684 6.63332 1.13325C7.07494 1.04588 7.53186 1 8 1C8.46814 1 8.92506 1.04588 9.36668 1.13325C9.63757 1.18684 9.90062 1.01068 9.95421 0.73979C10.0078 0.468898 9.83164 0.205852 9.56075 0.152262C9.05556 0.0523201 8.53364 0 8 0ZM12.4453 1.34778C12.2158 1.19415 11.9053 1.25563 11.7516 1.4851C11.598 1.71457 11.6595 2.02512 11.889 2.17874C12.6525 2.68994 13.3101 3.34747 13.8213 4.11104C13.9749 4.34051 14.2854 4.40199 14.5149 4.24837C14.7444 4.09474 14.8058 3.78419 14.6522 3.55472C14.0683 2.68253 13.3175 1.9317 12.4453 1.34778ZM4.11104 2.17874C4.34051 2.02512 4.40199 1.71457 4.24837 1.4851C4.09474 1.25563 3.78419 1.19415 3.55472 1.34778C2.68253 1.9317 1.9317 2.68253 1.34778 3.55472C1.19415 3.78419 1.25563 4.09474 1.4851 4.24837C1.71457 4.40199 2.02512 4.34051 2.17874 4.11104C2.68994 3.34747 3.34747 2.68994 4.11104 2.17874ZM1.13325 6.63332C1.18684 6.36243 1.01068 6.09938 0.73979 6.04579C0.468898 5.9922 0.205852 6.16836 0.152262 6.43925C0.0523201 6.94444 0 7.46636 0 8C0 8.53364 0.05232 9.05556 0.152261 9.56075C0.205852 9.83164 0.468898 10.0078 0.73979 9.95421C1.01068 9.90062 1.18684 9.63757 1.13325 9.36668C1.04588 8.92506 1 8.46814 1 8C1 7.53186 1.04588 7.07494 1.13325 6.63332ZM15.8477 6.43925C15.7941 6.16836 15.5311 5.9922 15.2602 6.04579C14.9893 6.09938 14.8132 6.36243 14.8668 6.63332C14.9541 7.07494 15 7.53186 15 8C15 8.46814 14.9541 8.92506 14.8668 9.36668C14.8132 9.63757 14.9893 9.90062 15.2602 9.95421C15.5311 10.0078 15.7941 9.83164 15.8477 9.56075C15.9477 9.05556 16 8.53364 16 8C16 7.46636 15.9477 6.94444 15.8477 6.43925ZM2.17874 11.889C2.02512 11.6595 1.71457 11.598 1.4851 11.7516C1.25563 11.9053 1.19415 12.2158 1.34778 12.4453C1.9317 13.3175 2.68253 14.0683 3.55472 14.6522C3.78419 14.8058 4.09474 14.7444 4.24837 14.5149C4.40199 14.2854 4.34051 13.9749 4.11104 13.8213C3.34747 13.3101 2.68994 12.6525 2.17874 11.889ZM14.6522 12.4453C14.8058 12.2158 14.7444 11.9053 14.5149 11.7516C14.2854 11.598 13.9749 11.6595 13.8213 11.889C13.3101 12.6525 12.6525 13.3101 11.889 13.8213C11.6595 13.9749 11.598 14.2854 11.7516 14.5149C11.9053 14.7444 12.2158 14.8058 12.4453 14.6522C13.3175 14.0683 14.0683 13.3175 14.6522 12.4453ZM6.63332 14.8668C6.36243 14.8132 6.09938 14.9893 6.04579 15.2602C5.9922 15.5311 6.16836 15.7941 6.43925 15.8477C6.94444 15.9477 7.46636 16 8 16C8.53364 16 9.05556 15.9477 9.56075 15.8477C9.83164 15.7941 10.0078 15.5311 9.95421 15.2602C9.90062 14.9893 9.63757 14.8132 9.36668 14.8668C8.92506 14.9541 8.46814 15 8 15C7.53186 15 7.07494 14.9541 6.63332 14.8668ZM6 5.83309C6 5.25563 6.62521 4.8948 7.12521 5.18369L11.2501 7.56703C11.4048 7.65637 11.5 7.82139 11.5 7.99996C11.5 8.17854 11.4048 8.34355 11.2501 8.43289L7.12521 10.8162C6.62522 11.1051 6 10.7443 6 10.1668V5.83309Z" />
</svg>
