<svg width="16" height="16" viewBox="0 0 16 16" xmlns="http://www.w3.org/2000/svg">
	<path d="M5.00383 1.00001C5.22848 1.00173 5.4244 1.15308 5.48281 1.37001L8.526 12.6733L11.0211 4.35633C11.0828 4.15078 11.2687 4.0075 11.4832 4.00028C11.6976 3.99306 11.8928 4.12351 11.9682 4.32444L13.3465 8H15.5C15.7761 8 16 8.22386 16 8.5C16 8.77614 15.7761 9 15.5 9H13C12.7916 9 12.605 8.87071 12.5318 8.67556L11.5527 6.06447L8.97891 14.6437C8.91471 14.8577 8.7163 15.0031 8.49288 14.9999C8.26947 14.9968 8.07528 14.8457 8.01719 14.63L4.98569 3.37012L3.48076 8.63736C3.41943 8.85201 3.22324 9 3 9H0.5C0.223858 9 0 8.77614 0 8.5C0 8.22386 0.223858 8 0.5 8H2.62285L4.51924 1.36264C4.58096 1.14662 4.77917 0.998296 5.00383 1.00001Z" />
</svg>
