<svg width="16" height="16" viewBox="0 0 16 16" xmlns="http://www.w3.org/2000/svg">
	<path d="M0.853553 0.146447C0.658291 -0.0488155 0.341709 -0.0488155 0.146447 0.146447C-0.0488155 0.341709 -0.0488155 0.658291 0.146447 0.853553L2.00058 2.70769C0.755509 4.11804 7.45058e-09 5.97079 7.45058e-09 8C7.45058e-09 8.27614 0.223858 8.5 0.5 8.5C0.776142 8.5 1 8.27614 1 8C1 6.24696 1.64441 4.64443 2.70926 3.41637L12.5836 13.2907C11.3556 14.3556 9.75304 15 8 15C5.62186 15 3.5203 13.8144 2.25463 12H5C5.27614 12 5.5 11.7761 5.5 11.5C5.5 11.2239 5.27614 11 5 11H1.5C1.22386 11 1 11.2239 1 11.5V15.5C1 15.7761 1.22386 16 1.5 16C1.77614 16 2 15.7761 2 15.5V13.2916C3.46541 14.9519 5.61017 16 8 16C10.0292 16 11.882 15.2445 13.2923 13.9994L15.1464 15.8536C15.3417 16.0488 15.6583 16.0488 15.8536 15.8536C16.0488 15.6583 16.0488 15.3417 15.8536 15.1464L0.853553 0.146447Z" />
	<path d="M4.22526 2.10395C5.31442 1.40521 6.60989 1 8 1C10.3781 1 12.4797 2.18558 13.7454 4H11C10.7239 4 10.5 4.22386 10.5 4.5C10.5 4.77614 10.7239 5 11 5H14.5C14.7761 5 15 4.77614 15 4.5V0.5C15 0.223858 14.7761 7.45058e-09 14.5 7.45058e-09C14.2239 7.45058e-09 14 0.223858 14 0.5V2.70842C12.5346 1.04815 10.3898 7.45058e-09 8 7.45058e-09C6.33294 7.45058e-09 4.78498 0.509903 3.50356 1.38225L4.22526 2.10395Z" />
	<path d="M16 8C16 9.66706 15.4901 11.215 14.6177 12.4964L13.8961 11.7747C14.5948 10.6856 15 9.39011 15 8C15 7.72386 15.2239 7.5 15.5 7.5C15.7761 7.5 16 7.72386 16 8Z" />
</svg>
