<svg width="16" height="16" viewBox="0 0 16 16" xmlns="http://www.w3.org/2000/svg">
	<path d="M6.10128 9.6543C6.21675 9.44213 6.46389 9.34623 6.68624 9.41406L6.77999 9.4541L10.7888 11.6357C11.3961 10.9844 12.3873 10.7979 13.2058 11.2432C14.176 11.7712 14.5345 12.9858 14.0066 13.9561C13.4785 14.9262 12.2638 15.2848 11.2937 14.7568C10.4752 14.3113 10.0939 13.3774 10.3112 12.5137L6.30148 10.332C6.0592 10.2 5.9696 9.89672 6.10128 9.6543ZM12.7282 12.1221C12.2431 11.8581 11.6358 12.0374 11.3718 12.5225C11.108 13.0075 11.2872 13.614 11.7722 13.8779C12.2573 14.1419 12.8646 13.9626 13.1286 13.4775C13.3922 12.9926 13.2129 12.3861 12.7282 12.1221ZM8.67355 4.38281C8.91425 4.24775 9.21898 4.33367 9.35421 4.57422C9.48935 4.81504 9.40363 5.11975 9.16281 5.25488L5.18136 7.48926C5.40965 8.35007 5.04082 9.28817 4.22824 9.74414C3.26502 10.2844 2.04605 9.94167 1.50558 8.97852C0.965269 8.0153 1.30806 6.79636 2.27121 6.25586C3.08365 5.79996 4.07631 5.97408 4.6921 6.61719L8.67355 4.38281ZM13.2497 3C13.2497 2.44772 12.802 2 12.2497 2C11.6976 2.00015 11.2497 2.44781 11.2497 3C11.2497 3.55219 11.6976 3.99985 12.2497 4C12.802 4 13.2497 3.55228 13.2497 3ZM4.12179 7.51074C3.85151 7.02914 3.24209 6.85767 2.76046 7.12793C2.27899 7.3982 2.10756 8.00769 2.37765 8.48926C2.64787 8.9708 3.25738 9.14212 3.73898 8.87207C4.22062 8.6018 4.39206 7.99238 4.12179 7.51074ZM14.2497 3C14.2497 3.93172 13.612 4.71138 12.7497 4.93359V9.5C12.7497 9.77614 12.5259 10 12.2497 10C11.9737 9.99985 11.7497 9.77604 11.7497 9.5V4.93359C10.8877 4.7112 10.2497 3.93153 10.2497 3C10.2497 1.89552 11.1453 1.00015 12.2497 1C13.3543 1 14.2497 1.89543 14.2497 3Z" />
</svg>
