<?xml version="1.0" encoding="UTF-8"?>
<svg width="500" height="98" version="1.1" viewBox="0 0 500 98" xmlns="http://www.w3.org/2000/svg" preserveAspectRatio="none">
	<path d="m16.889 82.875-0.11097-8.625-0.15205 7.625c-0.12595 6.3158-0.27859 7.625-0.88903 7.625-0.45278 0-0.73698-0.48204-0.73698-1.25 0-0.6875-0.225-1.25-0.5-1.25-0.28767 0-0.54219-1.8579-0.59935-4.375l-0.09935-4.375-0.17256 3.625c-0.13145 2.7614-0.34601 3.625-0.90065 3.625-0.40045 0-0.7281-0.21794-0.7281-0.48431 0-0.26637-0.3375-0.3548-0.75-0.1965s-0.75 0.60123-0.75 0.98431c0 0.75616-0.47695 0.86583-1.7091 0.39301-0.62024-0.23801-0.81085-1.182-0.88338-4.375-0.074445-3.2771-0.12909-3.5371-0.28009-1.3324-0.10318 1.5065-0.45531 2.9093-0.78251 3.1173-1.7119 1.0885-1.7956 0.55922-2.0129-12.731-0.2279-13.94-0.5126-16.875-1.6367-16.875-0.54494 0-0.6953 1.0272-0.6953 4.75 0 2.8333-0.20175 4.75-0.5 4.75-0.30159 0-0.5 2.0833-0.5 5.25 0 4.3333-0.13095 5.25-0.75 5.25-0.64567 0-0.74972-1.6519-0.74797-11.875 0.0027712-16.23 0.45452-24.625 1.3251-24.625 0.4899 0 0.67284 0.82536 0.67284 3.0357 0 2.0317 0.24804 3.2838 0.75 3.7857 0.66667 0.66667 0.75 0.57936 0.75-0.78572 0-0.84464 0.225-1.5357 0.5-1.5357 0.29825 0 0.5-1.9167 0.5-4.75s0.20175-4.75 0.5-4.75c0.30769 0 0.5-2.5 0.5-6.5s0.19231-6.5 0.5-6.5c0.275 0 0.5-0.675 0.5-1.5s0.225-1.5 0.5-1.5c0.28571 0 0.5-1.5 0.5-3.5 0-2.7442 0.15854-3.5 0.73413-3.5 0.59487 0 0.76417 1.1144 0.89248 5.875 0.15328 5.6868 0.1618 5.6307 0.26587-1.75 0.065967-4.6783 0.30074-7.625 0.60752-7.625 0.275 0 0.5-0.45 0.5-1 0-0.55556 0.33333-1 0.75-1 0.64088 0 0.76609 1.6186 0.86056 11.125 0.08861 8.9165 0.1409 9.6609 0.26337 3.75 0.11194-5.4028 0.31637-7.373 0.76444-7.3673 1.5807 0.01979 1.8304 0.86928 1.9873 6.7615l0.15927 5.9809 0.10752-6.875c0.10847-6.9361 0.34575-7.7082 1.8932-6.1607 0.52571 0.52571 0.74052 2.2748 0.81364 6.625 0.07109 4.2296 0.14843 4.8797 0.2719 2.2857 0.17178-3.6088 0.33248-3.8992 1.8379-3.3215 0.65294 0.25056 0.80865 1.3626 0.89267 6.375 0.08357 4.9854 0.13191 5.3336 0.27022 1.9465 0.16918-4.1428 0.53307-4.7914 1.9137-3.4107 0.56422 0.56422 0.73783 2.8489 0.82635 10.875l0.11206 10.161 0.15003-8.375c0.089732-5.0092 0.34611-8.375 0.63794-8.375 0.26835 0 0.48791-0.3375 0.48791-0.75s0.3375-0.75 0.75-0.75c0.63433 0 0.76711 1.3688 0.86097 8.875l0.11097 8.875 0.15205-7.625c0.12595-6.3158 0.27859-7.625 0.88903-7.625 0.40534 0 0.73698 0.43484 0.73698 0.96631 0 0.53147 0.45 1.1091 1 1.2837s1 0.63266 1 1.018c0 0.41735 0.30324 0.58425 0.75 0.41281 0.4125-0.15829 0.75-0.60123 0.75-0.98431s0.3375-0.69651 0.75-0.69651c0.60186 0 0.76988 0.86416 0.85062 4.375l0.10062 4.375 0.17041-3.875c0.16369-3.7222 0.21827-3.875 1.384-3.875 1.2102 0 1.214 0.01722 1.3709 6.125l0.15728 6.125 0.10811-6.8215c0.09022-5.6928 0.23897-6.8717 0.899-7.125 1.3796-0.5294 1.6409-0.34248 1.8474 1.3215 0.14159 1.141 0.2255 0.85904 0.28168-0.94651 0.082157-2.6402 0.52197-3.1785 2.5971-3.1785 0.79497 0 0.96187 0.46872 1.1128 3.125l0.17752 3.125 0.09634-3.375c0.052987-1.8562 0.32134-3.375 0.59634-3.375s0.5-0.7875 0.5-1.75c0-1.2222 0.22619-1.75 0.75-1.75 0.63612 0 0.76658 1.4235 0.85919 9.375 0.09628 8.267 0.12758 8.586 0.26486 2.6994 0.11392-4.8848 0.34331-6.8632 0.8551-7.375 1.5649-1.5649 1.7701-0.75529 1.8818 7.4256l0.11097 8.125 0.30411-15.25h1.237c1.1478 0 1.2433 0.18924 1.3243 2.625 0.08601 2.5847 0.09033 2.5916 0.2812 0.44984 0.16604-1.8631 0.33283-2.1388 1.1626-1.9218 0.61925 0.16194 0.9688-3.66e-4 0.9688-0.44984 0-0.38675 0.3375-0.70319 0.75-0.70319 0.59386 0 0.77006 0.80671 0.84634 3.875l0.09634 3.875 0.18043-3.237c0.09923-1.7804 0.44963-3.4082 0.77866-3.6173 1.6807-1.0684 1.847-0.47551 1.9584 6.9794l0.11013 7.375 0.1539-7.1747c0.11412-5.32 0.33492-7.3558 0.85415-7.875 1.5011-1.5011 1.7432-0.71369 1.8979 6.1747l0.15444 6.875 0.10967-6.875c0.091392-5.729 0.23469-6.875 0.85967-6.875 0.4125 0 0.75 0.3375 0.75 0.75s0.21808 0.75 0.48461 0.75c0.27788 0 0.5517 2.6129 0.64189 6.125l0.15728 6.125 0.10811-7.125c0.090312-5.952 0.23159-7.125 0.85811-7.125 0.4125 0 0.75 0.3375 0.75 0.75s0.225 0.75 0.5 0.75c0.28237 0 0.54026 1.6867 0.59249 3.875 0.07659 3.2087 0.12443 3.4132 0.27823 1.1893 0.25893-3.7439 2.6293-7.13 2.6293-3.756 0 1.0957 0.1828 1.2686 1.125 1.0643 0.61875-0.1342 1.5188-0.4095 2-0.61178 0.77932-0.32758 0.88534 0.0071 0.96954 3.0607l0.09454 3.4285 0.17435-3c0.1635-2.8132 0.91813-4.25 2.2321-4.25 0.22244 0 0.45282 3.0938 0.51195 6.875l0.10752 6.875 0.15936-5.9919c0.16581-6.2344 0.5226-7.4326 1.8254-6.1298 0.56225 0.56225 0.80701 2.1319 0.92669 5.9429l0.16264 5.1788 0.10545-5.3455c0.10654-5.4008 0.51548-6.5659 1.8398-5.2416 0.50378 0.50378 0.7775 2.1622 0.89239 5.4069l0.16572 4.6802 0.10377-5.8455c0.05803-3.269 0.32584-5.9827 0.60761-6.1569 0.56268-0.34776 1.9962 0.885 1.9962 1.7167 0 0.29464 0.225 0.53571 0.5 0.53571s0.5261 0.73125 0.558 1.625c0.0369 1.0338 0.1432 1.2612 0.29218 0.625 0.23404-0.99943 1.482-2.25 2.2454-2.25 0.22244 0 0.44635 1.9688 0.49759 4.375l0.093151 4.375 0.28185-4.25c0.27634-4.167 0.35582-4.3264 2.0318-4.075 0.28133 0.0422 0.5401 1.9884 0.59169 4.45l0.09169 4.375 0.28331-4c0.25745-3.6349 0.38352-4.0143 1.3811-4.1562 0.99369-0.1414 1.1153 0.09566 1.2825 2.5l0.18472 2.6562 0.09249-3.0887c0.08037-2.6841 0.26508-3.2245 1.4099-4.125 1.8301-1.4396 2.1708-1.3133 2.2626 0.83871l0.08 1.875 0.20563-1.75c0.26273-2.236 0.85943-2.8463 1.8319-1.8739 0.53717 0.53717 0.81125 2.0687 0.92933 5.1929l0.16746 4.431 0.10282-4.6074c0.0889-3.9822 0.23405-4.6776 1.07-5.125 0.53194-0.28468 1.0944-0.51759 1.25-0.51759s0.32996 2.3062 0.38751 5.125l0.10465 5.125 0.1649-4.9945c0.17504-5.3015 0.56647-6.3862 1.8437-5.109 0.55979 0.55979 0.80447 1.8939 0.86069 4.6929 0.0702 3.4972 0.1099 3.6464 0.375 1.4107 0.28046-2.3652 0.45518-2.5637 2.0464-2.325 0.275 0.04125 0.52962 0.91875 0.56582 1.95l0.0658 1.875 0.30918-1.7103c0.28206-1.5601 1.5592-2.8555 1.5592-1.5814 0 0.29792 0.675 0.54167 1.5 0.54167 1.0287 0 1.5 0.24626 1.5 0.78369 0 0.55616 0.29034 0.69154 1 0.46631 0.85561-0.27156 1.0095-0.07789 1.0658 1.3413l0.0658 1.6587 0.30918-1.75c0.28254-1.5992 0.54737-1.8018 2.0592-1.575 0.275 0.04125 0.54056 1.4812 0.59012 3.2 0.0845 2.9283 0.10208 2.9715 0.27999 0.68665 0.18474-2.3724 1.2936-4.8116 2.1874-4.8116 0.24338 0 0.48181 1.4062 0.52985 3.125 0.0735 2.6292 0.11688 2.7681 0.27346 0.875 0.24153-2.9201 2.5736-4.9798 2.689-2.375 0.0477 1.077 0.0645 1.0722 0.39457-0.11242 0.31189-1.1195 0.63762-1.2529 3.4185-1.4002l3.0737-0.16275 0.19764 1.9002c0.18666 1.7947 0.20229 1.77 0.28168-0.44532 0.16118-4.4979 2.4189-3.326 2.7127 1.408l0.18228 2.9375 0.0945-3.0955c0.0981-3.2119 0.45127-3.87 1.7994-3.3526 0.5934 0.22771 0.81644 1.0843 0.87917 3.3766l0.0841 3.0715 0.29094-3c0.27932-2.8801 0.41566-3.0688 2.041-2.825 0.275 0.04125 0.53379 1.0312 0.5751 2.2l0.0751 2.125 0.29991-2.2112c0.33191-2.4472 1.0217-2.9956 2.238-1.7793 0.86914 0.86914 1.8119 0.60401 1.8119-0.50956 0-2.2399 2.4547-0.72244 2.571 1.5893 0.0546 1.0866 0.14081 0.9512 0.375-0.58929 0.24018-1.5798 0.54039-2.0336 1.429-2.1598 1.0378-0.14739 1.1311 0.0464 1.2036 2.5l0.0786 2.6598 0.29645-2.5c0.24942-2.1034 0.47493-2.5253 1.4214-2.6598 1.0375-0.14735 1.1313 0.04709 1.2065 2.5l0.08144 2.6598 0.2935-2.75c0.25235-2.3645 0.45121-2.7724 1.4185-2.9098 1.0366-0.14723 1.1321 0.04914 1.2151 2.5l0.0901 2.6598 0.18987-2.5c0.21353-2.8114 0.33151-2.9916 2.2549-3.445 1.24-0.29227 1.3799-0.18816 1.4248 1.0604l0.0498 1.3845 0.3477-1.25c0.31894-1.1466 0.59867-1.2931 2.0526-1.075 0.275 0.04125 0.52962 1.1438 0.56582 2.45 0.0619 2.2347 0.0841 2.2716 0.375 0.625 0.28254-1.5992 0.54737-1.8018 2.0592-1.575 0.275 0.04125 0.53379 1.1438 0.5751 2.45l0.0751 2.375 0.29991-2.25c0.28093-2.1077 0.48109-2.3103 2.0499-2.075 0.275 0.04125 0.52962 1.0312 0.56582 2.2l0.0658 2.125 0.30918-1.75c0.28254-1.5992 0.54737-1.8018 2.0592-1.575 0.275 0.04125 0.5 0.66505 0.5 1.3862 0 0.97819 0.15874 1.1862 0.625 0.81894 0.34375-0.27075 1.2438-0.64009 2-0.82075 1.3094-0.3128 1.3774-0.23854 1.4248 1.5561 0.0425 1.6061 0.10091 1.6999 0.3955 0.63453 0.21226-0.76759 0.77191-1.3117 1.4502-1.4098 0.97012-0.14034 1.1084 0.07259 1.1362 1.75 0.0274 1.6483 0.0936 1.7557 0.48389 0.78478 0.26098-0.64927 0.88188-1.125 1.4683-1.125 0.80115 0 1.0284 0.34377 1.0741 1.625 0.0376 1.0522 0.14279 1.2725 0.29853 0.625 0.1323-0.55 0.42722-1.1973 0.65539-1.4384 0.61544-0.65035 2.9881 0.0924 2.9881 0.93542 0 0.54219 0.3828 0.65141 1.5 0.42797 1.3838-0.27676 1.5025-0.18862 1.5317 1.1375 0.03 1.3601 0.056 1.377 0.48389 0.3125 0.67435-1.6777 2.4708-1.5005 2.5343 0.25l0.0498 1.375 0.3477-1.25c0.31894-1.1466 0.59867-1.2931 2.0526-1.075 0.275 0.04125 0.5261 0.58125 0.558 1.2 0.0524 1.0167 0.0812 1.0287 0.29853 0.125 0.36095-1.5006 1.1093-2.1143 1.6034-1.3148 0.43155 0.69826 3.2003 1.463 6.9151 1.9099 1.1688 0.14061 2.125 0.43295 2.125 0.64966 0 0.2167 0.83598 0.55084 1.8577 0.74252 1.0218 0.19168 2.4936 0.67734 3.2708 1.0793 1.0138 0.52424 2.3256 0.65148 4.6423 0.45026 2.0332-0.17659 3.2293-0.092739 3.2293 0.22639 0 0.27878 0.65893 0.50688 1.4643 0.50688 0.80535 0 1.8579 0.39375 2.339 0.875 0.59538 0.59557 1.7644 0.90296 3.6607 0.96255 1.5323 0.04815 3.7985 0.23787 5.036 0.42159 2.7205 0.4039 75.732 0.6908 183.12 0.71958 70.213 0.01882 79.375 0.10785 79.375 0.77128 0 0.6634-9.1359 0.75284-79.125 0.77457-91.424 0.02839-179 0.33024-184.27 0.63514-2.0039 0.11587-3.7852 0.35234-3.9583 0.52548-0.17315 0.17314-1.0809 0.3148-2.0172 0.3148s-2.0475 0.34514-2.4694 0.76697c-0.4402 0.4402-1.1706 0.63887-1.7143 0.46631-0.52587-0.1669-0.94731-0.06323-0.94731 0.23303 0 0.72316-1.6563 0.6774-2.4-0.06631-0.46667-0.46667-0.6-0.45278-0.6 0.0625 0 0.46944-0.43711 0.57508-1.5 0.3625-0.93378-0.18676-1.5-0.09398-1.5 0.24579 0 0.32215-0.54832 0.44097-1.3382 0.28998-0.80065-0.15306-1.6252 0.03119-2.0527 0.45868-0.39826 0.39826-1.1338 0.58142-1.6618 0.41383-0.65471-0.2078-0.94731-0.0586-0.94731 0.48303 0 0.92453-1.5412 1.0425-2.4 0.18369-0.46667-0.46667-0.6-0.423-0.6 0.19651 0 1.2109-1.6122 1.6103-2.3618 0.58514-0.58861-0.80497-0.63819-0.80709-0.63819-0.02721 0 0.98011-1.5109 1.1347-2.4 0.24556-0.46667-0.46667-0.6-0.35556-0.6 0.5 0 1.5049-1.8771 1.486-2.4844-0.025-0.44155-1.0985-0.45294-1.1001-0.48389-0.06665-0.0284 0.94954-0.47936 1.1161-4.3862 1.6205-4.5075 0.58186-4.8857 0.49757-5.2889-1.1788-0.15574-0.6475-0.26097-0.4272-0.29853 0.625-0.0319 0.89375-0.283 1.6588-0.558 1.7-1.454 0.21809-1.7337 0.07159-2.0526-1.075l-0.3477-1.25-0.0498 1.375c-0.0274 0.75625-0.23997 1.375-0.47235 1.375-0.52461 0-1.8528-1.4939-2.2228-2.5-0.18765-0.51034-0.28839-0.4076-0.31525 0.32151-0.049 1.3293-1.2784 1.8534-2.6393 1.1251-0.76544-0.40965-1.122-0.39665-1.3987 0.05099-0.20423 0.33045-0.79437 0.52042-1.3114 0.42215-0.69536-0.13216-1.0182-0.76324-1.24-2.4242-0.29791-2.2306-0.30041-2.2331-0.375-0.37053-0.0413 1.0312-0.2571 1.875-0.47954 1.875-0.63411 0-1.9531-1.1731-2.2486-2-0.16606-0.46464-0.28306-0.29818-0.30752 0.4375-0.0348 1.0476-0.21623 1.1521-1.5395 0.8875-0.84615-0.16923-1.5-0.0875-1.5 0.1875 0 0.74583-1.6452 0.58019-2.8888-0.29085-0.69838-0.48914-1.1113-0.56876-1.1113-0.21429 0 0.89621-1.5151 2.1796-1.9898 1.6855-0.23404-0.24357-0.52644-1.0054-0.64977-1.6929-0.18803-1.0481-0.23525-0.98752-0.29234 0.375-0.0536 1.2779-0.28512 1.625-1.0842 1.625-0.58643 0-1.2073-0.47573-1.4683-1.125-0.24871-0.61875-0.46646-0.82768-0.48389-0.46429-0.03253 0.67824-1.2226 2.0893-1.7621 2.0893-0.166 0-0.50531-0.50625-0.75402-1.125-0.36658-0.91201-0.45819-0.95296-0.48389-0.21631-0.0232 0.66477-0.30012 0.83254-1.0317 0.625-0.55-0.15603-1.45-0.41136-2-0.56739-0.76901-0.21816-1-0.04493-1 0.75 0 1.2626-0.76835 1.3461-1.46 0.15869-0.28284-0.4856-0.51641-0.59686-0.52485-0.25-0.0194 0.79923-2.6219 0.81828-3.4152 0.025-0.46667-0.46667-0.6-0.46667-0.6 0 0 0.33-0.45 0.6-1 0.6-0.57466 0-1 0.33333-1 0.78369 0 0.51207-0.30327 0.6936-0.875 0.52374-2.8463-0.8456-3.6324-0.8715-4.3602-0.14365-0.42063 0.42063-0.76478 1.1371-0.76478 1.5922 0 1.4891-1.2424 0.4566-1.5592-1.2957-0.17005-0.94064-0.3388-1.3406-0.375-0.88875-0.0976 1.218-1.5439 1.5579-2.8863 0.67831-1.1054-0.72427-1.1796-0.70927-1.1796 0.23866 0 0.55634-0.182 1.0115-0.40444 1.0115-0.76333 0-2.0113-1.2506-2.2454-2.25-0.1288-0.55-0.26028-0.04375-0.29218 1.125s-0.283 2.1588-0.558 2.2c-1.5118 0.22677-1.7766 0.02421-2.0592-1.575-0.27101-1.5339-0.3173-1.4216-0.375 0.90978-0.0608 2.4566-0.15175 2.6476-1.1908 2.5-1.0113-0.14363-1.154-0.51346-1.4117-3.6598l-0.2867-3.5-0.0883 4.125c-0.0486 2.2688-0.27842 4.125-0.5108 4.125-1.249 0-2.0385-1.9745-2.204-5.5127l-0.17482-3.7373-0.0994 4.125c-0.0905 3.7586-0.18819 4.125-1.0994 4.125-0.55 0-1 0.24375-1 0.54167 0 0.29792-0.28125 0.44919-0.625 0.33617-0.34375-0.11302-0.75996-1.2005-0.9249-2.4167-0.29649-2.1859-0.30076-2.178-0.375 0.69954-0.0757 2.9346-1.1352 4.9792-2.0869 4.0275-0.24612-0.24613-0.52246-2.5829-0.61408-5.1929l-0.16654-4.7454-0.10377 4.875c-0.0571 2.6812-0.30289 4.875-0.54627 4.875-1.1251 0-2.0223-2.5968-2.1849-6.3239l-0.17133-3.9261-0.10062 4.875c-0.05881 2.8496-0.30835 4.875-0.60062 4.875-0.275 0-0.5 0.35625-0.5 0.79167 0 0.43542-0.28125 0.69862-0.625 0.58488-0.42553-0.14079-0.71314-1.9493-0.90116-5.6667l-0.27617-5.4599-0.0988 5.9098c-0.0973 5.8183-0.11626 5.9073-1.2238 5.75-0.99896-0.14188-1.1573-0.52388-1.4137-3.4098-0.18-2.0264-0.32119-2.5441-0.375-1.375-0.0475 1.0312-0.31133 1.875-0.58633 1.875s-0.5 0.9-0.5 2c0 2.0318-0.80143 2.7195-1.311 1.125-0.15381-0.48125-0.48152-1.325-0.72826-1.875s-0.51913-2.6875-0.60532-4.75c-0.13526-3.237-0.17028-3.0441-0.25604 1.4098-0.097 5.0405-0.12536 5.1561-1.2244 5-1.059-0.1504-1.1413-0.45317-1.4032-5.1598l-0.27816-5-0.0968 5.1607c-0.0714 3.8079-0.29242 5.3563-0.843 5.9069-1.3574 1.3574-1.7525 0.19418-1.8585-5.4721l-0.10468-5.5955-0.16346 4.875c-0.0899 2.6812-0.38031 4.9088-0.64536 4.95-1.6847 0.2622-1.7343 0.12444-2.0072-5.575l-0.27527-5.75-0.09973 6.125c-0.09248 5.6795-0.1698 6.125-1.0631 6.125-1.4725 0-2.5234-2.6732-2.6346-6.7018l-0.097933-3.5482-0.17492 3.375c-0.096203 1.8562-0.38964 3.375-0.65207 3.375s-0.47716 0.35625-0.47716 0.79167c0 0.43542-0.28125 0.6988-0.625 0.58529-0.40807-0.13475-0.72236-1.7545-0.90552-4.6667l-0.28051-4.4603-0.09449 5.625c-0.05197 3.0938-0.28461 5.625-0.51699 5.625-0.23238 0-0.78579-0.40143-1.2298-0.89206-0.59288-0.65512-0.8515-2.1492-0.97372-5.625l-0.16642-4.7329-0.10377 5.9098c-0.10214 5.8171-0.12142 5.9073-1.2288 5.75-1.0532-0.14957-1.1428-0.46303-1.4043-4.9098l-0.27929-4.75-0.09571 4.1607c-0.10079 4.3818-0.7493 5.8239-2.4715 5.4957-0.7291-0.13891-0.92077-0.91264-1.1547-4.6615l-0.28051-4.495-0.09449 4.4107c-0.06936 3.2376-0.3025 4.6187-0.87663 5.1929-1.2894 1.2895-1.671 0.18012-1.8436-5.3598-0.16286-5.228-0.16367-5.2238-0.2688 1.3812-0.062894 3.9514-0.30723 6.6553-0.60545 6.7-1.7156 0.25733-1.7511 0.15072-2.0237-6.075l-0.27365-6.25-0.10135 7.875c-0.05574 4.3312-0.29148 7.875-0.52386 7.875-0.23238 0-0.78758-0.4034-1.2338-0.89645-0.63601-0.70278-0.84543-2.242-0.96938-7.125l-0.15811-6.2286-0.10811 6.625c-0.10907 6.6839-0.35453 7.45-1.8938 5.9107-0.53845-0.53845-0.7409-2.4155-0.8224-7.625l-0.10811-6.9107-0.15728 6.125c-0.090186 3.5121-0.36401 6.125-0.64189 6.125-0.26654 0-0.48461 0.9-0.48461 2 0 1.4444-0.20833 2-0.75 2-0.62655 0-0.7677-1.1728-0.85752-7.125l-0.10752-7.125-0.15835 5.875c-0.16959 6.2921-0.42408 6.7852-2.5501 4.9414-0.958-0.83087-1.0879-1.5051-1.1803-6.125l-0.10377-5.1914-0.16642 4.733c-0.16203 4.6082-0.47975 5.4904-1.9841 5.5094-0.43039 0.0054-0.65505-1.5631-0.76881-5.3673l-0.16072-5.375-0.10619 5.875c-0.087514 4.8417-0.2381 5.875-0.85619 5.875-0.5 0-0.75-0.5-0.75-1.5 0-0.825-0.225-1.5-0.5-1.5s-0.54056-1.2938-0.59012-2.875c-0.089128-2.8432-0.092194-2.8488-0.2774-0.5-0.103 1.3062-0.39994 2.375-0.65988 2.375-0.25993 0-0.4726 1.0125-0.4726 2.25 0 1.6667-0.19444 2.25-0.75 2.25-0.59803 0-0.77013-0.83582-0.84935-4.125l-0.09935-4.125-0.17361 3.6773c-0.15873 3.3621-0.25735 3.6554-1.1507 3.4218-0.71706-0.18752-0.97704-0.00187-0.97704 0.69769 0 0.52425-0.3375 0.95319-0.75 0.95319-0.60248 0-0.76819-0.86055-0.84249-4.375-0.063614-3.0091-0.14983-3.5554-0.27613-1.75-0.101 1.4438-0.39688 2.625-0.65751 2.625-0.26063 0-0.47387 0.675-0.47387 1.5 0 1-0.25 1.5-0.75 1.5-0.60556 0-0.76886-0.89075-0.84793-4.625-0.09085-4.2906-0.11076-4.3729-0.27538-1.1388-0.10079 1.98-0.4365 3.6509-0.77707 3.8673-1.4795 0.9405-1.8091 0.36085-1.978-3.4785l-0.17041-3.875-0.10062 3.875c-0.097978 3.7732-0.13347 3.875-1.3506 3.875-1.1907 0-1.2541-0.14829-1.3374-3.125-0.06896-2.4671-0.12765-2.6776-0.27875-1-0.10527 1.1688-0.40346 2.125-0.66265 2.125s-0.47125 0.46607-0.47125 1.0357c0 1.0951-1.0792 2.4643-1.9424 2.4643-0.28863 0-0.58943-1.5887-0.68637-3.625l-0.17256-3.625-0.09935 4.125c-0.09691 4.0236-0.12963 4.125-1.3312 4.125-1.2138 0-1.2343-0.07167-1.3954-4.875l-0.16346-4.875-0.10464 4.875c-0.061111 2.8469-0.31266 4.875-0.60464 4.875-0.275 0-0.5 0.675-0.5 1.5 0 0.98603-0.25171 1.5-0.73461 1.5-0.59761 0-0.76394-1.1423-0.89189-6.125l-0.15728-6.125-0.10811 7.125c-0.065923 4.3446-0.30323 7.125-0.60811 7.125-0.275 0-0.5 0.9-0.5 2 0 1.4188-0.21184 2-0.72897 2-0.56126 0-0.76817-0.8915-0.89938-3.875l-0.17041-3.875-0.10062 4.125c-0.057314 2.3496-0.31582 4.125-0.60062 4.125-0.275 0-0.5 0.45-0.5 1s-0.225 1-0.5 1-0.5 0.45-0.5 1-0.32989 1-0.73308 1c-0.58868 0-0.76474-1.0588-0.89381-5.375l-0.16072-5.375-0.10619 5.375c-0.06281 3.1792-0.31045 5.375-0.60619 5.375-0.275 0-0.5 0.5625-0.5 1.25 0 0.77778-0.28333 1.25-0.75 1.25-0.63339 0-0.76725-1.341-0.86097-8.625z" />
</svg>
