<?xml version="1.0" encoding="UTF-8"?>
<svg width="283" height="98" version="1.1" viewBox="0 0 283 98" xmlns="http://www.w3.org/2000/svg" preserveAspectRatio="none">
	<path d="m151.5 96.28c0-0.94627-0.225-1.8595-0.5-2.0295s-0.5-1.9355-0.5-3.9234c0-3.2816-0.13622-3.7737-1.4797-5.3455l-1.4797-1.7311-0.02032-14.564c-0.01719-12.318-0.13595-14.66-0.77032-15.186-0.62529-0.51894-0.75-0.45158-0.75 0.40508 0 0.5884-0.42736 1.1632-1 1.3449-0.55 0.17456-1 0.75222-1 1.2837 0 1.108-0.19458 1.1649-1.5329 0.44871-0.53192-0.28468-0.96713-0.86045-0.96713-1.2795 0-1.8652-0.96358 0.08154-1.2753 2.5765-0.42527 3.4037-1.411 3.3825-1.6308-0.03507-0.0887-1.3784-0.57483-3.0155-1.125-3.7881-0.53288-0.74836-0.96887-1.8454-0.96887-2.438s-0.225-0.93826-0.5-0.76831-0.75505 0.15139-1.0668-0.04127c-0.86943-0.53733-3.9332-0.61368-3.9332-0.098005 0 0.25116-0.45 0.31384-1 0.13928-0.57366-0.18207-1-0.08985-1 0.21631 0 0.30589-1.0493 0.53369-2.4583 0.53369-1.4 0-2.5404 0.24612-2.6489 0.5717-0.13923 0.41768-0.51444 0.39837-1.3928-0.0717-0.87833-0.47007-1.2535-0.48938-1.3928-0.0717-0.10481 0.31444-0.84681 0.5717-1.6489 0.5717-0.80208 0-1.4583 0.225-1.4583 0.5s-0.3375 0.5-0.75 0.5-0.75-0.225-0.75-0.5-0.3375-0.5-0.75-0.5c-0.41667 0-0.75 0.44444-0.75 1s-0.33333 1-0.75 1c-0.45889 0-0.75-0.46702-0.75-1.2032 0-0.95703-0.20459-1.1497-1-0.94168-0.55909 0.14621-1 0.01534-1-0.29681 0-0.30707-0.3375-0.55832-0.75-0.55832s-0.75 0.3375-0.75 0.75-0.3375 0.75-0.75 0.75-0.75-0.36374-0.75-0.80832c0-0.57775-0.28524-0.72037-1-0.5-0.55 0.16957-1.4295 0.44169-1.9544 0.60471-0.66394 0.20619-1.0267 0.01597-1.192-0.625-0.21316-0.82661-0.24357-0.83138-0.2956-0.04639-0.0319 0.48125-0.283 0.875-0.558 0.875s-0.5 0.3375-0.5 0.75-0.3375 0.75-0.75 0.75c-0.49326 0-0.75-0.49352-0.75-1.4417 0-1.1255-0.26368-1.4921-1.2023-1.6716-0.66129-0.12641-1.5658-0.02642-2.0101 0.2222-1.1067 0.61934-2.7859 8e-3 -2.7952-1.0176-0.0056-0.6185-0.11437-0.67317-0.4106-0.20646-0.22162 0.34917-1.5682 0.74904-2.9923 0.8886-2.0782 0.20366-2.5894 0.10611-2.5894-0.49416 0-0.45939-0.28933-0.63689-0.75-0.46011-0.4125 0.15829-0.75 0.60123-0.75 0.98431s-0.3375 0.69651-0.75 0.69651-0.75-0.20686-0.75-0.4597c0-0.27179-0.74361-0.25438-1.8192 0.0426-1.0909 0.3012-1.9416 0.31915-2.125 0.04483-0.36349-0.54371-7.5555-0.54631-7.5557-0.002734-8.4e-5 0.20625-0.33765 0.375-0.75015 0.375s-0.75-0.16875-0.75-0.375-0.5625-0.375-1.25-0.375-1.25 0.14062-1.25 0.3125-1.2375 0.3125-2.75 0.3125c-2.202 0-2.7515-0.16191-2.7577-0.8125-0.0063-0.66398-0.08843-0.68494-0.44954-0.11464-0.24304 0.38382-0.78755 0.56521-1.21 0.40309-0.42249-0.16212-0.84539-0.06307-0.93979 0.22012-0.11282 0.33847-0.76632 0.35986-1.9073 0.06243-0.95462-0.24885-2.667-0.27965-3.8052-0.06844-2.1045 0.3905-4.9576 0.31319-11.68-0.3165-6.3106-0.59108-10.134-0.56075-12.783 0.10142-1.5373 0.38424-3.1095 0.47578-4 0.2329-0.80693-0.2201-2.7609-0.37053-4.3422-0.3343-1.5812 0.03623-2.8751-0.06112-2.8753-0.21635-1.39e-4 -0.15522-1.6876-0.29182-3.75-0.30355-2.0624-0.011724-3.7497 0.15703-3.7497 0.375 0 0.21798-0.3375 0.39632-0.75 0.39632s-0.75-0.18164-0.75-0.40366-0.73125-0.34648-1.625-0.2766-2.3562-0.06784-3.25-0.30604c-0.89375-0.2382-1.625-0.24128-1.625-0.006842 0 0.62431-3.1858 0.44412-3.6173-0.20459-0.22744-0.34194-0.37026-0.21902-0.375 0.32273-0.0047173 0.53912-0.39153 0.875-1.0077 0.875-0.85185 0-1-0.33333-1-2.25 0-2.3233 0.3583-2.6286 2.0329-1.7324 0.66667 0.35679 0.96713 0.35679 0.96713 0 0-0.28468 0.5625-0.51759 1.25-0.51759s1.25 0.21346 1.25 0.47434c0 0.28335 2.1272 0.38402 5.2829 0.25002 3.1396-0.13331 5.6753-0.01434 6.25 0.29325 0.66663 0.35677 0.96709 0.35676 0.96709-2e-5 0-0.73819 2.3661-0.64296 2.6689 0.10741 0.14486 0.35901 0.26899 0.2357 0.29167-0.28973 0.03155-0.73114 0.31544-0.85543 1.4145-0.61927 2.9797 0.64027 7.0471 0.43337 7.8813-0.40092 0.90413-0.90413 2.2437-1.0922 2.2437-0.31509 0 0.275 0.45 0.5 1 0.5s1 0.20722 1 0.4605 1.6792 0.53452 3.7315 0.625c3.1029 0.13679 3.8375 0.0171 4.3604-0.7105 0.76974-1.071 1.2562-1.0983 2.2295-0.125 0.66667 0.66667 0.83333 0.66667 1.5 0 0.99423-0.99423 2.0663-0.95199 2.2669 0.0893 0.14946 0.77593 0.22791 0.77305 1.0391-0.0381 0.55019-0.5502 1.4825-0.83031 2.5-0.75114 0.89244 0.06944 2.0783-0.02501 2.6351-0.2099 0.57375-0.19048 2.1447 0.07765 3.625 0.61873 1.5015 0.54883 2.6125 0.73646 2.6125 0.44124 0-0.2863 0.66391-0.4162 1.5-0.29349 0.825 0.12108 1.5 0.03412 1.5-0.19325s0.3375-0.4134 0.75-0.4134 0.75344 0.39375 0.75766 0.875c0.0047 0.53982 0.14837 0.66426 0.375 0.32485 0.98458-1.4745 4.6173-2.0745 4.6173-0.7625 0 0.20348 0.61875 0.29572 1.375 0.20497s2.2471-0.26513 3.313-0.38751c1.0659-0.12239 2.3606 0.0036 2.8771 0.28005 0.63875 0.34185 1.6009 0.32436 3.0086-0.05471 1.5671-0.42198 2.1584-0.41353 2.4355 0.0348 0.40862 0.66117 2.4908 0.20254 2.4908-0.54863 0-0.25647 0.3375-0.46631 0.75-0.46631s0.75 0.24107 0.75 0.53571 0.28765 0.82337 0.63922 1.1749c0.51897 0.51897 0.75413 0.51622 1.25-0.01461 0.33593-0.35961 0.61078-0.88833 0.61078-1.1749s0.3375-0.5211 0.75-0.5211 0.75 0.3375 0.75 0.75c0 0.93745 4.3072 1.0785 4.6163 0.1512 0.1512-0.45361 0.60795-0.42965 1.8837 0.098796s1.7325 0.5524 1.8837 0.0988c0.2624-0.78719 1.464-0.76955 1.7851 0.0262 0.13871 0.34375 0.26996 0.0063 0.29167-0.75 0.025-0.87134 0.31419-1.375 0.78947-1.375 0.4125 0 0.75 0.20093 0.75 0.44651 0 0.82857 1.4655 1.0166 2.1998 0.28225 0.96015-0.96016 1.2651-0.92226 2.3144 0.28765 0.79197 0.91314 0.95939 0.93854 1.6479 0.25 0.92903-0.92903 1.6679-0.98109 2.0067-0.14141 0.13871 0.34375 0.26996 0.11875 0.29167-0.5 0.0453-1.2921 1.1194-1.4736 2.218-0.375 0.85691 0.85691 1.8214 0.9893 1.8214 0.25 0-0.77391 2.3386-0.58998 3.1786 0.25 1.0009 1.0009 2.3162 0.94833 3.1002-0.1239 0.60097-0.82187 0.69394-0.81057 1.5615 0.18977 0.69349 0.7996 1.3864 1.0269 2.7911 0.91541 1.0277-0.08154 1.8686 0.03183 1.8686 0.25194 0 0.67086 2.6763 0.95759 3.7208 0.39863 0.70569-0.37767 1.035-0.36462 1.172 0.04646 0.2961 0.8883 1.0148 0.68812 2.8839-0.8033 1.2035-0.96029 1.7233-1.7844 1.7233-2.7324 0-0.83029 0.37557-1.5584 0.96714-1.875 1.3544-0.72484 1.5329-0.66154 1.5329 0.54363 0 0.82547 0.14749 0.93881 0.66392 0.51022 0.9118-0.75672 3.6668 0.08031 4.8841 1.4839 0.94796 1.093 0.95197 1.0806 0.95197-2.9494 0-2.2258 0.225-4.1861 0.5-4.356s0.5-1.7613 0.5-3.5363 0.20858-3.618 0.4635-4.0955c0.25493-0.47752 0.58537-1.262 0.73431-1.7432s0.72787-0.875 1.2865-0.875c0.79533 0 1.0339 0.35255 1.0997 1.625 0.0462 0.89375 0.21498 0.29252 0.375-1.3361 0.16684-1.698 0.55755-3.0488 0.91595-3.1667 0.36579-0.12032 0.625 0.22643 0.625 0.83608 0 0.57292 0.225 1.0417 0.5 1.0417 0.27811 0 0.52625 1.4978 0.55916 3.375 0.0397 2.263 0.16322 2.8944 0.375 1.9162 0.36571-1.6891 1.5658-2.3685 1.5658-0.88641 0 0.5435 0.31008 1.1072 0.68907 1.2526 0.86084 0.33033 1.8109-0.57621 1.8109-1.7279 0-1.0601 1.1103-1.8487 1.396-0.99153 0.32912 0.98735 1.5699-0.99202 1.5881-2.5335 0.0181-1.532 0.56869-2.0447 1.7208-1.6026 0.55986 0.21484 0.79512 0.95502 0.79512 2.5016 0 1.2081 0.225 2.1965 0.5 2.1965s0.50684 0.50625 0.5152 1.125c0.0136 1.0047 0.0697 1.0314 0.52485 0.25 0.83147-1.4275 1.46-1.003 1.46 0.98625 0 1.769 0.036 1.8099 0.72543 0.82555 0.41244-0.58884 0.78997-2.5073 0.875-4.4464 0.21475-4.8971 1.2254-4.8299 1.625 0.10798 0.61072 7.546 0.86187 9.0208 1.3242 7.7766 0.51816-1.3943 1.4503-1.4747 1.4503-0.125 0 0.55 0.19996 1 0.44435 1 0.2444 0 0.59209 0.7875 0.77266 1.75 0.19652 1.0475 0.62026 1.75 1.0556 1.75 0.40004 0 0.77653 0.28125 0.83666 0.625 0.0601 0.34375 0.22888-3.969 0.375-9.584 0.19593-7.5288 0.42976-10.263 0.89068-10.417 0.40977-0.13617 0.625 0.3232 0.625 1.334 0 0.84792 0.225 1.5417 0.5 1.5417s0.5 0.45 0.5 1 0.225 1 0.5 1 0.5 0.5441 0.5 1.2091c0 1.8133 0.49797 2.7603 1.2914 2.4558 0.51978-0.19946 0.70862 0.15104 0.70862 1.3153 0 1.3597 0.14336 1.5417 1 1.2698 0.79336-0.2518 1-0.08985 1 0.78374 0 1.0653 0.0338 1.0582 1.0363-0.21631 0.56996-0.72459 1.4424-1.3174 1.9388-1.3174s1.1826-0.3375 1.5249-0.75c0.88791-1.0699 1.5-0.92704 1.5 0.35 0 0.85556 0.13333 0.96667 0.6 0.5 0.78167-0.78167 1.4-0.76417 1.4 0.03962 0 0.35179 0.45 0.96396 1 1.3604s1 1.0059 1 1.3545c0 0.35915 0.48742 0.58212 1.125 0.51462 1.0775-0.11407 1.1356-0.36027 1.375-5.8288 0.14391-3.2868 0.47068-5.7827 0.77005-5.8817 0.68743-0.22731 2.23 4.8538 2.23 7.3455 0 1.4764 0.17354 1.8979 0.69849 1.6965 0.38417-0.14742 1.2848 0.36432 2.0015 1.1372 1.736 1.8722 2.9516 1.1766 3.3-1.8886 0.1666-1.4655 0.50021-2.2217 1-2.2665 0.4125-0.03703 0.8625-0.11794 1-0.17981s0.98726-0.1743 1.8884-0.24984c1.2262-0.1028 1.776 0.11976 2.1854 0.88476 0.49305 0.92126 0.59285 0.94022 1.0115 0.19216 0.67488-1.206 1.3599-1.0206 2.014 0.54505l0.57447 1.375 0.28816-1.75c0.3158-1.918 1.6654-2.4418 1.9321-0.75 0.15722 0.99744 0.58404 2.1336 1.6906 4.5 0.32147 0.6875 0.89103 1.25 1.2657 1.25s0.81444 0.34721 0.97729 0.77159c0.26371 0.68721 0.39524 0.68186 1.2028-0.04898 1.0641-0.963 1.9697-0.57844 1.9697 0.83641 0 0.56732 0.22582 0.86044 0.5219 0.67745 0.28705-0.1774 0.83636-0.06158 1.2207 0.25739 0.56707 0.47063 0.89515 0.14889 1.7406-1.707 0.57299-1.2578 1.2926-2.2869 1.5992-2.2869s0.8293-0.37187 1.1616-0.82639c0.68881-0.94201 1.756-0.51694 1.756 0.69944 0 0.61935 0.34767 0.48095 1.4537-0.5787l1.4537-1.3927 1.5463 1.1432c0.85046 0.62877 1.5463 1.4517 1.5463 1.8287 0 0.37701 0.21839 0.5505 0.48532 0.38554 0.26692-0.16497 1.2232 0.09301 2.125 0.57329 0.90182 0.48028 1.8382 0.81704 2.0809 0.74835 0.6159-0.17432 4.1768 2.3542 4.4994 3.195 0.19543 0.50928 0.65611 0.30062 1.7489-0.79213 1.5569-1.5569 2.2962-1.8156 2.8105-0.98354 0.44762 0.72426 1.25 0.61353 1.25-0.17251 0-0.94232 1.8264-2.4938 2.4685-2.097 0.29233 0.18067 0.53151 1.5079 0.53151 2.9493 0 2.5278 0.84988 5.3082 1.625 5.3163 0.20625 0.002146 0.375-0.5136 0.375-1.1461s0.21811-1.3681 0.48468-1.6347c0.26658-0.26658 0.54783-3.5178 0.625-7.225 0.11649-5.5957 0.26768-6.7403 0.89032-6.7403 0.48162 0 0.80632 0.58489 0.90739 1.6345 0.2498 2.5942 1.0926 1.3334 1.0926-1.6345 0-1.48 0.225-2.83 0.5-3s0.5-0.82337 0.5-1.452c0-0.62865 0.43531-1.537 0.96736-2.0185 0.92229-0.83466 1.0278-0.83244 2.2629 0.04751 0.71256 0.50763 1.7529 1.8958 2.3119 3.0849 0.82328 1.7512 1.1491 2.0517 1.7152 1.582 1.111-0.92202 1.7426-0.10878 1.7426 2.2436 0 1.9442 0.21507 2.3488 2 3.7625 1.54 1.2197 2 1.9304 2 3.0898 0 0.82819 0.41466 2.103 0.92147 2.833 0.5068 0.72995 1.2261 2.0344 1.5984 2.8987 0.37231 0.86435 0.9474 1.4678 1.278 1.3409 0.33057-0.12685 0.75184 0.01337 0.93615 0.31161 0.18432 0.29823 0.54458 0.41279 0.80058 0.25458 0.27957-0.17278 0.46545 2.7859 0.46545 7.4085 0 6.4654-0.11994 7.7114-0.75 7.7914-0.4125 0.05238-1.2 0.1381-1.75 0.19048-0.88274 0.08407-1 0.46032-1 3.2086 0 1.7123-0.225 3.2524-0.5 3.4224s-0.5 2.195-0.5 4.5-0.225 4.33-0.5 4.5-0.5 1.295-0.5 2.5-0.225 2.33-0.5 2.5-0.5 1.3113-0.5 2.5363-0.19875 2.618-0.44166 3.0955c-1.1489 2.2584-1.5422 3.5228-1.6699 5.3682-0.0952 1.3755-0.37263 2.0041-0.88843 2.0132-0.4125 0.0073-1.0266 0.18642-1.3647 0.39812-0.33806 0.2117-1.053 0.15031-1.5888-0.13642-0.53576-0.28673-1.3413-0.38041-1.7902-0.20818-0.5546 0.21282-0.9004-0.0094-1.0793-0.6937-0.18434-0.70491-0.55518-0.93052-1.2366-0.75233-1.8152 0.4747-2.9404-1.2161-2.9404-4.4187 0-1.5911-0.225-3.0321-0.5-3.202s-0.5-0.84496-0.5-1.5-0.225-1.33-0.5-1.5-0.5-0.94574-0.5-1.724c0-1.0407-0.23144-1.3966-0.875-1.3455-0.80355 0.06377-0.88604-0.77964-1.0102-10.329-0.0862-6.6264-0.31288-10.288-0.625-10.095-0.26939 0.16648-0.48979 0.83864-0.48979 1.4937s-0.225 1.33-0.5 1.5-0.5 0.84496-0.5 1.5-0.225 1.33-0.5 1.5-0.5 0.84496-0.5 1.5c0 1.3651-0.714 1.9881-1.625 1.4177-0.34375-0.21521-0.95176-0.39724-1.3511-0.40451-0.39937-0.0073-0.84937-0.46322-1-1.0132-0.18061-0.65943-0.78271-1.0554-1.7679-1.1626-0.82173-0.08942-1.7402-0.36686-2.041-0.61653-0.7123-0.59115-2.076 0.4624-2.3028 1.7791-0.21413 1.2429-2.2894 1.6514-2.7178 0.53507-0.48709-1.2693-1.9089-0.90318-2.8806 0.74187-0.49609 0.83982-1.159 1.4413-1.473 1.3366-0.31408-0.10469-1.2959 0.57816-2.1817 1.5175-1.5602 1.6543-2.6588 1.8019-2.6588 0.3571 0-0.89536-1.6994-1.822-2.6632-1.4522-0.40461 0.15526-0.88646 0.03828-1.0708-0.25995-0.18432-0.29823-0.55876-0.40403-0.83209-0.23511-0.27332 0.16892-0.92371-0.07907-1.4453-0.5511-0.65134-0.58945-1.3592-0.75513-2.2601-0.52902-1.0531 0.2643-1.3643 0.12809-1.5785-0.69074-0.3702-1.4156-1.1501-1.2796-1.1501 0.20053 0 0.67127-0.225 1.3595-0.5 1.5295s-0.5 1.52-0.5 3c0 3.0253-0.60552 3.762-2.0315 2.4715-0.94046-0.85111-0.96849-0.82583-0.96849 0.87352 0 1.6523-1.1734 3.3994-2.2894 3.4089-0.60867 0.0052-1.7106 2.4181-1.7106 3.7458 0 0.57768-0.2115 1.2641-0.47 1.5253s-0.53975 1.5824-0.625 2.9359c-0.16961 2.6929-1.1341 3.5796-1.8555 1.706-0.5316-1.3806-0.92867-0.66456-1.1552 2.0831-0.0955 1.1581-0.39794 1.75-0.89427 1.75-0.58915 0-0.78123-0.82598-0.89561-3.8514-0.11802-3.1217-0.28299-3.7987-0.87078-3.5731-0.43152 0.16559-0.84648-0.09706-1.0247-0.6486-0.38987-1.2063-1.2103-3.2003-1.7672-4.2951-0.24291-0.47752-0.44166-2.658-0.44166-4.8455s-0.225-4.1163-0.5-4.2863-0.5-1.07-0.5-2c0-3.1822-0.91686-2.2704-1.1272 1.1209-0.24898 4.0147-2.2067 9.7998-3.1888 9.4229-0.36164-0.13878-0.85411 0.09895-1.0944 0.52828-0.79268 1.4164-2.3254 0.59677-2.4799-1.3262-0.15346-1.9098-1.038-3.9959-1.6942-3.9959-0.22853 0-0.41551 0.93015-0.41551 2.067 0 1.1368-0.21655 2.8806-0.48122 3.875-0.26467 0.99441-0.61798 2.8902-0.78513 4.213-0.33738 2.6698-1.2786 2.9595-1.7995 0.55379-0.25216-1.1646-0.32777-1.2319-0.375-0.33375-0.0814 1.5487-0.70424 1.4112-2.4106-0.53224-0.8003-0.91148-1.7235-1.5678-2.0515-1.4584s-0.73316-0.21364-0.90025-0.71776-0.66844-1.7041-1.1141-2.6666l-0.81032-1.75-0.46566 2.352c-0.70523 3.5621-2.8066 3.9201-2.8066 0.4781 0-1.6085-0.20344-1.9377-1.5-2.4271l-1.5-0.56619v-5.2639c0-2.9699-0.2179-5.3986-0.5-5.5729-0.275-0.16996-0.5-1.9832-0.5-4.0295 0-2.147-0.21146-3.7205-0.5-3.7205-0.275 0-0.49989 0.50625-0.49975 1.125 1.3e-4 0.61875-0.39037 2.8634-0.86779 4.9881-0.75791 3.373-1.0434 3.9358-2.2502 4.4357-1.0569 0.43779-1.3822 0.91127-1.3822 2.0119 0 0.79164-0.225 1.4393-0.5 1.4393s-0.5 0.46875-0.5 1.0417c0 0.60965-0.25921 0.9564-0.625 0.83608-0.3584-0.11789-0.74911-1.4687-0.91595-3.1667-0.16002-1.6286-0.32877-2.2298-0.375-1.3361-0.0462 0.89375-0.26538 1.625-0.48701 1.625-0.22162 0-0.69024 2.0812-1.0414 4.625-0.35113 2.5438-0.83305 5.075-1.0709 5.625-0.4358 1.0076-0.73471 3.174-1.2935 9.375-0.16727 1.8562-0.50373 3.375-0.74769 3.375-0.24397 0-0.44358 0.675-0.44358 1.5s-0.225 1.5-0.5 1.5-0.5 0.46875-0.5 1.0417c0 2.0746-1.255 0.58908-1.5464-1.8304-0.16304-1.3537-0.33179-1.955-0.375-1.3362-0.0875 1.2526-0.57711 1.4264-1.4786 0.525-0.46667-0.46667-0.6-0.3463-0.6 0.54167 0 0.68979-0.24738 1.0602-0.625 0.93581-0.37999-0.12516-0.73739-1.5625-0.91171-3.6667-0.15769-1.9034-0.32644-2.9546-0.375-2.3358-0.0598 0.76224-0.41075 1.125-1.0883 1.125-0.89744 0-1 0.33333-1 3.25 0 1.8333-0.21795 3.25-0.5 3.25-0.275 0-0.5 0.45-0.5 1 0 0.55556-0.33333 1-0.75 1-0.52136 0-0.75-0.5245-0.75-1.7205z" />
</svg>
