<svg width="16" height="16" viewBox="0 0 16 16" xmlns="http://www.w3.org/2000/svg">
	<path d="M8.19986 1.04168C8.38215 1.12117 8.5 1.30113 8.5 1.5V13.3534L14.6598 7.6336C14.8621 7.4457 15.1785 7.45742 15.3664 7.65977C15.5543 7.86213 15.5426 8.17849 15.3402 8.3664L8.34023 14.8664C8.1945 15.0017 7.98243 15.0378 7.80014 14.9583C7.61785 14.8788 7.5 14.6989 7.5 14.5V2.64661L1.34023 8.3664C1.13787 8.5543 0.821507 8.54258 0.633605 8.34023C0.445704 8.13787 0.457421 7.8215 0.659777 7.6336L7.65978 1.1336C7.8055 0.998283 8.01757 0.96219 8.19986 1.04168Z" />
</svg>
