<svg width="16" height="16" viewBox="0 0 16 16" xmlns="http://www.w3.org/2000/svg">
	<path d="m4.5 1c-0.43446 0-0.82425 0.22704-1.1484 0.55469s-0.61424 0.77053-0.91211 1.3379c-0.59573 1.1347-1.2123 2.7749-1.916 4.9531a0.5 0.5 0 0 0 0.32227 0.63086 0.5 0.5 0 0 0 0.63086-0.32227c0.69625-2.1551 1.3059-3.7649 1.8477-4.7969 0.27089-0.51597 0.52653-0.88559 0.73828-1.0996s0.34696-0.25781 0.4375-0.25781c0.090542 0 0.22575 0.043796 0.4375 0.25781 0.21175 0.21402 0.4674 0.58364 0.73828 1.0996 0.54177 1.0319 1.1514 2.6418 1.8477 4.7969 0.70375 2.1783 1.3203 3.8184 1.916 4.9531 0.29786 0.56736 0.58792 1.0102 0.91211 1.3379 0.32418 0.32765 0.71398 0.55469 1.1484 0.55469s0.82425-0.22704 1.1484-0.55469c0.32418-0.32765 0.61424-0.77053 0.91211-1.3379 0.59573-1.1347 1.2123-2.7749 1.916-4.9531a0.5 0.5 0 0 0-0.32227-0.63086 0.5 0.5 0 0 0-0.63086 0.32227c-0.69625 2.1551-1.3059 3.7649-1.8477 4.7969-0.27088 0.51597-0.52653 0.88559-0.73828 1.0996-0.21175 0.21402-0.34696 0.25781-0.4375 0.25781s-0.22575-0.043795-0.4375-0.25781c-0.21175-0.21402-0.4674-0.58364-0.73828-1.0996-0.54177-1.0319-1.1514-2.6418-1.8477-4.7969-0.70375-2.1783-1.3203-3.8184-1.916-4.9531-0.29786-0.56736-0.58792-1.0102-0.91211-1.3379s-0.71398-0.55469-1.1484-0.55469z" />
</svg>
