<svg width="16" height="16" viewBox="0 0 16 16" xmlns="http://www.w3.org/2000/svg">
	<path d="M4.5001 1C4.68404 1 4.85313 1.101 4.94033 1.26295L11.5001 13.4454L14.5599 7.76295C14.6908 7.51981 14.994 7.42885 15.2371 7.55976C15.4803 7.69068 15.5713 7.99391 15.4403 8.23705L11.9403 14.7371C11.8531 14.899 11.684 15 11.5001 15C11.3162 15 11.1471 14.899 11.0599 14.7371L4.5001 2.55463L1.44033 8.23705C1.30941 8.48019 1.00618 8.57115 0.763047 8.44024C0.519912 8.30932 0.428942 8.00609 0.559861 7.76295L4.05986 1.26295C4.14707 1.101 4.31616 1 4.5001 1Z" />
</svg>
