<svg width="16" height="16" viewBox="0 0 16 16" xmlns="http://www.w3.org/2000/svg">
	<path fill-rule="evenodd" clip-rule="evenodd" d="M8.5 7V2.5C8.5 1.67157 7.82843 1 7 1H2.5L8.5 7ZM7.5 5.4V2.5C7.5 2.22386 7.27614 2 7 2H4.1L7.5 5.4Z" />
	<path d="M1.7109 1.00379L8.49277 7.78566C8.10218 8.17537 7.46962 8.1751 7.07937 7.78484L1.71172 2.41719C1.32146 2.02694 1.32119 1.39438 1.7109 1.00379Z" />
	<path fill-rule="evenodd" clip-rule="evenodd" d="M11 2H10V11C10 12.6569 11.3431 14 13 14H13.5C13.7761 14 14 13.7761 14 13.5V5C14 3.34315 12.6569 2 11 2ZM9 1V11C9 13.2091 10.7909 15 13 15H13.5C14.3284 15 15 14.3284 15 13.5V5C15 2.79086 13.2091 1 11 1H9Z" />
	<path d="M13 6C13 6.55228 12.5523 7 12 7C11.4477 7 11 6.55228 11 6C11 5.44772 11.4477 5 12 5C12.5523 5 13 5.44772 13 6Z" />
</svg>
