<svg width="78" height="78" viewBox="0 0 78 78" fill="none" xmlns="http://www.w3.org/2000/svg">
	<rect width="78" height="78" rx="20.4" fill="url(#paint0_linear_1742_3497)" />
	<g filter="url(#filter0_dd_1742_3497)">
		<path d="M45.187 14.5444C43.2049 14.1245 41.1327 13.9078 39.0001 13.9078C24.7475 13.9078 13.1936 23.5853 13.1936 38.9078C13.1936 54.2304 24.7475 63.9078 39.0001 63.9078C53.2526 63.9078 64.8065 54.2304 64.8065 38.9078C64.8065 26.8255 57.6225 18.2532 47.5961 15.168C40.97 18.3789 34.6021 23.0914 31.2866 29.4018C33.3803 27.7428 36.0684 26.8111 39.0001 26.8111C45.6809 26.8111 51.0968 31.6498 51.0968 38.9078C51.0968 46.1659 45.6809 51.0046 39.0001 51.0046C32.3192 51.0046 26.9033 46.1659 26.9033 38.9078C26.9033 28.6378 33.9043 20.2853 45.187 14.5444Z" fill="#2FBDEC" fill-opacity="0.01" shape-rendering="crispEdges" />
	</g>
	<path d="M45.187 14.5444C43.2049 14.1245 41.1327 13.9078 39.0001 13.9078C24.7475 13.9078 13.1936 23.5853 13.1936 38.9078C13.1936 54.2304 24.7475 63.9078 39.0001 63.9078C53.2526 63.9078 64.8065 54.2304 64.8065 38.9078C64.8065 26.8255 57.6225 18.2532 47.5961 15.168C40.97 18.3789 34.6021 23.0914 31.2866 29.4018C33.3803 27.7428 36.0684 26.8111 39.0001 26.8111C45.6809 26.8111 51.0968 31.6498 51.0968 38.9078C51.0968 46.1659 45.6809 51.0046 39.0001 51.0046C32.3192 51.0046 26.9033 46.1659 26.9033 38.9078C26.9033 28.6378 33.9043 20.2853 45.187 14.5444Z" fill="#2FBDEC" />
	<path d="M39.0001 63.9078C24.7475 63.9078 13.1936 54.2304 13.1936 38.9078C13.1936 23.5853 24.7475 13.9078 39.0001 13.9078C41.1327 13.9078 43.2049 14.1245 45.187 14.5444C33.9043 20.2853 26.9033 28.6378 26.9033 38.9078C26.9033 46.1659 32.3192 51.0046 39.0001 51.0046V63.9078Z" fill="url(#paint1_linear_1742_3497)" />
	<mask id="mask0_1742_3497" style="mask-type:alpha" maskUnits="userSpaceOnUse" x="13" y="33" width="52" height="31">
		<rect x="13.1936" y="33.2627" width="51.6129" height="30.6452" fill="url(#paint2_linear_1742_3497)" />
	</mask>
	<g mask="url(#mask0_1742_3497)">
		<path d="M45.187 14.5444C43.2049 14.1245 41.1327 13.9078 39.0001 13.9078C24.7475 13.9078 13.1936 23.5853 13.1936 38.9078C13.1936 54.2304 24.7475 63.9078 39.0001 63.9078C53.2526 63.9078 64.8065 54.2304 64.8065 38.9078C64.8065 26.8255 57.6225 18.2532 47.5961 15.168C40.97 18.3789 34.6021 23.0914 31.2866 29.4018C33.3803 27.7428 36.0684 26.8111 39.0001 26.8111C45.6809 26.8111 51.0968 31.6498 51.0968 38.9078C51.0968 46.1659 45.6809 51.0046 39.0001 51.0046C32.3192 51.0046 26.9033 46.1659 26.9033 38.9078C26.9033 28.6378 33.9043 20.2853 45.187 14.5444Z" fill="url(#paint3_linear_1742_3497)" />
	</g>
	<path d="M51.0969 38.9078H64.8065C64.8065 26.8255 57.6225 18.2532 47.5961 15.168C40.97 18.3789 34.6022 23.0914 31.2866 29.4018C33.3804 27.7428 36.0684 26.811 39.0001 26.811C45.681 26.811 51.0969 31.6498 51.0969 38.9078Z" fill="url(#paint4_linear_1742_3497)" fill-opacity="0.25" />
	<path d="M45.187 14.5444C43.2049 14.1245 41.1327 13.9078 39.0001 13.9078C24.7475 13.9078 13.1936 23.5853 13.1936 38.9078C13.1936 54.2304 24.7475 63.9078 39.0001 63.9078C53.2526 63.9078 64.8065 54.2304 64.8065 38.9078C64.8065 26.8255 57.6225 18.2532 47.5961 15.168C40.97 18.3789 34.6021 23.0914 31.2866 29.4018C33.3803 27.7428 36.0684 26.8111 39.0001 26.8111C45.6809 26.8111 51.0968 31.6498 51.0968 38.9078C51.0968 46.1659 45.6809 51.0046 39.0001 51.0046C32.3192 51.0046 26.9033 46.1659 26.9033 38.9078C26.9033 28.6378 33.9043 20.2853 45.187 14.5444Z" fill="url(#paint5_linear_1742_3497)" fill-opacity="0.4" />
	<g style="mix-blend-mode:plus-lighter" opacity="0.55">
		<mask id="mask1_1742_3497" style="mask-type:alpha" maskUnits="userSpaceOnUse" x="14" y="14" width="50" height="50">
			<path d="M39 14.7143C40.2684 14.7143 41.5138 14.793 42.7296 14.947C32.5158 20.7167 26.0968 28.8788 26.0968 38.9078C26.0968 46.6366 31.8994 51.8111 39 51.8111C46.1006 51.8111 51.9032 46.6366 51.9032 38.9078C51.9032 31.1791 46.1006 26.0046 39 26.0046C37.1145 26.0046 35.3164 26.369 33.6923 27.0536C37.0681 22.3723 42.2266 18.7065 47.661 16.0337C57.2041 19.0966 64 27.3154 64 38.9078C64 53.7295 52.8648 63.1014 39 63.1014C25.1352 63.1014 14 53.7295 14 38.9078C14 24.0862 25.1352 14.7143 39 14.7143Z" fill="black" />
		</mask>
		<g mask="url(#mask1_1742_3497)">
			<g filter="url(#filter1_f_1742_3497)">
				<path d="M39 15.0893C39.86 15.0893 40.7089 15.1285 41.5449 15.2006C31.8425 20.9728 25.7218 29.0288 25.7217 38.9077C25.7217 46.8554 31.7045 52.186 39 52.186C46.2955 52.186 52.2783 46.8554 52.2783 38.9077C52.2782 30.96 46.2954 25.6293 39 25.6293C37.5251 25.6293 36.1004 25.8473 34.7656 26.2631C38.0518 22.1638 42.7384 18.8909 47.6904 16.4379C57.0082 19.4889 63.6249 27.5427 63.625 38.9077C63.625 53.4966 52.6842 62.726 39 62.726C25.3158 62.726 14.375 53.4966 14.375 38.9077C14.3751 24.3188 25.3159 15.0893 39 15.0893Z" stroke="url(#paint6_linear_1742_3497)" stroke-width="0.75" />
			</g>
		</g>
	</g>
	<defs>
		<filter id="filter0_dd_1742_3497" x="10.1936" y="11.9078" width="57.6128" height="56" filterUnits="userSpaceOnUse" color-interpolation-filters="sRGB">
			<feFlood flood-opacity="0" result="BackgroundImageFix" />
			<feColorMatrix in="SourceAlpha" type="matrix" values="0 0 0 0 0 0 0 0 0 0 0 0 0 0 0 0 0 0 127 0" result="hardAlpha" />
			<feOffset dy="1" />
			<feGaussianBlur stdDeviation="1.5" />
			<feComposite in2="hardAlpha" operator="out" />
			<feColorMatrix type="matrix" values="0 0 0 0 0.560784 0 0 0 0 0.513726 0 0 0 0 0.721569 0 0 0 0.12 0" />
			<feBlend mode="normal" in2="BackgroundImageFix" result="effect1_dropShadow_1742_3497" />
			<feColorMatrix in="SourceAlpha" type="matrix" values="0 0 0 0 0 0 0 0 0 0 0 0 0 0 0 0 0 0 127 0" result="hardAlpha" />
			<feOffset dy="1" />
			<feGaussianBlur stdDeviation="1" />
			<feComposite in2="hardAlpha" operator="out" />
			<feColorMatrix type="matrix" values="0 0 0 0 0.56011 0 0 0 0 0.513967 0 0 0 0 0.72161 0 0 0 0.44 0" />
			<feBlend mode="normal" in2="effect1_dropShadow_1742_3497" result="effect2_dropShadow_1742_3497" />
			<feBlend mode="normal" in="SourceGraphic" in2="effect2_dropShadow_1742_3497" result="shape" />
		</filter>
		<filter id="filter1_f_1742_3497" x="13.5" y="14.2143" width="51" height="49.3871" filterUnits="userSpaceOnUse" color-interpolation-filters="sRGB">
			<feFlood flood-opacity="0" result="BackgroundImageFix" />
			<feBlend mode="normal" in="SourceGraphic" in2="BackgroundImageFix" result="shape" />
			<feGaussianBlur stdDeviation="0.25" result="effect1_foregroundBlur_1742_3497" />
		</filter>
		<linearGradient id="paint0_linear_1742_3497" x1="39" y1="0" x2="39" y2="78" gradientUnits="userSpaceOnUse">
			<stop stop-color="white" />
			<stop offset="1" stop-color="#EDECEE" />
		</linearGradient>
		<linearGradient id="paint1_linear_1742_3497" x1="27.6084" y1="36.0684" x2="31.2559" y2="47.0218" gradientUnits="userSpaceOnUse">
			<stop stop-color="#FB7299" />
			<stop offset="1" stop-color="#FB7299" stop-opacity="0" />
		</linearGradient>
		<linearGradient id="paint2_linear_1742_3497" x1="39.0001" y1="35.62" x2="39.0001" y2="41.5133" gradientUnits="userSpaceOnUse">
			<stop stop-opacity="0" />
			<stop offset="1" />
		</linearGradient>
		<linearGradient id="paint3_linear_1742_3497" x1="13.1936" y1="47.3756" x2="64.4063" y2="39.7347" gradientUnits="userSpaceOnUse">
			<stop stop-color="#FB7299" />
			<stop offset="1" stop-color="#FB7299" stop-opacity="0" />
		</linearGradient>
		<linearGradient id="paint4_linear_1742_3497" x1="39.4033" y1="-8.67283" x2="57.1452" y2="30.4401" gradientUnits="userSpaceOnUse">
			<stop />
			<stop offset="1" stop-opacity="0" />
		</linearGradient>
		<linearGradient id="paint5_linear_1742_3497" x1="20.7521" y1="21.2301" x2="56.0897" y2="57.7077" gradientUnits="userSpaceOnUse">
			<stop stop-color="white" stop-opacity="0.6" />
			<stop offset="1" stop-color="white" stop-opacity="0.3" />
		</linearGradient>
		<linearGradient id="paint6_linear_1742_3497" x1="21.3223" y1="21.8003" x2="55.5189" y2="57.1368" gradientUnits="userSpaceOnUse">
			<stop stop-color="white" stop-opacity="0.6" />
			<stop offset="0.4927" stop-color="white" stop-opacity="0" />
			<stop offset="0.9971" stop-color="white" stop-opacity="0.3" />
		</linearGradient>
	</defs>
</svg>
