<svg width="78" height="78" viewBox="0 0 78 78" fill="none" xmlns="http://www.w3.org/2000/svg">
	<g filter="url(#filter0_dd_1752_3386)">
		<path d="M46.6717 8.78922C44.2139 8.26862 41.6443 7.99994 38.9999 7.99994C21.3268 7.99994 7 19.9999 7 38.9998C7 57.9997 21.3268 69.9997 38.9999 69.9997C56.6729 69.9997 70.9997 57.9997 70.9997 38.9998C70.9997 24.0178 62.0915 13.3882 49.6589 9.56252C41.4425 13.5441 33.5465 19.3875 29.4352 27.2124C32.0314 25.1552 35.3646 23.9999 38.9999 23.9999C47.2841 23.9999 53.9998 29.9998 53.9998 38.9998C53.9998 47.9998 47.2841 53.9997 38.9999 53.9997C30.7156 53.9997 23.9999 47.9998 23.9999 38.9998C23.9999 26.2651 32.6812 15.908 46.6717 8.78922Z" fill="#2FBDEC" fill-opacity="0.01" shape-rendering="crispEdges" />
	</g>
	<mask id="mask0_1752_3386" style="mask-type:alpha" maskUnits="userSpaceOnUse" x="8" y="9" width="62" height="60">
		<path d="M38.9999 9C40.5727 9 42.117 9.09754 43.6246 9.28857C30.9595 16.4429 22.9999 26.564 22.9999 38.9999C22.9999 48.5834 30.1952 54.9998 38.9999 54.9998C47.8045 54.9998 54.9998 48.5834 54.9998 38.9999C54.9998 29.4163 47.8045 22.9999 38.9999 22.9999C36.6619 22.9999 34.4323 23.4517 32.4184 24.3007C36.6043 18.4958 43.0009 13.9503 49.7394 10.6361C61.5729 14.434 69.9997 24.6254 69.9997 38.9999C69.9997 57.3786 56.1921 68.9998 38.9999 68.9998C21.8076 68.9998 8 57.3786 8 38.9999C8 20.6211 21.8076 9 38.9999 9Z" fill="#FF0000" />
	</mask>
	<g mask="url(#mask0_1752_3386)">
		<path d="M46.6717 8.78928C44.2139 8.26868 41.6443 8 38.9999 8C21.3268 8 7 20 7 38.9999C7 57.9998 21.3268 69.9997 38.9999 69.9997C56.6729 69.9997 70.9997 57.9998 70.9997 38.9999C70.9997 24.0178 62.0915 13.3882 49.6589 9.56258C41.4425 13.5441 33.5465 19.3876 29.4352 27.2124C32.0314 25.1553 35.3646 23.9999 38.9999 23.9999C47.2841 23.9999 53.9998 29.9999 53.9998 38.9999C53.9998 47.9998 47.2841 53.9998 38.9999 53.9998C30.7156 53.9998 23.9999 47.9998 23.9999 38.9999C23.9999 26.2651 32.6812 15.908 46.6717 8.78928Z" fill="#2FBDEC" />
		<path d="M38.9999 69.9997C21.3268 69.9997 7 57.9998 7 38.9999C7 20 21.3268 8 38.9999 8C41.6443 8 44.2139 8.26868 46.6717 8.78928C32.6812 15.908 23.9999 26.2651 23.9999 38.9999C23.9999 47.9998 30.7156 53.9998 38.9999 53.9998V69.9997Z" fill="url(#paint0_linear_1752_3386)" />
		<mask id="mask1_1752_3386" style="mask-type:alpha" maskUnits="userSpaceOnUse" x="7" y="31" width="64" height="39">
			<rect x="7" y="31.9999" width="63.9997" height="37.9998" fill="url(#paint1_linear_1752_3386)" />
		</mask>
		<g mask="url(#mask1_1752_3386)">
			<path d="M46.6717 8.78928C44.2139 8.26868 41.6443 8 38.9999 8C21.3268 8 7 20 7 38.9999C7 57.9998 21.3268 69.9997 38.9999 69.9997C56.6729 69.9997 70.9997 57.9998 70.9997 38.9999C70.9997 24.0178 62.0915 13.3882 49.6589 9.56258C41.4425 13.5441 33.5465 19.3876 29.4352 27.2124C32.0314 25.1553 35.3646 23.9999 38.9999 23.9999C47.2841 23.9999 53.9998 29.9999 53.9998 38.9999C53.9998 47.9998 47.2841 53.9998 38.9999 53.9998C30.7156 53.9998 23.9999 47.9998 23.9999 38.9999C23.9999 26.2651 32.6812 15.908 46.6717 8.78928Z" fill="url(#paint2_linear_1752_3386)" />
		</g>
		<path d="M53.9997 38.9998H70.9996C70.9996 24.0177 62.0914 13.3881 49.6588 9.5625C41.4424 13.544 33.5463 19.3875 29.4351 27.2124C32.0313 25.1552 35.3645 23.9999 38.9997 23.9999C47.284 23.9999 53.9997 29.9998 53.9997 38.9998Z" fill="url(#paint3_linear_1752_3386)" />
		<path d="M38.5428 8.83594C41.1489 8.83594 43.6811 9.10133 46.1032 9.61557L49.0471 10.3794C61.2991 14.1583 70.0779 24.658 70.0779 39.4569C70.0779 58.2246 55.9592 70.0779 38.5428 70.0779C21.1265 70.0779 7.00781 58.2246 7.00781 39.4569C7.00781 20.6892 21.1265 8.83594 38.5428 8.83594Z" fill="url(#paint4_radial_1752_3386)" fill-opacity="0.17" />
		<g filter="url(#filter1_f_1752_3386)">
			<path d="M38.5428 8.83594C41.1489 8.83594 43.6811 9.10133 46.1032 9.61557L49.0471 10.3794C61.2991 14.1583 70.0779 24.658 70.0779 39.4569C70.0779 58.2246 55.9592 70.0779 38.5428 70.0779C21.1265 70.0779 7.00781 58.2246 7.00781 39.4569C7.00781 20.6892 21.1265 8.83594 38.5428 8.83594Z" fill="url(#paint5_radial_1752_3386)" fill-opacity="0.6" />
		</g>
		<g filter="url(#filter2_f_1752_3386)">
			<ellipse cx="23.6772" cy="20.1583" rx="14.4401" ry="9.1842" transform="rotate(-19.3782 23.6772 20.1583)" fill="url(#paint6_radial_1752_3386)" fill-opacity="0.75" />
		</g>
	</g>
	<g filter="url(#filter3_d_1752_3386)">
		<path fill-rule="evenodd" clip-rule="evenodd" d="M43.4208 8.25621C44.5234 8.38579 45.608 8.56391 46.6717 8.78922C45.6972 9.28509 44.7484 9.79668 43.8265 10.3237C31.5139 17.3624 23.9999 27.1521 23.9999 38.9998C23.9999 47.9998 30.7156 53.9997 38.9999 53.9997C47.2841 53.9997 53.9998 47.9998 53.9998 38.9998C53.9998 29.9998 47.2841 23.9999 38.9999 23.9999C36.8917 23.9999 34.8852 24.3884 33.065 25.1161C31.7465 25.6432 30.5258 26.3482 29.4352 27.2124C30.1154 25.9178 30.8991 24.6775 31.7708 23.4909C36.1679 17.505 42.8019 12.8854 49.6589 9.56252C62.0915 13.3882 70.9997 24.0178 70.9997 38.9998C70.9997 57.9997 56.6729 69.9997 38.9999 69.9997C21.3268 69.9997 7 57.9997 7 38.9998C7 19.9999 21.3268 7.99994 38.9999 7.99994C40.4999 7.99994 41.9757 8.08638 43.4208 8.25621ZM40.4402 10.0281C39.9631 10.0094 39.483 9.99993 38.9999 9.99993C22.2884 9.99993 8.99999 21.2422 8.99999 38.9998C8.99999 56.7574 22.2884 67.9997 38.9999 67.9997C55.7113 67.9997 68.9997 56.7574 68.9997 38.9998C68.9997 25.2332 61.0513 15.479 49.8167 11.7138C44.3104 14.4641 39.1199 18.0225 35.2422 22.3817C36.455 22.1296 37.7131 21.9999 38.9999 21.9999C48.325 21.9999 55.9998 28.8326 55.9998 38.9998C55.9998 49.167 48.325 55.9997 38.9999 55.9997C29.6748 55.9997 21.9999 49.167 21.9999 38.9998C21.9999 26.996 29.1408 17.1803 40.4402 10.0281Z" fill="url(#paint7_linear_1752_3386)" shape-rendering="crispEdges" />
		<path d="M39 7.92377C40.5029 7.92377 41.9817 8.01043 43.4297 8.1806C44.5345 8.31045 45.6215 8.48899 46.6875 8.71478L46.8984 8.7597L46.7061 8.85736C45.7327 9.35264 44.7849 9.86327 43.8643 10.3896C31.5652 17.4205 24.0762 27.1895 24.0762 38.9999C24.0762 47.9554 30.7554 53.9238 39 53.9238C47.2445 53.9237 53.9238 47.9553 53.9238 38.9999C53.9238 30.0445 47.2445 24.0762 39 24.0761C36.9014 24.0761 34.9045 24.4626 33.0938 25.1865C31.782 25.7109 30.5672 26.4129 29.4824 27.2724L29.3682 27.1767C30.0501 25.8789 30.8354 24.6354 31.709 23.4462C36.116 17.4468 42.7626 12.82 49.626 9.49408L49.6523 9.48138L49.6816 9.49017C62.1447 13.3254 71.0762 23.9833 71.0762 38.9999C71.0761 58.0471 56.7096 70.0761 39 70.0761C21.2904 70.0761 6.92389 58.0471 6.92383 38.9999C6.92383 19.9527 21.2903 7.92377 39 7.92377ZM39 10.0761C30.6614 10.0761 23.1805 12.8808 17.7852 17.8964C12.3904 22.9116 9.07617 30.1412 9.07617 38.9999C9.0762 47.8586 12.3904 55.0883 17.7852 60.1035C23.1805 65.119 30.6614 67.9238 39 67.9238C47.3386 67.9237 54.8195 65.1191 60.2148 60.1035C65.6096 55.0883 68.9238 47.8586 68.9238 38.9999C68.9238 25.2792 61.0111 15.5582 49.8223 11.7958C44.4039 14.5055 39.297 17.9974 35.4512 22.2626C36.5997 22.0392 37.7873 21.9238 39 21.9238C48.3646 21.9238 56.0762 28.7883 56.0762 38.9999C56.0761 49.2115 48.3645 56.076 39 56.0761C29.6354 56.0761 21.9239 49.2116 21.9238 38.9999C21.9238 27.035 29 17.2462 40.1934 10.0966C39.7977 10.0837 39.3999 10.0761 39 10.0761Z" stroke="black" stroke-opacity="0.2588" stroke-width="0.152343" shape-rendering="crispEdges" />
	</g>
	<path d="M39 8.15228C40.4941 8.15229 41.9643 8.23804 43.4033 8.40717C44.3545 8.51896 45.2916 8.67002 46.2139 8.85345C45.3733 9.28782 44.5519 9.73348 43.751 10.1913C31.4111 17.2456 23.8477 27.0777 23.8477 38.9999C23.8477 48.0887 30.6365 54.1523 39 54.1523C47.3634 54.1522 54.1523 48.0887 54.1523 38.9999C54.1523 29.9111 47.3635 23.8477 39 23.8476C36.8732 23.8476 34.8474 24.2396 33.0088 24.9745C31.8978 25.4187 30.8555 25.9891 29.9004 26.6728C30.4965 25.6045 31.1641 24.5741 31.8936 23.581C36.2592 17.638 42.8459 13.0402 49.6709 9.72552C62.0125 13.5471 70.8477 24.1102 70.8477 38.9999C70.8476 57.9051 56.5997 69.8475 39 69.8476C21.4002 69.8476 7.15241 57.9052 7.15234 38.9999C7.15234 20.0946 21.4002 8.15228 39 8.15228Z" stroke="url(#paint8_linear_1752_3386)" stroke-width="0.304686" />
	<path d="M39 9.84766C39.485 9.84766 39.9673 9.85713 40.4463 9.87598L40.9355 9.89551L40.5215 10.1572C29.2496 17.2921 22.1523 27.0657 22.1523 39C22.1524 49.078 29.754 55.8477 39 55.8477C48.2459 55.8476 55.8476 49.078 55.8477 39C55.8477 28.9219 48.2459 22.1524 39 22.1523C37.7236 22.1523 36.4759 22.2814 35.2734 22.5312L34.8223 22.625L35.1279 22.2803C39.0223 17.9023 44.2312 14.3332 49.749 11.5771L49.8057 11.5488L49.8652 11.5693C61.1598 15.3547 69.1523 25.1658 69.1523 39C69.1523 47.9189 65.8137 55.21 60.3701 60.2705C54.9278 65.3298 47.3897 68.1523 39 68.1523C30.6104 68.1523 23.0722 65.3297 17.6299 60.2705C12.1863 55.21 8.84769 47.9189 8.84766 39C8.84766 30.081 12.1863 22.79 17.6299 17.7295C23.0722 12.6702 30.6103 9.84766 39 9.84766Z" stroke="url(#paint9_linear_1752_3386)" stroke-width="0.304686" />
	<defs>
		<filter id="filter0_dd_1752_3386" x="2.99947" y="7.39057" width="72.0008" height="70.6102" filterUnits="userSpaceOnUse" color-interpolation-filters="sRGB">
			<feFlood flood-opacity="0" result="BackgroundImageFix" />
			<feColorMatrix in="SourceAlpha" type="matrix" values="0 0 0 0 0 0 0 0 0 0 0 0 0 0 0 0 0 0 127 0" result="hardAlpha" />
			<feOffset dy="1.21875" />
			<feGaussianBlur stdDeviation="0.914059" />
			<feComposite in2="hardAlpha" operator="out" />
			<feColorMatrix type="matrix" values="0 0 0 0 0.129412 0 0 0 0 0.14902 0 0 0 0 0.172549 0 0 0 0.25 0" />
			<feBlend mode="normal" in2="BackgroundImageFix" result="effect1_dropShadow_1752_3386" />
			<feColorMatrix in="SourceAlpha" type="matrix" values="0 0 0 0 0 0 0 0 0 0 0 0 0 0 0 0 0 0 127 0" result="hardAlpha" />
			<feOffset dy="4.00053" />
			<feGaussianBlur stdDeviation="2.00027" />
			<feComposite in2="hardAlpha" operator="out" />
			<feColorMatrix type="matrix" values="0 0 0 0 0.129412 0 0 0 0 0.14902 0 0 0 0 0.172549 0 0 0 0.18 0" />
			<feBlend mode="normal" in2="effect1_dropShadow_1752_3386" result="effect2_dropShadow_1752_3386" />
			<feBlend mode="normal" in="SourceGraphic" in2="effect2_dropShadow_1752_3386" result="shape" />
		</filter>
		<filter id="filter1_f_1752_3386" x="4.57032" y="6.39845" width="67.945" height="66.1169" filterUnits="userSpaceOnUse" color-interpolation-filters="sRGB">
			<feFlood flood-opacity="0" result="BackgroundImageFix" />
			<feBlend mode="normal" in="SourceGraphic" in2="BackgroundImageFix" result="shape" />
			<feGaussianBlur stdDeviation="1.21875" result="effect1_foregroundBlur_1752_3386" />
		</filter>
		<filter id="filter2_f_1752_3386" x="8.49659" y="9.03724" width="30.3611" height="22.2421" filterUnits="userSpaceOnUse" color-interpolation-filters="sRGB">
			<feFlood flood-opacity="0" result="BackgroundImageFix" />
			<feBlend mode="normal" in="SourceGraphic" in2="BackgroundImageFix" result="shape" />
			<feGaussianBlur stdDeviation="0.609373" result="effect1_foregroundBlur_1752_3386" />
		</filter>
		<filter id="filter3_d_1752_3386" x="6.23828" y="7.23822" width="65.5232" height="63.5232" filterUnits="userSpaceOnUse" color-interpolation-filters="sRGB">
			<feFlood flood-opacity="0" result="BackgroundImageFix" />
			<feColorMatrix in="SourceAlpha" type="matrix" values="0 0 0 0 0 0 0 0 0 0 0 0 0 0 0 0 0 0 127 0" result="hardAlpha" />
			<feOffset />
			<feGaussianBlur stdDeviation="0.304686" />
			<feComposite in2="hardAlpha" operator="out" />
			<feColorMatrix type="matrix" values="0 0 0 0 0.258824 0 0 0 0 0.262745 0 0 0 0 0.254902 0 0 0 1 0" />
			<feBlend mode="normal" in2="BackgroundImageFix" result="effect1_dropShadow_1752_3386" />
			<feBlend mode="normal" in="SourceGraphic" in2="effect1_dropShadow_1752_3386" result="shape" />
		</filter>
		<linearGradient id="paint0_linear_1752_3386" x1="24.8743" y1="35.479" x2="29.3971" y2="49.0611" gradientUnits="userSpaceOnUse">
			<stop stop-color="#FB7299" />
			<stop offset="1" stop-color="#FB7299" stop-opacity="0" />
		</linearGradient>
		<linearGradient id="paint1_linear_1752_3386" x1="38.9999" y1="34.9229" x2="38.9999" y2="42.2306" gradientUnits="userSpaceOnUse">
			<stop stop-opacity="0" />
			<stop offset="1" />
		</linearGradient>
		<linearGradient id="paint2_linear_1752_3386" x1="7" y1="49.4998" x2="70.5035" y2="40.0252" gradientUnits="userSpaceOnUse">
			<stop stop-color="#FB7299" />
			<stop offset="1" stop-color="#FB7299" stop-opacity="0" />
		</linearGradient>
		<linearGradient id="paint3_linear_1752_3386" x1="39.4997" y1="-20" x2="61.4996" y2="28.4998" gradientUnits="userSpaceOnUse">
			<stop />
			<stop offset="1" stop-opacity="0" />
		</linearGradient>
		<radialGradient id="paint4_radial_1752_3386" cx="0" cy="0" r="1" gradientUnits="userSpaceOnUse" gradientTransform="translate(56.0623 82.8747) rotate(-124.702) scale(86.166 105.985)">
			<stop offset="0.58" stop-color="white" stop-opacity="0" />
			<stop offset="0.59" stop-color="white" />
		</radialGradient>
		<radialGradient id="paint5_radial_1752_3386" cx="0" cy="0" r="1" gradientUnits="userSpaceOnUse" gradientTransform="translate(38.5428 39.4569) rotate(90) scale(30.621 31.535)">
			<stop offset="0.71044" stop-color="white" stop-opacity="0" />
			<stop offset="0.816222" stop-color="white" stop-opacity="0.25" />
			<stop offset="0.870195" stop-color="white" stop-opacity="0.32" />
			<stop offset="1" stop-color="white" stop-opacity="0" />
		</radialGradient>
		<radialGradient id="paint6_radial_1752_3386" cx="0" cy="0" r="1" gradientUnits="userSpaceOnUse" gradientTransform="translate(23.64 20.2424) rotate(70.5131) scale(5.49339 11.4104)">
			<stop stop-color="white" />
			<stop offset="1" stop-color="white" stop-opacity="0" />
		</radialGradient>
		<linearGradient id="paint7_linear_1752_3386" x1="15.9961" y1="63.3747" x2="63.0701" y2="15.8437" gradientUnits="userSpaceOnUse">
			<stop stop-color="#A9A9AF" />
			<stop offset="0.3" stop-color="#BABABF" />
			<stop offset="0.5" stop-color="white" />
			<stop offset="0.7" stop-color="#BABABF" />
			<stop offset="1" stop-color="#A9A9AF" />
		</linearGradient>
		<linearGradient id="paint8_linear_1752_3386" x1="36.1053" y1="41.8944" x2="62.9177" y2="62.9177" gradientUnits="userSpaceOnUse">
			<stop stop-color="#F9F5F5" />
			<stop offset="1" stop-color="#F9F5F5" stop-opacity="0" />
		</linearGradient>
		<linearGradient id="paint9_linear_1752_3386" x1="36.1053" y1="30.3163" x2="17.2148" y2="14.1679" gradientUnits="userSpaceOnUse">
			<stop stop-color="#F9F5F5" />
			<stop offset="1" stop-color="#F9F5F5" stop-opacity="0" />
		</linearGradient>
	</defs>
</svg>
