<svg xmlns="http://www.w3.org/2000/svg" width="32" height="32" fill="none" data-fallback="grab" data-hotspot-x="18" data-hotspot-y="12" viewBox="0 0 32 32"><path fill="#fff" d="M15.954 16V7.985s0-1.338 1.338-1.338 1.338 1.338 1.338 1.338V16"/><path fill="#fff" d="M18.63 16V8.654s0-1.338 1.337-1.338c1.338 0 1.338 1.338 1.338 1.338V16"/><path fill="#fff" d="M21.305 16v-4.677s0-1.338 1.338-1.338 1.338 1.338 1.338 1.338v8.356s.67 6.69-6.02 6.69c0 0-2.461.13-4.683-2.007L8.595 19.01s-1.338-1.338 0-2.676c0 0 1.003-1.004 2.676.669l1.161 1.161a.495.495 0 0 0 .846-.35V8.968s0-1.338 1.338-1.338 1.338 1.338 1.338 1.338V16"/><path stroke="#000" stroke-miterlimit="10" d="M15.954 16V7.985s0-1.338 1.338-1.338 1.338 1.338 1.338 1.338V16"/><path stroke="#000" stroke-miterlimit="10" d="M18.63 16V8.654s0-1.338 1.337-1.338c1.338 0 1.338 1.338 1.338 1.338V16"/><path stroke="#000" stroke-miterlimit="10" d="M21.305 16v-4.677s0-1.338 1.338-1.338 1.338 1.338 1.338 1.338v8.356s.67 6.69-6.02 6.69c0 0-2.461.13-4.683-2.007L8.595 19.01s-1.338-1.338 0-2.676c0 0 1.003-1.004 2.676.669l1.161 1.161a.495.495 0 0 0 .846-.35V8.968s0-1.338 1.338-1.338 1.338 1.338 1.338 1.338V16"/></svg>