<svg xmlns="http://www.w3.org/2000/svg" width="32" height="32" fill="#fff" stroke="#000" data-fallback="grabbing" data-hotspot-x="18" data-hotspot-y="12" viewBox="0 0 32 32"><path stroke="none" d="M21.306 14.323V16h-5.352v-3.031s0-1.338-1.338-1.338-1.338 1.338-1.338 1.338V14C11.9 14 11 15.5 11 15.5c-1.6 3.2.685 7.241 2.278 8.862 2.222 2.137 4.682 2.007 4.682 2.007 6.69 0 6.021-6.69 6.021-6.69v-5.356s0-1.338-1.338-1.338-1.338 1.338-1.338 1.338"/><path stroke-miterlimit="10" d="M15.954 16v-4.015s0-1.338 1.338-1.338 1.338 1.338 1.338 1.338V16"/><path stroke-miterlimit="10" d="M18.63 16v-3.346s0-1.338 1.337-1.338c1.338 0 1.338 1.338 1.338 1.338V16"/><path fill="none" stroke-miterlimit="10" d="M21.306 16v-1.677s0-1.338 1.337-1.338c1.338 0 1.338 1.338 1.338 1.338v5.356s.67 6.69-6.02 6.69c0 0-2.461.13-4.683-2.007C11.685 22.742 9.4 18.7 11 15.5c0 0 .9-1.5 2.278-1.5m0 3.814V14m2.676 2v-3.032s0-1.338-1.338-1.338-1.338 1.338-1.338 1.338V14"/></svg>