<svg xmlns="http://www.w3.org/2000/svg" width="48" height="48" viewBox="0 0 48 48"><path d="M21 48h-3v-3h-3v-6h-3v-6H9v3H6v3H3v3H0V-.003h3v3h3v3h3v3h3v3h3v3h3v3h3v3h3v3h3v3h3v3h-9v3h3v6h3v6h-3v3zm0-3 3-.002v-6L21 39v-6.003L18 33v-6h6v-3.003L21 24v-3.001L18 21v-3.003L15 18v-3.002L12 15v-3.002L9 12V8.998L6 9V5.998L3 6v30h3v-3h3v-3h3v3h3v6h3v6z"/><path fill="#fff" fill-rule="evenodd" d="M24 44.998 18 45v-6h-3v-6h-3v-3H9v3H6v3H3V6l3-.002V9l3-.002V12l3-.002V15l3-.002V18l3-.003V21l3-.003V24l3-.002V27h-6v6l3-.002V39l3-.002z" clip-rule="evenodd"/></svg>