<svg xmlns="http://www.w3.org/2000/svg" width="32" height="32" data-hotspot-x="19.5" data-hotspot-y="3.1" viewBox="0 0 32 32"><path fill="url(#a)" d="M21.572 6.66c.126 1.058-.063 1.734-.309 2.133 2.029.56 3.879 1.974 4.743 3.82.625 1.532.66 3.359.192 5.027 2.483 1.207 4.302 3.907 4.302 6.789 0 3.722-2.723 6.399-6.574 6.624v.016H8.53v-.004C3.76 30.95 1.5 27.75 1.5 24.023c0-2.494 2.149-5.47 4.549-6.49-.002-.22.02-.387.056-.512-.929-1.88.021-3.78.618-4.5l.227-.294.01-.013c.83-1.083 1.331-1.736 4.895-3.279 3.887-1.683 5.269-3.336 5.8-4.006.146-.184.281-.425.42-.672.366-.652.763-1.358 1.478-1.245.987.156 1.761 1.465 2.02 3.647"/><path fill="url(#b)" fill-opacity="0.3" d="M21.572 6.66c.126 1.058-.063 1.734-.309 2.133 2.029.56 3.879 1.974 4.743 3.82.625 1.532.66 3.359.192 5.027 2.483 1.207 4.302 3.907 4.302 6.789 0 3.722-2.723 6.399-6.574 6.624v.016H8.53v-.004C3.76 30.95 1.5 27.75 1.5 24.023c0-2.494 2.149-5.47 4.549-6.49-.002-.22.02-.387.056-.512-.929-1.88.021-3.78.618-4.5l.227-.294.01-.013c.83-1.083 1.331-1.736 4.895-3.279 3.887-1.683 5.269-3.336 5.8-4.006.146-.184.281-.425.42-.672.366-.652.763-1.358 1.478-1.245.987.156 1.761 1.465 2.02 3.647"/><path fill="url(#c)" d="M21.572 6.66c.126 1.058-.063 1.734-.309 2.133 2.029.56 3.879 1.974 4.743 3.82.625 1.532.66 3.359.192 5.027 2.483 1.207 4.302 3.907 4.302 6.789 0 3.722-2.723 6.399-6.574 6.624v.016H8.53v-.004C3.76 30.95 1.5 27.75 1.5 24.023c0-2.494 2.149-5.47 4.549-6.49-.002-.22.02-.387.056-.512-.929-1.88.021-3.78.618-4.5l.227-.294.01-.013c.83-1.083 1.331-1.736 4.895-3.279 3.887-1.683 5.269-3.336 5.8-4.006.146-.184.281-.425.42-.672.366-.652.763-1.358 1.478-1.245.987.156 1.761 1.465 2.02 3.647"/><path fill="url(#d)" d="M21.572 6.66c.126 1.058-.063 1.734-.309 2.133 2.029.56 3.879 1.974 4.743 3.82.625 1.532.66 3.359.192 5.027 2.483 1.207 4.302 3.907 4.302 6.789 0 3.722-2.723 6.399-6.574 6.624v.016H8.53v-.004C3.76 30.95 1.5 27.75 1.5 24.023c0-2.494 2.149-5.47 4.549-6.49-.002-.22.02-.387.056-.512-.929-1.88.021-3.78.618-4.5l.227-.294.01-.013c.83-1.083 1.331-1.736 4.895-3.279 3.887-1.683 5.269-3.336 5.8-4.006.146-.184.281-.425.42-.672.366-.652.763-1.358 1.478-1.245.987.156 1.761 1.465 2.02 3.647"/><path fill="url(#e)" fill-opacity="0.8" d="M21.572 6.66c.126 1.058-.063 1.734-.309 2.133 2.029.56 3.879 1.974 4.743 3.82.625 1.532.66 3.359.192 5.027 2.483 1.207 4.302 3.907 4.302 6.789 0 3.722-2.723 6.399-6.574 6.624v.016H8.53v-.004C3.76 30.95 1.5 27.75 1.5 24.023c0-2.494 2.149-5.47 4.549-6.49-.002-.22.02-.387.056-.512-.929-1.88.021-3.78.618-4.5l.227-.294.01-.013c.83-1.083 1.331-1.736 4.895-3.279 3.887-1.683 5.269-3.336 5.8-4.006.146-.184.281-.425.42-.672.366-.652.763-1.358 1.478-1.245.987.156 1.761 1.465 2.02 3.647"/><path fill="url(#f)" d="M21.572 6.66c.126 1.058-.063 1.734-.309 2.133 2.029.56 3.879 1.974 4.743 3.82.625 1.532.66 3.359.192 5.027 2.483 1.207 4.302 3.907 4.302 6.789 0 3.722-2.723 6.399-6.574 6.624v.016H8.53v-.004C3.76 30.95 1.5 27.75 1.5 24.023c0-2.494 2.149-5.47 4.549-6.49-.002-.22.02-.387.056-.512-.929-1.88.021-3.78.618-4.5l.227-.294.01-.013c.83-1.083 1.331-1.736 4.895-3.279 3.887-1.683 5.269-3.336 5.8-4.006.146-.184.281-.425.42-.672.366-.652.763-1.358 1.478-1.245.987.156 1.761 1.465 2.02 3.647"/><path fill="url(#g)" d="M21.572 6.66c.126 1.058-.063 1.734-.309 2.133 2.029.56 3.879 1.974 4.743 3.82.625 1.532.66 3.359.192 5.027 2.483 1.207 4.302 3.907 4.302 6.789 0 3.722-2.723 6.399-6.574 6.624v.016H8.53v-.004C3.76 30.95 1.5 27.75 1.5 24.023c0-2.494 2.149-5.47 4.549-6.49-.002-.22.02-.387.056-.512-.929-1.88.021-3.78.618-4.5l.227-.294.01-.013c.83-1.083 1.331-1.736 4.895-3.279 3.887-1.683 5.269-3.336 5.8-4.006.146-.184.281-.425.42-.672.366-.652.763-1.358 1.478-1.245.987.156 1.761 1.465 2.02 3.647"/><path fill="url(#h)" d="M21.572 6.66c.126 1.058-.063 1.734-.309 2.133 2.029.56 3.879 1.974 4.743 3.82.625 1.532.66 3.359.192 5.027 2.483 1.207 4.302 3.907 4.302 6.789 0 3.722-2.723 6.399-6.574 6.624v.016H8.53v-.004C3.76 30.95 1.5 27.75 1.5 24.023c0-2.494 2.149-5.47 4.549-6.49-.002-.22.02-.387.056-.512-.929-1.88.021-3.78.618-4.5l.227-.294.01-.013c.83-1.083 1.331-1.736 4.895-3.279 3.887-1.683 5.269-3.336 5.8-4.006.146-.184.281-.425.42-.672.366-.652.763-1.358 1.478-1.245.987.156 1.761 1.465 2.02 3.647"/><path fill="url(#i)" d="M21.572 6.66c.126 1.058-.063 1.734-.309 2.133 2.029.56 3.879 1.974 4.743 3.82.625 1.532.66 3.359.192 5.027 2.483 1.207 4.302 3.907 4.302 6.789 0 3.722-2.723 6.399-6.574 6.624v.016H8.53v-.004C3.76 30.95 1.5 27.75 1.5 24.023c0-2.494 2.149-5.47 4.549-6.49-.002-.22.02-.387.056-.512-.929-1.88.021-3.78.618-4.5l.227-.294.01-.013c.83-1.083 1.331-1.736 4.895-3.279 3.887-1.683 5.269-3.336 5.8-4.006.146-.184.281-.425.42-.672.366-.652.763-1.358 1.478-1.245.987.156 1.761 1.465 2.02 3.647"/><path fill="url(#j)" d="M21.572 6.66c.126 1.058-.063 1.734-.309 2.133 2.029.56 3.879 1.974 4.743 3.82.625 1.532.66 3.359.192 5.027 2.483 1.207 4.302 3.907 4.302 6.789 0 3.722-2.723 6.399-6.574 6.624v.016H8.53v-.004C3.76 30.95 1.5 27.75 1.5 24.023c0-2.494 2.149-5.47 4.549-6.49-.002-.22.02-.387.056-.512-.929-1.88.021-3.78.618-4.5l.227-.294.01-.013c.83-1.083 1.331-1.736 4.895-3.279 3.887-1.683 5.269-3.336 5.8-4.006.146-.184.281-.425.42-.672.366-.652.763-1.358 1.478-1.245.987.156 1.761 1.465 2.02 3.647"/><path fill="url(#k)" d="M21.572 6.66c.126 1.058-.063 1.734-.309 2.133 2.029.56 3.879 1.974 4.743 3.82.625 1.532.66 3.359.192 5.027 2.483 1.207 4.302 3.907 4.302 6.789 0 3.722-2.723 6.399-6.574 6.624v.016H8.53v-.004C3.76 30.95 1.5 27.75 1.5 24.023c0-2.494 2.149-5.47 4.549-6.49-.002-.22.02-.387.056-.512-.929-1.88.021-3.78.618-4.5l.227-.294.01-.013c.83-1.083 1.331-1.736 4.895-3.279 3.887-1.683 5.269-3.336 5.8-4.006.146-.184.281-.425.42-.672.366-.652.763-1.358 1.478-1.245.987.156 1.761 1.465 2.02 3.647"/><path fill="url(#l)" d="M21.572 6.66c.126 1.058-.063 1.734-.309 2.133 2.029.56 3.879 1.974 4.743 3.82.625 1.532.66 3.359.192 5.027 2.483 1.207 4.302 3.907 4.302 6.789 0 3.722-2.723 6.399-6.574 6.624v.016H8.53v-.004C3.76 30.95 1.5 27.75 1.5 24.023c0-2.494 2.149-5.47 4.549-6.49-.002-.22.02-.387.056-.512-.929-1.88.021-3.78.618-4.5l.227-.294.01-.013c.83-1.083 1.331-1.736 4.895-3.279 3.887-1.683 5.269-3.336 5.8-4.006.146-.184.281-.425.42-.672.366-.652.763-1.358 1.478-1.245.987.156 1.761 1.465 2.02 3.647"/><path fill="url(#m)" d="M21.572 6.66c.126 1.058-.063 1.734-.309 2.133 2.029.56 3.879 1.974 4.743 3.82.625 1.532.66 3.359.192 5.027 2.483 1.207 4.302 3.907 4.302 6.789 0 3.722-2.723 6.399-6.574 6.624v.016H8.53v-.004C3.76 30.95 1.5 27.75 1.5 24.023c0-2.494 2.149-5.47 4.549-6.49-.002-.22.02-.387.056-.512-.929-1.88.021-3.78.618-4.5l.227-.294.01-.013c.83-1.083 1.331-1.736 4.895-3.279 3.887-1.683 5.269-3.336 5.8-4.006.146-.184.281-.425.42-.672.366-.652.763-1.358 1.478-1.245.987.156 1.761 1.465 2.02 3.647"/><path fill="url(#n)" d="M21.572 6.66c.126 1.058-.063 1.734-.309 2.133 2.029.56 3.879 1.974 4.743 3.82.625 1.532.66 3.359.192 5.027 2.483 1.207 4.302 3.907 4.302 6.789 0 3.722-2.723 6.399-6.574 6.624v.016H8.53v-.004C3.76 30.95 1.5 27.75 1.5 24.023c0-2.494 2.149-5.47 4.549-6.49-.002-.22.02-.387.056-.512-.929-1.88.021-3.78.618-4.5l.227-.294.01-.013c.83-1.083 1.331-1.736 4.895-3.279 3.887-1.683 5.269-3.336 5.8-4.006.146-.184.281-.425.42-.672.366-.652.763-1.358 1.478-1.245.987.156 1.761 1.465 2.02 3.647"/><path fill="url(#o)" d="M21.572 6.66c.126 1.058-.063 1.734-.309 2.133 2.029.56 3.879 1.974 4.743 3.82.625 1.532.66 3.359.192 5.027 2.483 1.207 4.302 3.907 4.302 6.789 0 3.722-2.723 6.399-6.574 6.624v.016H8.53v-.004C3.76 30.95 1.5 27.75 1.5 24.023c0-2.494 2.149-5.47 4.549-6.49-.002-.22.02-.387.056-.512-.929-1.88.021-3.78.618-4.5l.227-.294.01-.013c.83-1.083 1.331-1.736 4.895-3.279 3.887-1.683 5.269-3.336 5.8-4.006.146-.184.281-.425.42-.672.366-.652.763-1.358 1.478-1.245.987.156 1.761 1.465 2.02 3.647"/><path fill="url(#p)" d="M21.572 6.66c.126 1.058-.063 1.734-.309 2.133 2.029.56 3.879 1.974 4.743 3.82.625 1.532.66 3.359.192 5.027 2.483 1.207 4.302 3.907 4.302 6.789 0 3.722-2.723 6.399-6.574 6.624v.016H8.53v-.004C3.76 30.95 1.5 27.75 1.5 24.023c0-2.494 2.149-5.47 4.549-6.49-.002-.22.02-.387.056-.512-.929-1.88.021-3.78.618-4.5l.227-.294.01-.013c.83-1.083 1.331-1.736 4.895-3.279 3.887-1.683 5.269-3.336 5.8-4.006.146-.184.281-.425.42-.672.366-.652.763-1.358 1.478-1.245.987.156 1.761 1.465 2.02 3.647"/><path fill="url(#q)" d="M21.572 6.66c.126 1.058-.063 1.734-.309 2.133 2.029.56 3.879 1.974 4.743 3.82.625 1.532.66 3.359.192 5.027 2.483 1.207 4.302 3.907 4.302 6.789 0 3.722-2.723 6.399-6.574 6.624v.016H8.53v-.004C3.76 30.95 1.5 27.75 1.5 24.023c0-2.494 2.149-5.47 4.549-6.49-.002-.22.02-.387.056-.512-.929-1.88.021-3.78.618-4.5l.227-.294.01-.013c.83-1.083 1.331-1.736 4.895-3.279 3.887-1.683 5.269-3.336 5.8-4.006.146-.184.281-.425.42-.672.366-.652.763-1.358 1.478-1.245.987.156 1.761 1.465 2.02 3.647"/><path fill="url(#r)" d="M21.572 6.66c.126 1.058-.063 1.734-.309 2.133 2.029.56 3.879 1.974 4.743 3.82.625 1.532.66 3.359.192 5.027 2.483 1.207 4.302 3.907 4.302 6.789 0 3.722-2.723 6.399-6.574 6.624v.016H8.53v-.004C3.76 30.95 1.5 27.75 1.5 24.023c0-2.494 2.149-5.47 4.549-6.49-.002-.22.02-.387.056-.512-.929-1.88.021-3.78.618-4.5l.227-.294.01-.013c.83-1.083 1.331-1.736 4.895-3.279 3.887-1.683 5.269-3.336 5.8-4.006.146-.184.281-.425.42-.672.366-.652.763-1.358 1.478-1.245.987.156 1.761 1.465 2.02 3.647"/><path fill="url(#s)" d="M20.225 10.91c-.213.546-4.54 1.781-6.18 1.298-1.595-.261-1.25-1.465-.136-2.87 1.64-2.07 4.946-4.579 6.175-5.165.962-.459 1.387 1.815 1.393 1.85.19 1.096.183 1.727-.034 2.39-.184.562-.858 1.831-1.218 2.498"/><path fill="url(#t)" fill-opacity="0.4" d="M20.225 10.91c-.213.546-4.54 1.781-6.18 1.298-1.595-.261-1.25-1.465-.136-2.87 1.64-2.07 4.946-4.579 6.175-5.165.962-.459 1.387 1.815 1.393 1.85.19 1.096.183 1.727-.034 2.39-.184.562-.858 1.831-1.218 2.498"/><path fill="url(#u)" d="M20.225 10.91c-.213.546-4.54 1.781-6.18 1.298-1.595-.261-1.25-1.465-.136-2.87 1.64-2.07 4.946-4.579 6.175-5.165.962-.459 1.387 1.815 1.393 1.85.19 1.096.183 1.727-.034 2.39-.184.562-.858 1.831-1.218 2.498"/><path fill="url(#v)" d="M12.125 25.159h7.906c0 2.379-1.77 3.918-3.953 3.918s-3.953-1.476-3.953-3.918"/><path fill="#fff" fill-rule="evenodd" d="M15.085 19.619a4.485 4.485 0 1 1-8.97 0 4.485 4.485 0 0 1 8.97 0m10.899 0a4.485 4.485 0 1 1-8.97 0 4.485 4.485 0 0 1 8.97 0" clip-rule="evenodd"/><path fill="url(#w)" fill-rule="evenodd" d="M11.515 22.131a2.483 2.483 0 1 0 0-4.967 2.483 2.483 0 0 0 0 4.967m9.011 0a2.483 2.483 0 1 0 0-4.967 2.483 2.483 0 0 0 0 4.967" clip-rule="evenodd"/><defs><radialGradient id="b" cx="0" cy="0" r="1" gradientTransform="matrix(0 1.93279 -1.99692 0 16 19.316)" gradientUnits="userSpaceOnUse"><stop stop-color="#822079"/><stop offset="1" stop-color="#B20597" stop-opacity="0"/></radialGradient><radialGradient id="d" cx="0" cy="0" r="1" gradientTransform="rotate(45 -9.262 40.408)scale(.78907 .93419)" gradientUnits="userSpaceOnUse"><stop stop-color="#D9D9D9" stop-opacity="0.54"/><stop offset="0.523361" stop-color="#D9D9D9" stop-opacity="0.180621"/><stop offset="0.950459" stop-color="#D9D9D9" stop-opacity="0"/><stop offset="1" stop-color="#D9D9D9" stop-opacity="0"/></radialGradient><radialGradient id="e" cx="0" cy="0" r="1" gradientTransform="rotate(73.544 2.953 21.463)scale(5.19048 14.2032)" gradientUnits="userSpaceOnUse"><stop stop-color="#DD978A" stop-opacity="0.74"/><stop offset="0.358065" stop-color="#DD978A" stop-opacity="0.414208"/><stop offset="0.616525" stop-color="#DD978A" stop-opacity="0"/></radialGradient><radialGradient id="f" cx="0" cy="0" r="1" gradientTransform="matrix(4.5301 -.25522 .61006 10.82863 9.893 15.736)" gradientUnits="userSpaceOnUse"><stop stop-color="#754238"/><stop offset="1" stop-color="#7B4A40" stop-opacity="0"/></radialGradient><radialGradient id="g" cx="0" cy="0" r="1" gradientTransform="matrix(1.16215 5.2581 -16.89105 3.73328 23.649 23.203)" gradientUnits="userSpaceOnUse"><stop stop-color="#F7B8AC" stop-opacity="0.58"/><stop offset="0.817924" stop-color="#E09B8E" stop-opacity="0.0793759"/><stop offset="1" stop-color="#DD978A" stop-opacity="0"/></radialGradient><radialGradient id="h" cx="0" cy="0" r="1" gradientTransform="matrix(-5.56339 0 0 -5.74798 20.89 19.882)" gradientUnits="userSpaceOnUse"><stop offset="0.529939" stop-color="#57292C"/><stop offset="0.90777" stop-color="#57292C" stop-opacity="0.0881993"/><stop offset="1" stop-color="#57292C" stop-opacity="0"/></radialGradient><radialGradient id="i" cx="0" cy="0" r="1" gradientTransform="matrix(-5.22533 0 0 -5.39871 10.054 19.882)" gradientUnits="userSpaceOnUse"><stop offset="0.529939" stop-color="#57292C"/><stop offset="0.90777" stop-color="#57292C" stop-opacity="0.0881993"/><stop offset="1" stop-color="#57292C" stop-opacity="0"/></radialGradient><radialGradient id="j" cx="0" cy="0" r="1" gradientTransform="rotate(-141.79 8.29 3.52)scale(1.55639 .47514)" gradientUnits="userSpaceOnUse"><stop stop-color="#C29186"/><stop offset="0.347247" stop-color="#BC897E" stop-opacity="0.729175"/><stop offset="0.826943" stop-color="#AD776B" stop-opacity="0.134854"/><stop offset="1" stop-color="#AA7367" stop-opacity="0"/></radialGradient><radialGradient id="k" cx="0" cy="0" r="1" gradientTransform="matrix(.55122 .84848 -1.85573 1.20559 20.441 10.438)" gradientUnits="userSpaceOnUse"><stop offset="0.122629" stop-color="#622C27"/><stop offset="0.388556" stop-color="#6C3730" stop-opacity="0.78712"/><stop offset="1" stop-color="#916053" stop-opacity="0"/></radialGradient><radialGradient id="l" cx="0" cy="0" r="1" gradientTransform="rotate(71.664 1.34 16.128)scale(2.66256 6.08868)" gradientUnits="userSpaceOnUse"><stop stop-color="#DD978A" stop-opacity="0.78"/><stop offset="0.656425" stop-color="#DD978A" stop-opacity="0.199397"/><stop offset="1" stop-color="#DD978A" stop-opacity="0"/></radialGradient><radialGradient id="m" cx="0" cy="0" r="1" gradientTransform="matrix(2.0668 1.18841 -2.71765 4.72635 19.318 8.78)" gradientUnits="userSpaceOnUse"><stop stop-color="#DD978A" stop-opacity="0.78"/><stop offset="0.656425" stop-color="#DD978A" stop-opacity="0.199397"/><stop offset="0.867912" stop-color="#DD978A" stop-opacity="0.0507554"/><stop offset="1" stop-color="#DD978A" stop-opacity="0"/></radialGradient><radialGradient id="n" cx="0" cy="0" r="1" gradientTransform="rotate(-30.018 52.485 3.512)scale(2.45416 4.3786)" gradientUnits="userSpaceOnUse"><stop stop-color="#774E46" stop-opacity="0.47"/><stop offset="0.331235" stop-color="#774E46" stop-opacity="0.575871"/><stop offset="1" stop-color="#774E46" stop-opacity="0"/></radialGradient><radialGradient id="o" cx="0" cy="0" r="1" gradientTransform="matrix(2.1672 .04072 -.09432 5.01933 3.82 22.95)" gradientUnits="userSpaceOnUse"><stop stop-color="#774E46" stop-opacity="0.37"/><stop offset="0.225486" stop-color="#774E46" stop-opacity="0.46"/><stop offset="1" stop-color="#774E46" stop-opacity="0"/></radialGradient><radialGradient id="p" cx="0" cy="0" r="1" gradientTransform="rotate(107.167 2.604 11.703)scale(1.51953 5.72417)" gradientUnits="userSpaceOnUse"><stop stop-color="#B07366"/><stop offset="0.734468" stop-color="#AD7367" stop-opacity="0.185385"/><stop offset="1" stop-color="#AC7367" stop-opacity="0"/></radialGradient><radialGradient id="q" cx="0" cy="0" r="1" gradientTransform="rotate(84.472 2.046 16.266)scale(1.22741 4.62324)" gradientUnits="userSpaceOnUse"><stop stop-color="#C47E70"/><stop offset="0.704725" stop-color="#C47E70" stop-opacity="0.19827"/><stop offset="1" stop-color="#C47E70" stop-opacity="0"/></radialGradient><radialGradient id="r" cx="0" cy="0" r="1" gradientTransform="matrix(.33398 .83496 -3.145 1.258 19.74 12.113)" gradientUnits="userSpaceOnUse"><stop stop-color="#C47E70"/><stop offset="0.704725" stop-color="#C47E70" stop-opacity="0.19827"/><stop offset="1" stop-color="#C47E70" stop-opacity="0"/></radialGradient><radialGradient id="s" cx="0" cy="0" r="1" gradientTransform="matrix(-8.80632 7.20122 -3.29838 -4.03356 16.592 7.641)" gradientUnits="userSpaceOnUse"><stop offset="0.407685" stop-color="#905243" stop-opacity="0"/><stop offset="1" stop-color="#6C3E31"/></radialGradient><radialGradient id="u" cx="0" cy="0" r="1" gradientTransform="rotate(60.732 3.609 17.445)scale(5.97276 8.96174)" gradientUnits="userSpaceOnUse"><stop offset="0.652349" stop-color="#965B4F" stop-opacity="0"/><stop offset="1" stop-color="#653120"/></radialGradient><linearGradient id="a" x1="16" x2="16" y1="3" y2="31.7233" gradientUnits="userSpaceOnUse"><stop stop-color="#A66150"/><stop offset="0.750104" stop-color="#A66150"/><stop offset="0.906704" stop-color="#883854"/><stop offset="0.976674" stop-color="#6A2B4C"/></linearGradient><linearGradient id="c" x1="0.835954" x2="16" y1="15.7554" y2="31.0687" gradientUnits="userSpaceOnUse"><stop stop-color="#7C574F"/><stop offset="0.277322" stop-color="#7C574F" stop-opacity="0"/></linearGradient><linearGradient id="t" x1="17.913" x2="17.4982" y1="12.0678" y2="10.4362" gradientUnits="userSpaceOnUse"><stop stop-color="#220404"/><stop offset="1" stop-color="#390808" stop-opacity="0"/></linearGradient><linearGradient id="v" x1="16.0781" x2="16.0781" y1="29.7249" y2="24.5374" gradientUnits="userSpaceOnUse"><stop stop-color="#DB0C8A"/><stop offset="1" stop-color="#8A077D"/></linearGradient><linearGradient id="w" x1="18.4336" x2="17.7975" y1="16.3365" y2="22.1802" gradientUnits="userSpaceOnUse"><stop stop-color="#553B3E"/><stop offset="1" stop-color="#3D2432"/></linearGradient></defs></svg>