<svg xmlns="http://www.w3.org/2000/svg" width="32" height="32" data-hotspot-x="31" data-hotspot-y="1" viewBox="0 0 32 32"><path fill="url(#a)" d="M23.46 8.972q.3-1.1.677-2.129.38-1.03.94-2 .488-.846 1.022-1.522.562-.683 1.142-1.188a7.6 7.6 0 0 1 1.39-.996q.752-.43 1.406-.605.67-.165.994.023.432.249.305 2.215a8 8 0 0 1-.409 1.995q-.34 1.004-.931 2.03a11.4 11.4 0 0 1-1.817 2.357 11 11 0 0 1-2.38 1.794 9.6 9.6 0 0 1-2.697 1.058l-1.116 3.386q.29.12.481.206.19.085.28.138a3.75 3.75 0 0 1 1.598 1.762q.51 1.11.433 2.41a5.5 5.5 0 0 1-.756 2.514q-.8 1.385-2.164 2.085-1.335.693-3.059.394-.086.358-.953 2.857-.204.6-.326.939a8 8 0 0 1-.25.6 8 8 0 0 1-.294.55q-.519.9-1.375 1.341a3.4 3.4 0 0 1-1.831.43q-.967-.03-1.884-.56-.936-.54-1.448-1.315a3.14 3.14 0 0 1-.573-1.627q-.06-.85.407-1.66.5-.864 1.3-1.17.817-.295 1.7.214.755.435.911 1.246.164.839-.272 1.594-.375.648-1.105.874-.73.227-1.45-.19l-.18-.103q.063.972 1.07 1.554 1.242.717 2.411.312t1.897-1.664q.177-.306.406-.87.219-.545.454-1.369.236-.823.398-1.353.18-.52.259-.739-.717-.173-1.544-.651-1.547-.894-2.504-2.645a7.53 7.53 0 0 1-.895-3.684 7.4 7.4 0 0 1 1.01-3.663 7.5 7.5 0 0 1 2.494-2.616 14.2 14.2 0 0 1 3.324-1.56 77 77 0 0 1 3.505-1m.746-.17q.539.023 1.339-.282.81-.324 1.679-.83a11 11 0 0 0 1.574-1.107q.717-.618 1.07-1.23.374-.646.394-1.14.021-.492-.465-.772-.432-.249-1.075-.093-.624.168-1.332.646a8 8 0 0 0-1.328 1.178q-.647.705-1.135 1.551a5.4 5.4 0 0 0-.495 1.106q-.144.54-.226.973m-3.618 8.636a2.5 2.5 0 0 0-1.188-.062 3.1 3.1 0 0 0-1.19.44 2.6 2.6 0 0 0-.855.899q-.26.45-.306 1.07-.037.604.14 1.089.108.351.28.594.198.282.135.39-.03.054-.242.004a3.6 3.6 0 0 1-.888-1.329 4 4 0 0 1-.24-1.578q.068-.825.483-1.544a4.4 4.4 0 0 1 1.168-1.317 5.2 5.2 0 0 1 1.63-.787 4.4 4.4 0 0 1 1.794-.116l1.047-3.018q-3.064.487-4.999 1.552-1.907 1.06-2.831 2.66a4.76 4.76 0 0 0-.646 2.53q.03 1.362.728 2.605.71 1.224 2.04 1.993.36.208.762.344.42.146.895.277zm-1.62 6.838q2.2.263 3.55-2.077.446-.774.414-1.632a3.35 3.35 0 0 0-.47-1.639 3.43 3.43 0 0 0-1.275-1.24z"/><defs><linearGradient id="a" x1="29.7446" x2="11.7507" y1="-0.188238" y2="30.9782" gradientUnits="userSpaceOnUse"><stop stop-color="#541A36"/><stop offset="0.5" stop-color="#D63960"/><stop offset="0.845" stop-color="#FFE8CD"/><stop offset="1" stop-color="#F6B386"/></linearGradient></defs></svg>