<svg width="16" height="16" viewBox="0 0 16 16" xmlns="http://www.w3.org/2000/svg">
	<path d="M10.8916 14.1182C10.8216 14.3701 10.6815 14.5801 10.4717 14.748C10.2757 14.916 10.0368 15 9.75684 15H6.81738C6.52344 15 6.2715 14.916 6.06152 14.748C5.86557 14.5801 5.73962 14.3701 5.68359 14.1182L1.85645 1H5.15625L7.67871 10.9678C7.73471 11.2338 7.79068 11.5071 7.84668 11.7871C7.91666 12.0531 7.97266 12.319 8.01465 12.585H8.56055C8.60254 12.319 8.65104 12.0456 8.70703 11.7656C8.77698 11.4858 8.84704 11.2131 8.91699 10.9473L11.4189 1H14.6963L10.8916 14.1182Z" />
</svg>
