<svg width="16" height="16" viewBox="0 0 16 16" xmlns="http://www.w3.org/2000/svg">
	<path d="M15.5 6C15.2239 6 15 6.22386 15 6.5V12.5C15 13.8807 13.8807 15 12.5 15H6.5C6.22386 15 6 15.2239 6 15.5C6 15.7761 6.22386 16 6.5 16H12.5C14.433 16 16 14.433 16 12.5V6.5C16 6.22386 15.7761 6 15.5 6Z" />
	<path d="M0.5 11C0.223858 11 4.02663e-09 11.2239 0 11.5V13C0 14.6569 1.34315 16 3 16H4.5C4.77614 16 5 15.7761 5 15.5V12C5 11.4477 4.55228 11 4 11H0.5Z" />
	<path d="M6.5 5.5C5.94772 5.5 5.5 5.94772 5.5 6.5V9.5C5.5 10.0523 5.94772 10.5 6.5 10.5H9.5C10.0523 10.5 10.5 10.0523 10.5 9.5V6.5C10.5 5.94772 10.0523 5.5 9.5 5.5H6.5Z" />
	<path d="M3.5 0C1.567 0 4.83192e-08 1.567 0 3.5V9.5C0 9.77614 0.223858 10 0.5 10C0.776142 10 1 9.77614 1 9.5V3.5C1 2.11929 2.11929 1 3.5 1H9.5C9.77614 1 10 0.776142 10 0.5C10 0.223858 9.77614 0 9.5 0H3.5Z" />
	<path d="M11.5 0C11.2239 6.44255e-08 11 0.223858 11 0.5V4C11 4.55228 11.4477 5 12 5H15.5C15.7761 5 16 4.77614 16 4.5V3C16 1.34315 14.6569 6.44255e-08 13 0H11.5Z" />
</svg>
