<svg width="16" height="16" viewBox="0 0 16 16" xmlns="http://www.w3.org/2000/svg">
	<path d="M0.5 6C0.776142 6 1 6.22386 1 6.5V12.5C1 13.8807 2.11929 15 3.5 15H9.5C9.77614 15 10 15.2239 10 15.5C10 15.7761 9.77614 16 9.5 16H3.5C1.567 16 4.83192e-08 14.433 0 12.5V6.5C0 6.22386 0.223858 6 0.5 6Z" />
	<path d="M15.5 11C15.7761 11 16 11.2239 16 11.5V13C16 14.6569 14.6569 16 13 16H11.5C11.2239 16 11 15.7761 11 15.5V12C11 11.4477 11.4477 11 12 11H15.5Z" />
	<path d="M9.5 5.5C10.0523 5.5 10.5 5.94772 10.5 6.5V9.5C10.5 10.0523 10.0523 10.5 9.5 10.5H6.5C5.94772 10.5 5.5 10.0523 5.5 9.5V6.5C5.5 5.94772 5.94772 5.5 6.5 5.5H9.5Z" />
	<path d="M12.5 0C14.433 0 16 1.567 16 3.5V9.5C16 9.77614 15.7761 10 15.5 10C15.2239 10 15 9.77614 15 9.5V3.5C15 2.11929 13.8807 1 12.5 1H6.5C6.22386 1 6 0.776142 6 0.5C6 0.223858 6.22386 0 6.5 0H12.5Z" />
	<path d="M4.5 0C4.77614 6.44255e-08 5 0.223858 5 0.5V4C5 4.55228 4.55228 5 4 5H0.5C0.223858 5 4.02663e-09 4.77614 0 4.5V3C0 1.34315 1.34315 6.44255e-08 3 0H4.5Z" />
</svg>
