<svg width="16" height="16" viewBox="0 0 16 16" xmlns="http://www.w3.org/2000/svg">
	<path fill-rule="evenodd" clip-rule="evenodd" d="M13 0C14.6569 0 16 1.34315 16 3V13C16 14.6569 14.6569 16 13 16H3L2.8457 15.9961C1.26055 15.9158 0 14.6051 0 13V3C0 1.34315 1.34315 0 3 0H13ZM3 1C1.89543 1 1 1.89543 1 3V4.5C1 5.05228 1.44772 5.5 2 5.5H4C4.82843 5.5 5.5 6.17157 5.5 7V9C5.5 9.82843 4.82843 10.5 4 10.5H2C1.44772 10.5 1 10.9477 1 11.5V13C1 14.1046 1.89543 15 3 15H4.5C5.05228 15 5.5 14.5523 5.5 14V12C5.5 11.1716 6.17157 10.5 7 10.5H9C9.82843 10.5 10.5 11.1716 10.5 12V14C10.5 14.5523 10.9477 15 11.5 15H13C14.1046 15 15 14.1046 15 13V11.5C15 10.9477 14.5523 10.5 14 10.5H12C11.1716 10.5 10.5 9.82843 10.5 9V7C10.5 6.17157 11.1716 5.5 12 5.5H14C14.5523 5.5 15 5.05228 15 4.5V3C15 1.89543 14.1046 1 13 1H11.5C10.9477 1 10.5 1.44772 10.5 2V4C10.5 4.82843 9.82843 5.5 9 5.5H7C6.17157 5.5 5.5 4.82843 5.5 4V2C5.5 1.44772 5.05228 1 4.5 1H3Z" />
</svg>
