<svg width="16" height="16" viewBox="0 0 16 16" xmlns="http://www.w3.org/2000/svg">
	<path fill-rule="evenodd" clip-rule="evenodd" d="M2.5 3H1.5C0.947715 3 0.5 3.44772 0.5 4V12C0.5 12.5523 0.947715 13 1.5 13H2.5C3.05228 13 3.5 12.5523 3.5 12V4C3.5 3.44772 3.05228 3 2.5 3ZM1.5 2C0.395431 2 -0.5 2.89543 -0.5 4V12C-0.5 13.1046 0.39543 14 1.5 14H2.5C3.60457 14 4.5 13.1046 4.5 12V4C4.5 2.89543 3.60457 2 2.5 2H1.5Z" />
	<path d="M5.5 4C5.5 2.89543 6.39543 2 7.5 2H8.5C9.60457 2 10.5 2.89543 10.5 4V12C10.5 13.1046 9.60457 14 8.5 14H7.5C6.39543 14 5.5 13.1046 5.5 12V4Z" />
	<path fill-rule="evenodd" clip-rule="evenodd" d="M14.5 3H13.5C12.9477 3 12.5 3.44772 12.5 4V12C12.5 12.5523 12.9477 13 13.5 13H14.5C15.0523 13 15.5 12.5523 15.5 12V4C15.5 3.44772 15.0523 3 14.5 3ZM13.5 2C12.3954 2 11.5 2.89543 11.5 4V12C11.5 13.1046 12.3954 14 13.5 14H14.5C15.6046 14 16.5 13.1046 16.5 12V4C16.5 2.89543 15.6046 2 14.5 2H13.5Z" />
</svg>
