<svg width="16" height="16" viewBox="0 0 16 16" xmlns="http://www.w3.org/2000/svg">
	<path d="M12 6C11.4477 6 11 6.44772 11 7V10C11 10.5523 10.5523 11 10 11H7C6.44772 11 6 11.4477 6 12V15C6 15.5523 6.44772 16 7 16H13C14.6569 16 16 14.6569 16 13V7C16 6.44772 15.5523 6 15 6H12Z" />
	<path d="M0.5 11C0.223858 11 0 11.2239 0 11.5V12.5C0 14.433 1.567 16 3.5 16H4.5C4.77614 16 5 15.7761 5 15.5C5 15.2239 4.77614 15 4.5 15H3.5C2.11929 15 1 13.8807 1 12.5V11.5C1 11.2239 0.776142 11 0.5 11Z" />
	<path d="M3 0C1.34315 6.44266e-08 6.44256e-08 1.34315 0 3V9C1.28851e-07 9.55228 0.447715 10 1 10H4C4.55228 10 5 9.55228 5 9V6C5 5.44772 5.44772 5 6 5H9C9.55228 5 10 4.55228 10 4V1C10 0.447715 9.55228 8.05325e-09 9 0H3Z" />
	<path d="M11.5 0C11.2239 0 11 0.223858 11 0.5C11 0.776142 11.2239 1 11.5 1H12.5C13.8807 1 15 2.11929 15 3.5V4.5C15 4.77614 15.2239 5 15.5 5C15.7761 5 16 4.77614 16 4.5V3.5C16 1.567 14.433 0 12.5 0H11.5Z" />
</svg>
