<svg width="16" height="16" viewBox="0 0 16 16" xmlns="http://www.w3.org/2000/svg">
	<path fill-rule="evenodd" clip-rule="evenodd" d="M13 0C14.6569 0 16 1.34315 16 3V13C16 14.6569 14.6569 16 13 16H3L2.8457 15.9961C1.26055 15.9158 0 14.6051 0 13V3C0 1.34315 1.34315 0 3 0H13ZM1 13C1 14.1046 1.89543 15 3 15H5C5.55228 15 6 14.5523 6 14V11.5C6 10.6716 5.32843 10 4.5 10H2C1.44772 10 1 10.4477 1 11V13ZM11.5 10C10.6716 10 10 10.6716 10 11.5V14C10 14.5523 10.4477 15 11 15H13C14.1046 15 15 14.1046 15 13V11C15 10.4477 14.5523 10 14 10H11.5ZM10 4.5C10 5.32843 10.6716 6 11.5 6H14C14.5523 6 15 5.55228 15 5V3C15 1.89543 14.1046 1 13 1H11C10.4477 1 10 1.44772 10 2V4.5ZM3 1C1.89543 1 1 1.89543 1 3V5C1 5.55228 1.44772 6 2 6H4.5C5.32843 6 6 5.32843 6 4.5V2C6 1.44772 5.55228 1 5 1H3Z" />
</svg>
