<svg width="16" height="16" viewBox="0 0 16 16" xmlns="http://www.w3.org/2000/svg">
	<path d="M4 6C4.55228 6 5 6.44772 5 7V10C5 10.5523 5.44772 11 6 11H9C9.55228 11 10 11.4477 10 12V15C10 15.5523 9.55228 16 9 16H3C1.34315 16 6.44266e-08 14.6569 0 13V7C1.28851e-07 6.44772 0.447715 6 1 6H4Z" />
	<path d="M15.5 11C15.7761 11 16 11.2239 16 11.5V12.5C16 14.433 14.433 16 12.5 16H11.5C11.2239 16 11 15.7761 11 15.5C11 15.2239 11.2239 15 11.5 15H12.5C13.8807 15 15 13.8807 15 12.5V11.5C15 11.2239 15.2239 11 15.5 11Z" />
	<path d="M13 0C14.6569 6.44266e-08 16 1.34315 16 3V9C16 9.55228 15.5523 10 15 10H12C11.4477 10 11 9.55228 11 9V6C11 5.44772 10.5523 5 10 5H7C6.44772 5 6 4.55228 6 4V1C6 0.447715 6.44772 8.05325e-09 7 0H13Z" />
	<path d="M4.5 0C4.77614 0 5 0.223858 5 0.5C5 0.776142 4.77614 1 4.5 1H3.5C2.11929 1 1 2.11929 1 3.5V4.5C1 4.77614 0.776142 5 0.5 5C0.223858 5 0 4.77614 0 4.5V3.5C0 1.567 1.567 0 3.5 0H4.5Z" />
</svg>
