<svg width="16" height="16" viewBox="0 0 16 16" xmlns="http://www.w3.org/2000/svg">
	<path d="M12 -0.5C13.1046 -0.5 14 0.395431 14 1.5V2.5C14 3.60457 13.1046 4.5 12 4.5H4C2.89543 4.5 2 3.60457 2 2.5V1.5C2 0.39543 2.89543 -0.5 4 -0.5H12Z" />
	<path fill-rule="evenodd" clip-rule="evenodd" d="M13 8.5V7.5C13 6.94772 12.5523 6.5 12 6.5H4C3.44771 6.5 3 6.94772 3 7.5V8.5C3 9.05228 3.44772 9.5 4 9.5H12C12.5523 9.5 13 9.05228 13 8.5ZM14 7.5C14 6.39543 13.1046 5.5 12 5.5H4C2.89543 5.5 2 6.39543 2 7.5V8.5C2 9.60457 2.89543 10.5 4 10.5H12C13.1046 10.5 14 9.60457 14 8.5V7.5Z" />
	<path d="M12 11.5C13.1046 11.5 14 12.3954 14 13.5V14.5C14 15.6046 13.1046 16.5 12 16.5H4C2.89543 16.5 2 15.6046 2 14.5V13.5C2 12.3954 2.89543 11.5 4 11.5H12Z" />
</svg>
