<svg width="16" height="16" viewBox="0 0 16 16" xmlns="http://www.w3.org/2000/svg">
	<path fill-rule="evenodd" clip-rule="evenodd" d="M13 0C14.6569 0 16 1.34315 16 3V13C16 14.6569 14.6569 16 13 16H3C2.76808 16 2.54298 15.9707 2.32617 15.9209C2.28112 15.9105 2.23663 15.8991 2.19238 15.8867C2.14308 15.873 2.09414 15.859 2.0459 15.8428C2.00368 15.8286 1.96225 15.8128 1.9209 15.7969C1.87253 15.7782 1.82447 15.7594 1.77734 15.7383C1.73323 15.7186 1.69041 15.6966 1.64746 15.6748C1.60827 15.6549 1.56943 15.6348 1.53125 15.6133C1.48483 15.5871 1.43938 15.5598 1.39453 15.5312C1.35896 15.5086 1.32359 15.486 1.28906 15.4619C1.24849 15.4337 1.20899 15.4042 1.16992 15.374C1.13229 15.345 1.09478 15.3159 1.05859 15.2852C1.01835 15.2509 0.979779 15.215 0.941406 15.1787C0.914449 15.1532 0.887326 15.128 0.861328 15.1016C0.82141 15.0609 0.783664 15.0184 0.746094 14.9756C0.71854 14.9442 0.690304 14.9134 0.664062 14.8809C0.632227 14.8414 0.60308 14.7999 0.573242 14.7588C0.547875 14.7238 0.521921 14.6894 0.498047 14.6533C0.469021 14.6095 0.442759 14.564 0.416016 14.5186C0.394777 14.4825 0.372292 14.4472 0.352539 14.4102C0.328567 14.3652 0.30785 14.3187 0.286133 14.2725C0.266289 14.2302 0.244466 14.1888 0.226562 14.1455C0.212025 14.1103 0.200724 14.0739 0.1875 14.0381C0.167332 13.9835 0.145933 13.9291 0.128906 13.873C0.119473 13.842 0.113912 13.8098 0.105469 13.7783C0.0388211 13.5298 0 13.2695 0 13V3C0 1.34315 1.34315 0 3 0H13ZM6 4.5C6 5.32843 5.32843 6 4.5 6H2C1.44772 6 1 6.44772 1 7V9C1 9.55228 1.44772 10 2 10H4.5C5.32843 10 6 10.6716 6 11.5V14C6 14.5523 6.44772 15 7 15H9C9.55228 15 10 14.5523 10 14V11.5C10 10.6716 10.6716 10 11.5 10H14C14.5523 10 15 9.55228 15 9V7C15 6.44772 14.5523 6 14 6H11.5C10.6716 6 10 5.32843 10 4.5V2C10 1.44772 9.55228 1 9 1H7C6.44772 1 6 1.44772 6 2V4.5Z" />
</svg>
