<svg width="48" height="48" viewBox="0 0 48 48" fill="none" xmlns="http://www.w3.org/2000/svg">
	<g filter="url(#filter0_dd_1071_223)">
		<path d="M34.914 10.9647C28.2349 5.35951 18.2607 5.69768 11.9792 11.9792C5.69768 18.2607 5.35951 28.2349 10.9647 34.914L34.914 10.9647ZM37.0353 13.086L13.086 37.0353C19.7651 42.6405 29.7393 42.3023 36.0208 36.0208C42.3023 29.7393 42.6405 19.7651 37.0353 13.086ZM9.85786 9.85786C17.6684 2.04738 30.3316 2.04738 38.1421 9.85786C45.9526 17.6683 45.9526 30.3316 38.1421 38.1421C30.3317 45.9526 17.6683 45.9526 9.85786 38.1421C2.04738 30.3316 2.04738 17.6683 9.85786 9.85786Z" fill="url(#paint0_linear_1071_223)"/>
	</g>
	<defs>
		<filter id="filter0_dd_1071_223" x="-4" y="-2" width="56" height="56" filterUnits="userSpaceOnUse" color-interpolation-filters="sRGB">
			<feFlood flood-opacity="0" result="BackgroundImageFix"/>
			<feColorMatrix in="SourceAlpha" type="matrix" values="0 0 0 0 0 0 0 0 0 0 0 0 0 0 0 0 0 0 127 0" result="hardAlpha"/>
			<feOffset dy="2"/>
			<feGaussianBlur stdDeviation="2"/>
			<feColorMatrix type="matrix" values="0 0 0 0 0 0 0 0 0 0 0 0 0 0 0 0 0 0 0.24 0"/>
			<feBlend mode="normal" in2="BackgroundImageFix" result="effect1_dropShadow_1071_223"/>
			<feColorMatrix in="SourceAlpha" type="matrix" values="0 0 0 0 0 0 0 0 0 0 0 0 0 0 0 0 0 0 127 0" result="hardAlpha"/>
			<feOffset dy="1"/>
			<feGaussianBlur stdDeviation="1"/>
			<feComposite in2="hardAlpha" operator="out"/>
			<feColorMatrix type="matrix" values="0 0 0 0 0 0 0 0 0 0 0 0 0 0 0 0 0 0 0.12 0"/>
			<feBlend mode="normal" in2="effect1_dropShadow_1071_223" result="effect2_dropShadow_1071_223"/>
			<feBlend mode="normal" in="SourceGraphic" in2="effect2_dropShadow_1071_223" result="shape"/>
		</filter>
		<linearGradient id="paint0_linear_1071_223" x1="16.9167" y1="4" x2="22.3024" y2="44.393" gradientUnits="userSpaceOnUse">
			<stop stop-color="#BBBBBB"/>
			<stop offset="1" stop-color="#888888"/>
		</linearGradient>
	</defs>
</svg>
