<svg width="78" height="78" viewBox="0 0 78 78" fill="none" xmlns="http://www.w3.org/2000/svg">
	<rect width="78" height="78" rx="20.4" fill="url(#paint0_linear_1753_246)" />
	<g clip-path="url(#clip0_1753_246)">
		<rect width="78" height="78" rx="20.4" stroke="url(#paint1_linear_1753_246)" stroke-width="2" />
		<g style="mix-blend-mode:screen" filter="url(#filter0_i_1753_246)">
			<rect width="78" height="78" rx="20.4" fill="white" fill-opacity="0.01" />
		</g>
	</g>
	<g filter="url(#filter1_dd_1753_246)">
		<path d="M45.1868 14.5444C43.2047 14.1245 41.1325 13.9078 38.9998 13.9078C24.7473 13.9078 13.1934 23.5853 13.1934 38.9078C13.1934 54.2304 24.7473 63.9078 38.9998 63.9078C53.2523 63.9078 64.8063 54.2304 64.8063 38.9078C64.8063 26.8255 57.6222 18.2532 47.5959 15.168C40.9697 18.3789 34.6019 23.0914 31.2863 29.4018C33.3801 27.7428 36.0682 26.8111 38.9998 26.8111C45.6807 26.8111 51.0966 31.6498 51.0966 38.9078C51.0966 46.1659 45.6807 51.0046 38.9998 51.0046C32.3189 51.0046 26.903 46.1659 26.903 38.9078C26.903 28.6378 33.9041 20.2853 45.1868 14.5444Z" fill="#2FBDEC" fill-opacity="0.01" shape-rendering="crispEdges" />
	</g>
	<path d="M45.1868 14.5444C43.2047 14.1245 41.1325 13.9078 38.9998 13.9078C24.7473 13.9078 13.1934 23.5853 13.1934 38.9078C13.1934 54.2304 24.7473 63.9078 38.9998 63.9078C53.2523 63.9078 64.8063 54.2304 64.8063 38.9078C64.8063 26.8255 57.6222 18.2532 47.5959 15.168C40.9697 18.3789 34.6019 23.0914 31.2863 29.4018C33.3801 27.7428 36.0682 26.8111 38.9998 26.8111C45.6807 26.8111 51.0966 31.6498 51.0966 38.9078C51.0966 46.1659 45.6807 51.0046 38.9998 51.0046C32.3189 51.0046 26.903 46.1659 26.903 38.9078C26.903 28.6378 33.9041 20.2853 45.1868 14.5444Z" fill="#2FBDEC" />
	<path d="M38.9998 63.9078C24.7473 63.9078 13.1934 54.2304 13.1934 38.9078C13.1934 23.5853 24.7473 13.9078 38.9998 13.9078C41.1325 13.9078 43.2047 14.1245 45.1868 14.5444C33.9041 20.2853 26.903 28.6378 26.903 38.9078C26.903 46.1659 32.3189 51.0046 38.9998 51.0046V63.9078Z" fill="url(#paint2_linear_1753_246)" />
	<mask id="mask0_1753_246" style="mask-type:alpha" maskUnits="userSpaceOnUse" x="13" y="33" width="52" height="31">
		<rect x="13.1934" y="33.2627" width="51.6129" height="30.6452" fill="url(#paint3_linear_1753_246)" />
	</mask>
	<g mask="url(#mask0_1753_246)">
		<path d="M45.1868 14.5444C43.2047 14.1245 41.1325 13.9078 38.9998 13.9078C24.7473 13.9078 13.1934 23.5853 13.1934 38.9078C13.1934 54.2304 24.7473 63.9078 38.9998 63.9078C53.2523 63.9078 64.8063 54.2304 64.8063 38.9078C64.8063 26.8255 57.6222 18.2532 47.5959 15.168C40.9697 18.3789 34.6019 23.0914 31.2863 29.4018C33.3801 27.7428 36.0682 26.8111 38.9998 26.8111C45.6807 26.8111 51.0966 31.6498 51.0966 38.9078C51.0966 46.1659 45.6807 51.0046 38.9998 51.0046C32.3189 51.0046 26.903 46.1659 26.903 38.9078C26.903 28.6378 33.9041 20.2853 45.1868 14.5444Z" fill="url(#paint4_linear_1753_246)" />
	</g>
	<path d="M51.0964 38.9078H64.8061C64.8061 26.8255 57.622 18.2532 47.5957 15.168C40.9695 18.3789 34.6017 23.0914 31.2861 29.4018C33.3799 27.7428 36.068 26.811 38.9996 26.811C45.6805 26.811 51.0964 31.6498 51.0964 38.9078Z" fill="url(#paint5_linear_1753_246)" fill-opacity="0.25" />
	<path d="M45.1868 14.5444C43.2047 14.1245 41.1325 13.9078 38.9998 13.9078C24.7473 13.9078 13.1934 23.5853 13.1934 38.9078C13.1934 54.2304 24.7473 63.9078 38.9998 63.9078C53.2523 63.9078 64.8063 54.2304 64.8063 38.9078C64.8063 26.8255 57.6222 18.2532 47.5959 15.168C40.9697 18.3789 34.6019 23.0914 31.2863 29.4018C33.3801 27.7428 36.0682 26.8111 38.9998 26.8111C45.6807 26.8111 51.0966 31.6498 51.0966 38.9078C51.0966 46.1659 45.6807 51.0046 38.9998 51.0046C32.3189 51.0046 26.903 46.1659 26.903 38.9078C26.903 28.6378 33.9041 20.2853 45.1868 14.5444Z" fill="url(#paint6_linear_1753_246)" fill-opacity="0.4" />
	<g style="mix-blend-mode:plus-lighter" opacity="0.55">
		<mask id="mask1_1753_246" style="mask-type:alpha" maskUnits="userSpaceOnUse" x="14" y="14" width="50" height="50">
			<path d="M39 14.7144C40.2684 14.7144 41.5138 14.793 42.7296 14.9471C32.5158 20.7167 26.0968 28.8789 26.0968 38.9079C26.0968 46.6366 31.8994 51.8111 39 51.8111C46.1006 51.8111 51.9032 46.6366 51.9032 38.9079C51.9032 31.1792 46.1006 26.0047 39 26.0047C37.1145 26.0047 35.3164 26.369 33.6923 27.0536C37.0681 22.3723 42.2266 18.7066 47.661 16.0338C57.2041 19.0966 64 27.3155 64 38.9079C64 53.7296 52.8648 63.1015 39 63.1015C25.1352 63.1015 14 53.7296 14 38.9079C14 24.0863 25.1352 14.7144 39 14.7144Z" fill="black" />
		</mask>
		<g mask="url(#mask1_1753_246)">
			<g filter="url(#filter2_f_1753_246)">
				<path d="M39 15.0894C39.86 15.0894 40.7089 15.1285 41.5449 15.2007C31.8425 20.9728 25.7218 29.0289 25.7217 38.9077C25.7217 46.8555 31.7045 52.186 39 52.186C46.2955 52.186 52.2783 46.8555 52.2783 38.9077C52.2782 30.96 46.2954 25.6294 39 25.6294C37.5251 25.6294 36.1004 25.8474 34.7656 26.2632C38.0518 22.1639 42.7384 18.8909 47.6904 16.438C57.0082 19.489 63.6249 27.5428 63.625 38.9077C63.625 53.4967 52.6842 62.7261 39 62.7261C25.3158 62.7261 14.375 53.4967 14.375 38.9077C14.3751 24.3189 25.3159 15.0894 39 15.0894Z" stroke="url(#paint7_linear_1753_246)" stroke-width="0.75" />
			</g>
		</g>
	</g>
	<defs>
		<filter id="filter0_i_1753_246" x="0" y="0" width="78" height="78" filterUnits="userSpaceOnUse" color-interpolation-filters="sRGB">
			<feFlood flood-opacity="0" result="BackgroundImageFix" />
			<feBlend mode="normal" in="SourceGraphic" in2="BackgroundImageFix" result="shape" />
			<feColorMatrix in="SourceAlpha" type="matrix" values="0 0 0 0 0 0 0 0 0 0 0 0 0 0 0 0 0 0 127 0" result="hardAlpha" />
			<feMorphology radius="1" operator="erode" in="SourceAlpha" result="effect1_innerShadow_1753_246" />
			<feOffset />
			<feGaussianBlur stdDeviation="0.5" />
			<feComposite in2="hardAlpha" operator="arithmetic" k2="-1" k3="1" />
			<feColorMatrix type="matrix" values="0 0 0 0 1 0 0 0 0 1 0 0 0 0 1 0 0 0 0.55 0" />
			<feBlend mode="normal" in2="shape" result="effect1_innerShadow_1753_246" />
		</filter>
		<filter id="filter1_dd_1753_246" x="10.1934" y="11.9078" width="57.6128" height="56" filterUnits="userSpaceOnUse" color-interpolation-filters="sRGB">
			<feFlood flood-opacity="0" result="BackgroundImageFix" />
			<feColorMatrix in="SourceAlpha" type="matrix" values="0 0 0 0 0 0 0 0 0 0 0 0 0 0 0 0 0 0 127 0" result="hardAlpha" />
			<feOffset dy="1" />
			<feGaussianBlur stdDeviation="1.5" />
			<feComposite in2="hardAlpha" operator="out" />
			<feColorMatrix type="matrix" values="0 0 0 0 0.560784 0 0 0 0 0.513726 0 0 0 0 0.721569 0 0 0 0.12 0" />
			<feBlend mode="normal" in2="BackgroundImageFix" result="effect1_dropShadow_1753_246" />
			<feColorMatrix in="SourceAlpha" type="matrix" values="0 0 0 0 0 0 0 0 0 0 0 0 0 0 0 0 0 0 127 0" result="hardAlpha" />
			<feOffset dy="1" />
			<feGaussianBlur stdDeviation="1" />
			<feComposite in2="hardAlpha" operator="out" />
			<feColorMatrix type="matrix" values="0 0 0 0 0.56011 0 0 0 0 0.513967 0 0 0 0 0.72161 0 0 0 0.44 0" />
			<feBlend mode="normal" in2="effect1_dropShadow_1753_246" result="effect2_dropShadow_1753_246" />
			<feBlend mode="normal" in="SourceGraphic" in2="effect2_dropShadow_1753_246" result="shape" />
		</filter>
		<filter id="filter2_f_1753_246" x="13.5" y="14.2144" width="51" height="49.3871" filterUnits="userSpaceOnUse" color-interpolation-filters="sRGB">
			<feFlood flood-opacity="0" result="BackgroundImageFix" />
			<feBlend mode="normal" in="SourceGraphic" in2="BackgroundImageFix" result="shape" />
			<feGaussianBlur stdDeviation="0.25" result="effect1_foregroundBlur_1753_246" />
		</filter>
		<linearGradient id="paint0_linear_1753_246" x1="39" y1="0" x2="39" y2="78" gradientUnits="userSpaceOnUse">
			<stop stop-color="white" />
			<stop offset="1" stop-color="#EDECEE" />
		</linearGradient>
		<linearGradient id="paint1_linear_1753_246" x1="11.4227" y1="11.4227" x2="66.5773" y2="66.5773" gradientUnits="userSpaceOnUse">
			<stop stop-color="white" stop-opacity="0.8" />
			<stop offset="0.4927" stop-color="white" stop-opacity="0" />
			<stop offset="0.9971" stop-color="white" stop-opacity="0.5" />
		</linearGradient>
		<linearGradient id="paint2_linear_1753_246" x1="27.6082" y1="36.0684" x2="31.2556" y2="47.0218" gradientUnits="userSpaceOnUse">
			<stop stop-color="#FB7299" />
			<stop offset="1" stop-color="#FB7299" stop-opacity="0" />
		</linearGradient>
		<linearGradient id="paint3_linear_1753_246" x1="38.9998" y1="35.62" x2="38.9998" y2="41.5133" gradientUnits="userSpaceOnUse">
			<stop stop-opacity="0" />
			<stop offset="1" />
		</linearGradient>
		<linearGradient id="paint4_linear_1753_246" x1="13.1934" y1="47.3756" x2="64.4061" y2="39.7347" gradientUnits="userSpaceOnUse">
			<stop stop-color="#FB7299" />
			<stop offset="1" stop-color="#FB7299" stop-opacity="0" />
		</linearGradient>
		<linearGradient id="paint5_linear_1753_246" x1="39.4028" y1="-8.67283" x2="57.1448" y2="30.4401" gradientUnits="userSpaceOnUse">
			<stop />
			<stop offset="1" stop-opacity="0" />
		</linearGradient>
		<linearGradient id="paint6_linear_1753_246" x1="20.7518" y1="21.2301" x2="56.0895" y2="57.7077" gradientUnits="userSpaceOnUse">
			<stop stop-color="white" stop-opacity="0.6" />
			<stop offset="1" stop-color="white" stop-opacity="0.3" />
		</linearGradient>
		<linearGradient id="paint7_linear_1753_246" x1="21.3223" y1="21.8004" x2="55.5189" y2="57.1369" gradientUnits="userSpaceOnUse">
			<stop stop-color="white" stop-opacity="0.6" />
			<stop offset="0.4927" stop-color="white" stop-opacity="0" />
			<stop offset="0.9971" stop-color="white" stop-opacity="0.3" />
		</linearGradient>
		<clipPath id="clip0_1753_246">
			<rect width="78" height="78" rx="20.4" fill="white" />
		</clipPath>
	</defs>
</svg>
