<svg xmlns="http://www.w3.org/2000/svg" width="78" height="78" fill="none" viewBox="0 0 78 78"><g filter="url(#a)"><path fill="#2FBDEC" fill-opacity="0.01" d="M46.672 8.79A37 37 0 0 0 39 8C21.327 8 7 20 7 39s14.327 31 32 31 32-12 32-31c0-14.982-8.908-25.612-21.34-29.437-8.217 3.981-16.113 9.825-20.225 17.65C32.032 25.155 35.365 24 39 24c8.284 0 15 6 15 15s-6.716 15-15 15-15-6-15-15c0-12.735 8.681-23.092 22.672-30.21" shape-rendering="crispEdges"/></g><mask id="b" width="62" height="60" x="8" y="9" maskUnits="userSpaceOnUse" style="mask-type:alpha"><path fill="red" d="M39 9q2.361.001 4.625.289C30.96 16.443 23 26.564 23 39c0 9.584 7.195 16 16 16s16-6.416 16-16-7.195-16-16-16c-2.338 0-4.568.452-6.581 1.3C36.605 18.497 43 13.95 49.739 10.637 61.574 14.434 70 24.626 70 39c0 18.379-13.808 30-31 30S8 57.379 8 39 21.808 9 39 9"/></mask><g mask="url(#b)"><path fill="#2FBDEC" d="M46.672 8.79A37 37 0 0 0 39 8C21.327 8 7 20 7 39s14.327 31 32 31 32-12 32-31c0-14.982-8.908-25.612-21.34-29.437-8.217 3.981-16.113 9.825-20.225 17.65C32.032 25.155 35.365 24 39 24c8.284 0 15 6 15 15s-6.716 15-15 15-15-6-15-15c0-12.735 8.681-23.092 22.672-30.21"/><path fill="url(#c)" d="M39 70C21.327 70 7 58 7 39S21.327 8 39 8c2.645 0 5.214.269 7.672.79C32.682 15.907 24 26.264 24 39c0 9 6.716 15 15 15z"/><mask id="e" width="64" height="38" x="7" y="32" maskUnits="userSpaceOnUse" style="mask-type:alpha"><path fill="url(#d)" d="M7 32h64v38H7z"/></mask><g mask="url(#e)"><path fill="url(#f)" d="M46.672 8.79A37 37 0 0 0 39 8C21.327 8 7 20 7 39s14.327 31 32 31 32-12 32-31c0-14.982-8.908-25.612-21.34-29.437-8.217 3.981-16.113 9.825-20.225 17.65C32.032 25.155 35.365 24 39 24c8.284 0 15 6 15 15s-6.716 15-15 15-15-6-15-15c0-12.735 8.681-23.092 22.672-30.21"/></g><path fill="url(#g)" d="M54 39h17c0-14.982-8.908-25.612-21.34-29.437-8.217 3.981-16.113 9.825-20.225 17.65C32.032 25.155 35.365 24 39 24c8.284 0 15 6 15 15"/></g><g filter="url(#h)"><path stroke="url(#i)" stroke-width="2" d="M39 9q2.361.001 4.625.289C30.96 16.443 23 26.564 23 39c0 9.584 7.195 16 16 16s16-6.416 16-16-7.195-16-16-16c-2.338 0-4.568.452-6.581 1.3C36.605 18.497 43 13.95 49.739 10.637 61.574 14.434 70 24.626 70 39c0 18.379-13.808 30-31 30S8 57.379 8 39 21.808 9 39 9Z"/></g><defs><linearGradient id="c" x1="24.8744" x2="29.3972" y1="35.4791" y2="49.0613" gradientUnits="userSpaceOnUse"><stop stop-color="#FB7299"/><stop offset="1" stop-color="#FB7299" stop-opacity="0"/></linearGradient><linearGradient id="d" x1="39" x2="39" y1="34.9231" y2="42.2308" gradientUnits="userSpaceOnUse"><stop stop-opacity="0"/><stop offset="1"/></linearGradient><linearGradient id="f" x1="7" x2="70.5038" y1="49.5" y2="40.0253" gradientUnits="userSpaceOnUse"><stop stop-color="#FB7299"/><stop offset="1" stop-color="#FB7299" stop-opacity="0"/></linearGradient><linearGradient id="g" x1="39.5" x2="61.5" y1="-20" y2="28.5" gradientUnits="userSpaceOnUse"><stop/><stop offset="1" stop-opacity="0"/></linearGradient><linearGradient id="i" x1="15" x2="52.263" y1="8" y2="91.4403" gradientUnits="userSpaceOnUse"><stop stop-color="#fff"/><stop offset="1" stop-color="#DFDFDF"/></linearGradient><filter id="a" width="72" height="74" x="3" y="4" color-interpolation-filters="sRGB" filterUnits="userSpaceOnUse"><feFlood flood-opacity="0" result="BackgroundImageFix"/><feColorMatrix in="SourceAlpha" result="hardAlpha" values="0 0 0 0 0 0 0 0 0 0 0 0 0 0 0 0 0 0 127 0"/><feOffset/><feGaussianBlur stdDeviation="2"/><feComposite in2="hardAlpha" operator="out"/><feColorMatrix values="0 0 0 0 0.129412 0 0 0 0 0.14902 0 0 0 0 0.172549 0 0 0 0.25 0"/><feBlend in2="BackgroundImageFix" result="effect1_dropShadow_573_3273"/><feColorMatrix in="SourceAlpha" result="hardAlpha" values="0 0 0 0 0 0 0 0 0 0 0 0 0 0 0 0 0 0 127 0"/><feOffset dy="4"/><feGaussianBlur stdDeviation="2"/><feComposite in2="hardAlpha" operator="out"/><feColorMatrix values="0 0 0 0 0.129412 0 0 0 0 0.14902 0 0 0 0 0.172549 0 0 0 0.3 0"/><feBlend in2="effect1_dropShadow_573_3273" result="effect2_dropShadow_573_3273"/><feBlend in="SourceGraphic" in2="effect2_dropShadow_573_3273" result="shape"/></filter><filter id="h" width="68" height="66" x="5" y="7" color-interpolation-filters="sRGB" filterUnits="userSpaceOnUse"><feFlood flood-opacity="0" result="BackgroundImageFix"/><feColorMatrix in="SourceAlpha" result="hardAlpha" values="0 0 0 0 0 0 0 0 0 0 0 0 0 0 0 0 0 0 127 0"/><feOffset dy="1"/><feGaussianBlur stdDeviation="1"/><feColorMatrix values="0 0 0 0 0.129412 0 0 0 0 0.14902 0 0 0 0 0.172549 0 0 0 0.25 0"/><feBlend in2="BackgroundImageFix" result="effect1_dropShadow_573_3273"/><feBlend in="SourceGraphic" in2="effect1_dropShadow_573_3273" result="shape"/></filter></defs></svg>