<svg width="32" height="32" viewBox="0 0 32 32" xmlns="http://www.w3.org/2000/svg">
	<path d="M13 16C13 15.7552 13.0573 15.526 13.1719 15.3125C13.2865 15.0964 13.444 14.9193 13.6445 14.7812L17.4297 12.1797C17.5182 12.1198 17.6081 12.0755 17.6992 12.0469C17.7904 12.0156 17.8906 12 18 12C18.1354 12 18.2643 12.026 18.3867 12.0781C18.5091 12.1302 18.6146 12.2018 18.7031 12.293C18.7943 12.3815 18.8659 12.4857 18.918 12.6055C18.9727 12.7253 19 12.8542 19 12.9922V19.0078C19 19.1458 18.9727 19.2747 18.918 19.3945C18.8659 19.5143 18.7943 19.6198 18.7031 19.7109C18.6146 19.7995 18.5091 19.8698 18.3867 19.9219C18.2643 19.974 18.1354 20 18 20C17.7943 20 17.6042 19.9401 17.4297 19.8203L13.6445 17.2188C13.444 17.0807 13.2865 16.9049 13.1719 16.6914C13.0573 16.4753 13 16.2448 13 16Z" />
</svg>
