<svg width="32" height="32" viewBox="0 0 32 32" xmlns="http://www.w3.org/2000/svg">
	<path d="M13 19.0078V12.9922C13 12.8542 13.026 12.7253 13.0781 12.6055C13.1328 12.4857 13.2044 12.3815 13.293 12.293C13.3841 12.2018 13.4896 12.1302 13.6094 12.0781C13.7318 12.026 13.862 12 14 12C14.2057 12 14.3958 12.0599 14.5703 12.1797L18.3555 14.7812C18.5586 14.9219 18.7161 15.099 18.8281 15.3125C18.9427 15.526 19 15.7552 19 16C19 16.2448 18.9427 16.474 18.8281 16.6875C18.7161 16.901 18.5586 17.0781 18.3555 17.2188L14.5703 19.8203C14.3958 19.9401 14.2057 20 14 20C13.862 20 13.7318 19.974 13.6094 19.9219C13.4896 19.8698 13.3841 19.7995 13.293 19.7109C13.2044 19.6198 13.1328 19.5143 13.0781 19.3945C13.026 19.2747 13 19.1458 13 19.0078Z" />
</svg>
