<svg width="16" height="16" viewBox="0 0 16 16" xmlns="http://www.w3.org/2000/svg">
	<path d="M2.31375 14.2594L2.31418 14.2562L2.31698 14.2357C2.31969 14.2164 2.32411 14.1859 2.33049 14.145C2.34325 14.0632 2.36385 13.9399 2.39426 13.781C2.45513 13.463 2.55508 13.0037 2.70979 12.4504C3.02007 11.3409 3.54615 9.8697 4.4078 8.40572C6.11887 5.49852 9.12866 2.63986 14.4799 2.63986C14.9218 2.63986 15.2799 2.28168 15.2799 1.83986C15.2799 1.39803 14.9218 1.03986 14.4799 1.03986C8.41364 1.03986 4.94343 4.34127 3.0289 7.59415C2.07775 9.21021 1.50463 10.819 1.16891 12.0195C1.00063 12.6213 0.890869 13.1245 0.822786 13.4803C0.788725 13.6582 0.765033 13.7996 0.74963 13.8983C0.741927 13.9476 0.736292 13.9863 0.732465 14.0136L0.728048 14.046L0.726795 14.0555L0.726397 14.0587L0.726253 14.0598C0.671368 14.4982 0.982166 14.8989 1.42057 14.9538C1.85879 15.0087 2.25859 14.6975 2.31375 14.2594Z" />
</svg>
