<svg width="16" height="16" viewBox="0 0 16 16" xmlns="http://www.w3.org/2000/svg">
	<path d="M14.0016 0.668091C14.4476 0.668091 14.8091 1.02959 14.8091 1.47553C14.8091 3.91482 13.9711 5.54903 12.6596 6.70321C11.4031 7.80886 9.7562 8.42669 8.2803 8.97274C8.25287 8.98289 8.22549 8.99302 8.19818 9.00312C6.69169 9.56035 5.36607 10.0507 4.38463 10.8517C3.45142 11.6134 2.80604 12.6813 2.80604 14.5245C2.80604 14.9704 2.44454 15.3319 1.9986 15.3319C1.55267 15.3319 1.19116 14.9704 1.19116 14.5245C1.19116 12.2072 2.04616 10.6758 3.36353 9.60062C4.55866 8.62519 6.11268 8.05155 7.52214 7.53127C7.58841 7.50681 7.65437 7.48246 7.71995 7.4582C9.2448 6.89403 10.5986 6.36573 11.5928 5.49089C12.5318 4.66457 13.1942 3.48392 13.1942 1.47553C13.1942 1.02959 13.5557 0.668091 14.0016 0.668091Z" />
</svg>
