<svg width="16" height="16" viewBox="0 0 16 16" xmlns="http://www.w3.org/2000/svg">
	<path d="M13.6862 1.74061L13.6858 1.74379L13.683 1.7643C13.6803 1.78362 13.6759 1.81409 13.6695 1.85497C13.6567 1.93676 13.6361 2.06008 13.6057 2.21898C13.5449 2.53701 13.4449 2.99631 13.2902 3.54955C12.9799 4.65907 12.4538 6.1303 11.5922 7.59428C9.88113 10.5015 6.87134 13.3601 1.52005 13.3601C1.07822 13.3601 0.720052 13.7183 0.720052 14.1601C0.720052 14.602 1.07822 14.9601 1.52005 14.9601C7.58636 14.9601 11.0566 11.6587 12.9711 8.40585C13.9223 6.78979 14.4954 5.18098 14.8311 3.98046C14.9994 3.3787 15.1091 2.87548 15.1772 2.51975C15.2113 2.34178 15.235 2.20041 15.2504 2.10172C15.2581 2.05237 15.2637 2.01366 15.2675 1.98635L15.272 1.95403L15.2732 1.94446L15.2736 1.94135L15.2737 1.94021C15.3286 1.50181 15.0178 1.10107 14.5794 1.04618C14.1412 0.99132 13.7414 1.3025 13.6862 1.74061Z" />
</svg>
