<svg width="16" height="16" viewBox="0 0 16 16" xmlns="http://www.w3.org/2000/svg">
	<path d="M6.70333 12.6595C5.54916 13.9711 3.91494 14.809 1.47565 14.809C1.02972 14.809 0.668213 14.4475 0.668213 14.0016C0.668213 13.5556 1.02972 13.1941 1.47565 13.1941C3.48405 13.1941 4.66469 12.5317 5.49101 11.5927C6.36585 10.5986 6.89416 9.24474 7.45832 7.71989C7.48258 7.65431 7.50693 7.58835 7.53139 7.52208C8.05167 6.11262 8.62531 4.5586 9.60075 3.36347C10.6759 2.0461 12.2074 1.1911 14.5246 1.1911C14.9705 1.1911 15.3321 1.5526 15.3321 1.99854C15.3321 2.44448 14.9705 2.80598 14.5246 2.80598C12.6815 2.80598 11.6135 3.45136 10.8518 4.38456C10.0508 5.36601 9.56047 6.69163 9.00324 8.19812C8.99314 8.22543 8.98301 8.25281 8.97287 8.28024C8.42681 9.75614 7.80899 11.4031 6.70333 12.6595Z" />
</svg>
