<svg width="16" height="16" viewBox="0 0 16 16" xmlns="http://www.w3.org/2000/svg">
	<path d="M8.23007 4.98634L8.66006 7.12118C8.70532 7.11615 8.75058 7.11363 8.79584 7.11363C8.8411 7.11363 8.88385 7.11363 8.92409 7.11363C9.31635 7.11363 9.67847 7.19159 10.0104 7.34749C10.3423 7.49836 10.6289 7.70204 10.8703 7.95854C11.1117 8.20998 11.2978 8.50166 11.4286 8.83359C11.5644 9.1605 11.6323 9.49992 11.6323 9.85194C11.6323 10.1386 11.587 10.4152 11.4965 10.6818C11.411 10.9433 11.2827 11.1847 11.1117 11.406C10.9458 11.6222 10.7421 11.8133 10.5007 11.9793C10.2593 12.1402 9.98522 12.2609 9.67847 12.3414L9.93493 13.6766C9.94497 13.747 9.95254 13.8124 9.95756 13.8727C9.9676 13.9381 9.97263 14.006 9.97263 14.0764C9.97263 14.3379 9.92489 14.5843 9.82933 14.8157C9.7388 15.047 9.61057 15.2507 9.44459 15.4267C9.28366 15.6027 9.09507 15.741 8.87882 15.8416C8.66257 15.9472 8.43124 16 8.18481 16C7.9585 16 7.73722 15.9649 7.52097 15.8944C7.30472 15.8291 7.1111 15.7335 6.94011 15.6077C6.77415 15.4871 6.63836 15.3362 6.53275 15.1552C6.43217 14.9741 6.38188 14.7704 6.38188 14.5441C6.38188 14.3278 6.44224 14.1343 6.56293 13.9632C6.68866 13.7973 6.89234 13.6942 7.17396 13.6539C7.19911 13.6489 7.22426 13.6439 7.2494 13.6389C7.27957 13.6389 7.30724 13.6389 7.33238 13.6389C7.47319 13.6389 7.60144 13.6665 7.71711 13.7218C7.83278 13.7822 7.93084 13.8601 8.01131 13.9557C8.0968 14.0512 8.15966 14.1569 8.1999 14.2725C8.24516 14.3933 8.26779 14.5165 8.26779 14.6422C8.26779 14.8082 8.22504 14.9691 8.13955 15.1249C8.05405 15.2808 7.91827 15.4016 7.73219 15.4871C7.8026 15.5122 7.87049 15.5273 7.93587 15.5323C8.00124 15.5424 8.06914 15.5474 8.13955 15.5474C8.33065 15.5474 8.50164 15.5072 8.65251 15.4267C8.80842 15.3513 8.93917 15.2482 9.04479 15.1175C9.1504 14.9867 9.23086 14.8308 9.28618 14.6497C9.34653 14.4737 9.3767 14.2826 9.3767 14.0764C9.3767 14.0161 9.36916 13.933 9.35407 13.8274C9.34402 13.7218 9.33396 13.6389 9.32389 13.5785L9.10513 12.447C8.96935 12.4822 8.79081 12.4998 8.56953 12.4998C8.07165 12.4998 7.5788 12.447 7.09098 12.3414C6.60819 12.2358 6.17066 12.0547 5.77839 11.7982C5.39116 11.5417 5.06929 11.2023 4.81281 10.7798C4.55633 10.3523 4.41049 9.81926 4.37528 9.18058C4.37025 9.1303 4.36774 9.08001 4.36774 9.02972C4.36774 8.97943 4.36774 8.92915 4.36774 8.87886C4.36774 8.40611 4.43311 7.9434 4.56387 7.49082C4.69463 7.03317 4.90333 6.60822 5.18999 6.21595C5.52191 5.78344 5.88149 5.4138 6.26873 5.10703C6.65597 4.80026 7.08596 4.52115 7.55869 4.26969C7.48325 3.88748 7.41788 3.55807 7.36255 3.28148C7.31227 3.00487 7.26952 2.77102 7.23432 2.57992C7.19911 2.38379 7.17145 2.22285 7.15133 2.09712C7.13121 1.9714 7.11362 1.8683 7.09852 1.78784C7.08847 1.70738 7.08093 1.64199 7.0759 1.59171C7.0759 1.54141 7.0759 1.49363 7.0759 1.44838C7.0759 1.25727 7.10356 1.07622 7.15888 0.905238C7.21419 0.729217 7.29466 0.57583 7.40027 0.445073C7.50588 0.309288 7.63412 0.201163 7.785 0.120698C7.9409 0.0402327 8.11691 0 8.31305 0C8.55445 0 8.76818 0.0578344 8.95426 0.173503C9.14033 0.284143 9.29372 0.427472 9.41442 0.60349C9.54014 0.779511 9.6332 0.975641 9.69353 1.19189C9.75888 1.40814 9.79164 1.61936 9.79164 1.82556C9.79164 2.12228 9.74382 2.41648 9.64827 2.70816C9.55773 2.99984 9.43705 3.28148 9.28618 3.55305C9.14033 3.82461 8.97437 4.08362 8.7883 4.33004C8.60222 4.57144 8.41614 4.7902 8.23007 4.98634ZM8.43375 1.16172C8.27282 1.16172 8.14458 1.19692 8.04902 1.26733C7.9585 1.33271 7.88809 1.41066 7.83781 1.50118C7.79254 1.59171 7.76237 1.68474 7.74728 1.7803C7.73722 1.87082 7.73219 1.94122 7.73219 1.99152C7.73219 2.35864 7.7674 2.70313 7.83781 3.025C7.90821 3.34685 7.97107 3.66117 8.0264 3.96795C8.2175 3.85731 8.38346 3.72906 8.52427 3.58322C8.67012 3.43235 8.79081 3.27393 8.88637 3.10797C8.98192 2.94201 9.05232 2.77354 9.09759 2.60255C9.14788 2.43156 9.17302 2.27063 9.17302 2.11976C9.17302 2.00912 9.16045 1.89597 9.1353 1.7803C9.11519 1.66463 9.07747 1.56153 9.02215 1.47101C8.96683 1.38048 8.8914 1.30756 8.79584 1.25224C8.70029 1.19189 8.57959 1.16172 8.43375 1.16172ZM9.00707 11.9491L8.35831 8.49409C8.16721 8.53936 7.99873 8.6173 7.85289 8.728C7.71208 8.83359 7.59389 8.96182 7.49834 9.11268C7.40279 9.25853 7.32986 9.41951 7.27957 9.59548C7.23432 9.7665 7.21168 9.94 7.21168 10.116C7.21168 10.1814 7.21419 10.2467 7.21923 10.3122C7.22929 10.3775 7.23934 10.4404 7.2494 10.5007C7.01303 10.3901 6.8345 10.2342 6.7138 10.033C6.59311 9.83185 6.53275 9.60807 6.53275 9.36165C6.53275 9.11523 6.5755 8.88133 6.661 8.6601C6.74649 8.43878 6.86216 8.23763 7.00801 8.05657C7.15888 7.87558 7.32986 7.71713 7.52097 7.58134C7.71711 7.44555 7.92329 7.33743 8.13955 7.25696C8.08423 6.96528 8.03142 6.69371 7.98113 6.44225L7.785 5.43895C7.43296 5.77087 7.08344 6.10279 6.73644 6.43471C6.38943 6.7616 6.05499 7.11363 5.73313 7.49082C5.62752 7.61655 5.52442 7.74727 5.42385 7.88307C5.32326 8.01887 5.23526 8.16216 5.15982 8.3131C5.08438 8.45895 5.02403 8.61228 4.97877 8.77326C4.93351 8.92915 4.91087 9.0926 4.91087 9.26355C4.9159 9.61564 4.97123 9.9274 5.07684 10.199C5.18748 10.4655 5.33332 10.7019 5.51436 10.9081C5.69541 11.1093 5.90412 11.2802 6.14049 11.421C6.38188 11.5568 6.63334 11.6675 6.89485 11.753C7.15636 11.8385 7.42039 11.9013 7.68693 11.9415C7.9585 11.9768 8.21499 11.9944 8.45638 11.9944C8.64245 11.9944 8.82601 11.9793 9.00707 11.9491ZM8.90145 8.44133L9.5653 11.7982C9.79164 11.7379 9.99024 11.6448 10.1613 11.5191C10.3322 11.3884 10.473 11.24 10.5836 11.0741C10.6994 10.9081 10.7849 10.7321 10.8402 10.546C10.8955 10.3549 10.9231 10.1663 10.9231 9.98024C10.9231 9.68856 10.8628 9.44461 10.7421 9.24848C10.6264 9.05235 10.473 8.89392 10.2819 8.77326C10.0908 8.65253 9.8746 8.56701 9.6332 8.51673C9.39179 8.46644 9.14788 8.44133 8.90145 8.44133Z" />
</svg>
